<svg width="242" height="273" viewBox="0 0 242 273" fill="none" xmlns="http://www.w3.org/2000/svg">
<path d="M10.2787 212.75H83.6864L86.0472 163.419H7.91797L10.2787 212.75Z" fill="#EBEBEB"/>
<path d="M78.3062 185.982H13.6655L12.7773 168.857H79.3433L78.3062 185.982ZM14.2041 185.375H77.7676L78.7359 169.464H13.3733L14.2041 185.375Z" fill="#DBDBDB"/>
<path d="M77.4305 205.705H15.5459L14.8125 190.23H78.3416L77.4305 205.705ZM16.0617 205.098H76.8919L77.7342 190.837H15.3855L16.0617 205.098Z" fill="#DBDBDB"/>
<path d="M53.4138 179.307H39.7132L39.209 175.174H53.918L53.4138 179.307ZM40.2347 178.7H52.9153L53.2705 175.781H39.8622L40.2347 178.7Z" fill="#DBDBDB"/>
<path d="M53.4138 200.037H39.7132L39.209 195.91H53.918L53.4138 200.037ZM40.2347 199.43H52.9153L53.2705 196.517H39.8622L40.2347 199.43Z" fill="#DBDBDB"/>
<path d="M20.4605 212.75L19.75 218.121L18.3118 228.923H15.5098V212.75H20.4605Z" fill="#EBEBEB"/>
<path d="M20.4605 212.75L19.75 218.121H15.5098V212.75H20.4605Z" fill="#DBDBDB"/>
<path d="M73.5098 212.75L74.2203 218.121L75.6528 228.923H78.4548V212.75H73.5098Z" fill="#EBEBEB"/>
<path d="M73.5098 212.75L74.2203 218.121H78.4548V212.75H73.5098Z" fill="#DBDBDB"/>
<path d="M151.382 19.8081H124.324V59.2049H151.382V19.8081Z" fill="#EBEBEB"/>
<path d="M181.487 19.8081H154.43V59.2049H181.487V19.8081Z" fill="#EBEBEB"/>
<path d="M151.382 62.4331H124.324V101.83H151.382V62.4331Z" fill="#EBEBEB"/>
<path d="M181.487 62.4331H154.43V101.83H181.487V62.4331Z" fill="#EBEBEB"/>
<path d="M213.503 19.8081H186.445V59.2049H213.503V19.8081Z" fill="#EBEBEB"/>
<path d="M243.606 19.8081H216.549V59.2049H243.606V19.8081Z" fill="#EBEBEB"/>
<path d="M213.503 62.4331H186.445V101.83H213.503V62.4331Z" fill="#EBEBEB"/>
<path d="M243.606 62.4331H216.549V101.83H243.606V62.4331Z" fill="#EBEBEB"/>
<path d="M219.159 272.203C233.823 272.203 245.712 269.241 245.712 265.588C245.712 261.935 233.823 258.974 219.159 258.974C204.494 258.974 192.605 261.935 192.605 265.588C192.605 269.241 204.494 272.203 219.159 272.203Z" fill="#EBEBEB"/>
<path d="M132.267 260.63C183.135 260.63 224.372 255.139 224.372 248.366C224.372 241.593 183.135 236.102 132.267 236.102C81.3989 236.102 40.1621 241.593 40.1621 248.366C40.1621 255.139 81.3989 260.63 132.267 260.63Z" fill="#EBEBEB"/>
<path d="M120.359 276.409C171.227 276.409 212.464 270.918 212.464 264.144C212.464 257.371 171.227 251.88 120.359 251.88C69.4906 251.88 28.2539 257.371 28.2539 264.144C28.2539 270.918 69.4906 276.409 120.359 276.409Z" fill="#EBEBEB"/>
<path d="M4.75 228.923L33.767 228.771L62.7839 228.722L120.818 228.619L178.852 228.722L207.869 228.771L236.886 228.923L207.869 229.068L178.852 229.123L120.818 229.226L62.7839 229.123L33.767 229.068L4.75 228.923Z" fill="#263238"/>
<path d="M120.456 76.6907C124.942 43.8389 103.433 13.3553 72.4133 8.60369C41.3937 3.85211 12.6102 26.6319 8.12366 59.4837C3.63709 92.3356 25.1464 122.819 56.166 127.571C87.1856 132.322 115.969 109.543 120.456 76.6907Z" fill="#CA2323"/>
<path opacity="0.1" d="M120.982 71.9904C122.317 40.3499 99.181 13.5534 69.3052 12.1388C39.4294 10.7241 14.1274 35.227 12.7916 66.8675C11.4559 98.508 34.5922 125.305 64.468 126.719C94.3438 128.134 119.646 103.631 120.982 71.9904Z" fill="black"/>
<path d="M117.543 72.361C119.068 42.7337 97.6263 17.4069 69.6515 15.792C41.6767 14.1771 17.7624 36.8856 16.2376 66.5128C14.7127 96.1401 36.1547 121.467 64.1295 123.082C92.1043 124.697 116.019 101.988 117.543 72.361Z" fill="white"/>
<path d="M116.467 58.0273C93.3631 72.8527 55.3958 97.1692 34.1774 110.502C28.1786 105.144 23.4341 98.3872 20.3164 90.7608L90.4981 21.8711C97.0551 25.5264 102.777 30.6571 107.264 36.9031C111.75 43.1491 114.891 50.3592 116.467 58.0273Z" fill="#EBEBEB"/>
<path d="M117.58 71.2871C117.396 77.2649 116.263 83.1671 114.228 88.7462L50.9564 120.442C48.1989 119.477 45.5262 118.258 42.9688 116.801C62.0785 105.119 97.0031 83.8368 117.58 71.2871Z" fill="#EBEBEB"/>
<path d="M67.3802 19.6074H66.4004V27.7514H67.3802V19.6074Z" fill="#C7C7C7"/>
<path d="M43.79 26.0168L42.9414 26.5356L46.7863 33.5885L47.6348 33.0696L43.79 26.0168Z" fill="#C7C7C7"/>
<path d="M26.3845 44.0613L25.8945 44.96L32.554 49.0319L33.0439 48.1332L26.3845 44.0613Z" fill="#C7C7C7"/>
<path d="M27.5315 68.9141H19.8418V69.9518H27.5315V68.9141Z" fill="#C7C7C7"/>
<path d="M32.556 89.8265L25.8965 93.8984L26.3864 94.7971L33.0459 90.7252L32.556 89.8265Z" fill="#C7C7C7"/>
<path d="M46.7847 105.271L42.9434 112.326L43.7922 112.845L47.6336 105.79L46.7847 105.271Z" fill="#C7C7C7"/>
<path d="M67.3802 111.115H66.4004V119.259H67.3802V111.115Z" fill="#C7C7C7"/>
<path d="M86.9911 105.271L86.1426 105.79L89.9874 112.843L90.836 112.324L86.9911 105.271Z" fill="#C7C7C7"/>
<path d="M101.213 89.8152L100.723 90.7139L107.382 94.7858L107.872 93.8872L101.213 89.8152Z" fill="#C7C7C7"/>
<path d="M113.936 68.9141H106.246V69.9518H113.936V68.9141Z" fill="#C7C7C7"/>
<path d="M107.388 44.0789L100.729 48.1509L101.218 49.0496L107.878 44.9776L107.388 44.0789Z" fill="#C7C7C7"/>
<path d="M89.9879 26.0256L86.1465 33.0806L86.9953 33.599L90.8367 26.544L89.9879 26.0256Z" fill="#C7C7C7"/>
<path d="M67.6243 23.2914L69.2918 73.0593L64.4785 72.9925L66.3179 23.2793L67.6243 23.2914Z" fill="#CA2323"/>
<path d="M96.8948 52.0741L65.2821 73.4473L62.9844 68.9688L96.2702 50.8604L96.8948 52.0741Z" fill="#263238"/>
<path d="M66.8867 71.1718C67.795 71.1718 68.5312 70.392 68.5312 69.4301C68.5312 68.4682 67.795 67.6885 66.8867 67.6885C65.9785 67.6885 65.2422 68.4682 65.2422 69.4301C65.2422 70.392 65.9785 71.1718 66.8867 71.1718Z" fill="#CA2323"/>
<path d="M177.953 179.137C180.904 180.696 183.821 182.317 186.732 183.943C189.642 185.569 192.536 187.238 195.441 188.889C198.346 190.539 201.217 192.245 204.088 193.956L208.385 196.535C209.806 197.415 211.25 198.277 212.654 199.175C211.176 198.398 209.721 197.591 208.248 196.796L203.876 194.369C200.959 192.742 198.071 191.067 195.166 189.423C192.261 187.778 189.396 186.061 186.525 184.35C183.655 182.638 180.789 180.915 177.953 179.137Z" fill="#A6A6A6"/>
<path d="M210.206 179.137C207.576 180.739 204.911 182.286 202.247 183.828C199.582 185.369 196.895 186.862 194.225 188.373C191.555 189.884 188.844 191.34 186.134 192.797L182.066 194.963C180.702 195.661 179.344 196.383 177.969 197.069C179.281 196.262 180.616 195.491 181.934 194.696L185.945 192.378C188.615 190.843 191.303 189.344 193.967 187.833C196.632 186.322 199.353 184.865 202.058 183.415C204.762 181.965 207.461 180.52 210.206 179.137Z" fill="#A6A6A6"/>
<path d="M145.199 179.137C148.15 180.696 151.067 182.317 153.978 183.943C156.889 185.569 159.782 187.238 162.687 188.889C165.592 190.539 168.463 192.245 171.328 193.956L175.632 196.535C177.053 197.415 178.497 198.277 179.9 199.175C178.422 198.398 176.967 197.591 175.494 196.796L171.122 194.369C168.205 192.742 165.317 191.067 162.412 189.423C159.507 187.778 156.636 186.061 153.771 184.35C150.906 182.638 148.036 180.915 145.199 179.137Z" fill="#A6A6A6"/>
<path d="M177.448 179.137C174.818 180.739 172.154 182.286 169.489 183.828C166.825 185.369 164.132 186.862 161.467 188.373C158.803 189.884 156.087 191.34 153.376 192.797L149.308 194.963C147.944 195.661 146.586 196.383 145.211 197.069C146.523 196.262 147.858 195.491 149.176 194.696L153.187 192.378C155.857 190.843 158.545 189.344 161.209 187.833C163.874 186.322 166.595 184.865 169.3 183.415C172.005 181.965 174.709 180.52 177.448 179.137Z" fill="#A6A6A6"/>
<path d="M151.188 174.336L149.452 185.357L137.699 252.59H135.803L144.352 185.357L145.613 174.336H151.188Z" fill="#A6A6A6"/>
<path d="M145.612 174.336H151.188L149.451 185.357H144.352L145.612 174.336Z" fill="#263238"/>
<path d="M188.106 252.59H186.209L174.457 185.357L172.721 174.336H178.296L179.557 185.357L188.106 252.59Z" fill="#A6A6A6"/>
<path d="M178.296 174.336L179.557 185.357H174.457L172.721 174.336H178.296Z" fill="#263238"/>
<path d="M223.369 252.59H221.473L209.715 185.357L207.979 174.336H213.554L214.82 185.357L223.369 252.59Z" fill="#A6A6A6"/>
<path d="M214.82 185.357H209.715L207.979 174.336H213.554L214.82 185.357Z" fill="#263238"/>
<path d="M220.361 179.513H134.221V169.9H166.464L177.305 96.0161H217.077L220.361 179.513Z" fill="#A6A6A6"/>
<path d="M220.36 179.513H215.667L212.607 96.0161H217.077L220.36 179.513Z" fill="#DBDBDB"/>
<path d="M160.521 117.238C164.693 121.297 171.07 122.092 176.479 121.613C181.997 121.115 188.066 119.586 192.621 116.109C194.677 114.613 196.3 112.541 197.308 110.125C198.322 107.516 198.127 104.979 196.345 102.971C194.913 101.35 192.163 100.47 191.922 98.8136C191.681 97.1569 192.758 95.6458 192.884 94.0013C193.091 91.1855 191.423 89.371 189.389 87.8903C184.57 84.3766 184.925 78.6661 181.585 73.872C179.688 71.1473 174.737 66.3471 167.638 70.0367C164.933 71.4386 163.386 74.5092 162.641 77.5495C161.765 81.1239 163.363 85.384 162.166 88.8794C161.14 91.8591 159.123 92.6298 158.155 95.7369C157.748 97.0841 157.673 98.5891 159.347 101.344C159.954 102.339 160.67 103.893 160.435 105.228C160.109 107.085 158.269 108.208 157.891 110.15C157.393 112.82 158.682 115.447 160.521 117.238Z" fill="#263238"/>
<path d="M195.744 111.09C198.243 110.228 198.799 106.278 196.89 104.615C195.687 103.559 194.065 103.244 192.879 102.188C190.897 100.458 192.152 98.407 192.782 96.2952C194.151 91.7135 191.029 89.2739 187.785 87.1075C185.321 85.4568 184.554 83.2418 183.986 80.3168C183.986 80.2743 184.044 80.2561 184.055 80.3168C184.571 82.4529 185.161 84.5344 186.823 86.003C188.175 87.2167 189.842 87.8903 191.166 89.1404C193.384 91.2341 193.985 93.801 193.063 96.7503C192.799 97.5999 192.209 98.6073 192.18 99.4933C192.117 101.575 193.693 102.388 195.189 103.134C196.335 103.741 197.612 104.397 198.197 105.683C199.085 107.631 197.773 110.69 195.825 111.23C195.704 111.278 195.647 111.127 195.744 111.09Z" fill="#263238"/>
<path d="M194.656 113.384C196.077 112.11 197.647 110.914 198.312 108.984C199.292 106.132 197.298 104.433 195.447 102.831C194.645 102.145 193.957 101.441 193.825 100.306C193.636 98.6133 194.576 97.0052 194.524 95.2999C194.393 91.234 190.353 89.4256 188.067 86.804C185.78 84.1824 184.629 80.7355 183.402 77.3796C183.402 77.3068 183.483 77.2643 183.505 77.3371C185.064 81.5851 186.892 85.5539 190.313 88.4789C192.702 90.5179 195.252 92.7268 194.811 96.3255C194.702 97.2054 194.347 98.055 194.238 98.9289C194.06 100.677 194.645 101.69 195.854 102.722C197.063 103.753 198.346 104.7 198.77 106.302C199.601 109.415 196.948 112.013 194.811 113.615C194.782 113.627 194.751 113.628 194.721 113.619C194.692 113.61 194.666 113.59 194.648 113.564C194.63 113.537 194.621 113.505 194.623 113.472C194.624 113.44 194.636 113.409 194.656 113.384Z" fill="#263238"/>
<path d="M157.082 109.263C158.051 107.121 159.947 105.817 158.968 103.159C158.309 101.338 157.111 99.9786 157.157 97.9092C157.27 96.2399 157.919 94.6618 158.996 93.4368C160.274 91.7861 161.747 90.4025 162.555 88.3817C163.431 86.197 163.609 83.7878 163.809 81.4575C163.809 81.409 163.884 81.415 163.884 81.4575C163.781 84.5949 163.563 87.8355 161.764 90.4875C160.824 91.865 159.598 93.0059 158.675 94.3956C157.014 96.9019 157.403 99.2504 158.675 101.799C159.248 102.97 159.821 104.148 159.483 105.501C159.145 106.854 158.154 107.831 157.535 109.021C154.911 114.082 160.927 118.852 165.282 118.925C165.477 118.925 165.506 119.246 165.282 119.246C162.039 119.295 158.205 116.819 156.979 113.627C156.707 112.932 156.576 112.185 156.593 111.433C156.611 110.682 156.778 109.943 157.082 109.263Z" fill="#263238"/>
<path d="M157.605 111.636C157.319 109.622 158.31 108.305 158.963 106.575C159.989 103.85 158.127 101.678 157.531 99.0987C157.356 98.25 157.342 97.3728 157.491 96.5185C157.639 95.6641 157.947 94.8496 158.396 94.1226C159.542 92.0835 161.135 90.4814 161.966 88.23C162.832 85.813 163.012 83.1802 162.482 80.6565C162.482 80.608 162.539 80.608 162.55 80.6565C162.977 82.3494 163.065 84.1181 162.807 85.8489C162.55 87.5798 161.953 89.2343 161.055 90.706C159.909 92.5811 158.19 94.25 157.749 96.5682C157.279 98.9956 158.711 100.937 159.376 103.183C159.585 103.842 159.668 104.538 159.619 105.231C159.569 105.924 159.389 106.6 159.089 107.218C158.568 108.138 158.181 109.137 157.943 110.18C157.814 111.688 158.201 113.196 159.032 114.428C161.41 118.33 165.988 120.223 170.051 120.193C170.194 120.193 170.223 120.436 170.051 120.436C168.21 120.477 166.38 120.132 164.666 119.42C162.952 118.709 161.388 117.645 160.064 116.291C158.794 115.059 157.932 113.427 157.605 111.636Z" fill="#263238"/>
<path d="M131.879 252.82C133.408 253.379 177.266 253.706 178.945 252.602C179.581 252.189 180.807 233.607 180.446 231.793C179.232 225.633 173.427 206.967 173.427 206.967L144.089 206.657L151.917 231.496L152.014 236.957C152.014 236.957 135.145 244.761 133.426 246.187C131.707 247.614 130.349 252.268 131.879 252.82Z" fill="#DD6A57"/>
<path d="M131.741 252.887C133.282 253.446 177.381 253.779 179.071 252.669C179.856 252.153 180.315 242.225 180.584 231.738L151.899 231.435L151.991 236.897C151.991 236.897 135.053 244.786 133.322 246.2C131.592 247.614 130.205 252.329 131.741 252.887Z" fill="#E45E14"/>
<path d="M132.388 251.024C139.779 250.89 169.633 251.079 176.939 251.54C176.996 251.54 176.996 251.582 176.939 251.588C169.61 251.892 139.779 251.449 132.388 251.151C132.233 251.145 132.233 251.024 132.388 251.024Z" fill="#263238"/>
<path d="M150.959 235.167C153.876 234.615 157.428 235.112 159.634 237.327C159.72 237.412 159.606 237.54 159.514 237.509C156.741 236.535 153.876 235.88 150.97 235.555C150.922 235.557 150.875 235.538 150.839 235.503C150.804 235.468 150.783 235.419 150.781 235.367C150.78 235.316 150.798 235.266 150.831 235.228C150.864 235.191 150.91 235.169 150.959 235.167Z" fill="#263238"/>
<path d="M148.85 236.49C151.76 235.938 155.319 236.435 157.525 238.65C157.611 238.735 157.496 238.863 157.399 238.832C154.627 237.86 151.765 237.205 148.861 236.878C148.812 236.88 148.765 236.861 148.73 236.826C148.694 236.79 148.673 236.741 148.672 236.69C148.67 236.638 148.688 236.588 148.722 236.551C148.755 236.513 148.801 236.491 148.85 236.49Z" fill="#263238"/>
<path d="M146.739 237.813C149.65 237.26 153.208 237.764 155.414 239.973C155.5 240.058 155.386 240.185 155.288 240.155C152.516 239.185 149.654 238.532 146.75 238.207C146.706 238.2 146.666 238.178 146.636 238.142C146.606 238.107 146.589 238.062 146.588 238.015C146.587 237.968 146.601 237.922 146.629 237.885C146.656 237.848 146.695 237.822 146.739 237.813Z" fill="#263238"/>
<path d="M144.631 239.142C147.542 238.583 151.1 239.087 153.306 241.296C153.392 241.387 153.277 241.515 153.18 241.478C150.408 240.508 147.546 239.855 144.642 239.53C144.594 239.532 144.546 239.513 144.511 239.478C144.476 239.442 144.455 239.394 144.453 239.342C144.452 239.291 144.47 239.241 144.503 239.203C144.536 239.165 144.582 239.143 144.631 239.142Z" fill="#263238"/>
<path d="M146.908 232.399C148.954 234.111 151.629 234.827 154.025 235.78C154.271 235.883 154.472 235.634 154.483 235.397C154.495 235.397 154.507 235.394 154.518 235.388C154.529 235.382 154.538 235.373 154.545 235.362C154.552 235.351 154.556 235.339 154.557 235.326C154.558 235.313 154.556 235.3 154.552 235.288C153.69 232.554 152.162 230.109 150.122 228.2C148.913 227.108 146.788 226.343 145.636 228C144.484 229.656 145.716 231.398 146.908 232.399ZM146.186 229.911C145.693 226.531 149.108 228.328 149.968 229.171C150.518 229.724 151.029 230.318 151.498 230.949C152.456 232.259 153.349 233.62 154.174 235.027C153.028 234.481 151.841 234.044 150.673 233.54C149.28 232.94 146.455 231.78 146.186 229.911Z" fill="#263238"/>
<path d="M164.299 230.67C163.605 228.74 161.365 228.849 159.927 229.578C157.479 230.836 155.387 232.753 153.859 235.136C153.852 235.147 153.847 235.159 153.845 235.171C153.843 235.184 153.844 235.197 153.847 235.209C153.85 235.221 153.856 235.232 153.864 235.242C153.872 235.251 153.882 235.259 153.893 235.264C153.877 235.322 153.874 235.382 153.884 235.442C153.894 235.501 153.917 235.557 153.951 235.605C153.984 235.653 154.028 235.692 154.079 235.72C154.13 235.747 154.186 235.761 154.242 235.761C156.792 235.519 159.548 235.592 161.955 234.548C163.359 233.923 164.94 232.491 164.299 230.67ZM158.064 234.566C156.815 234.718 155.56 234.803 154.317 235.003C155.469 233.883 156.674 232.826 157.927 231.835C158.541 231.366 159.185 230.94 159.852 230.561C160.895 229.996 164.642 229.232 163.29 232.381C162.545 234.074 159.531 234.384 158.064 234.566Z" fill="#263238"/>
<path d="M200.403 160.737C195.023 166.399 187.528 169.973 181.15 173.481C175.672 176.466 171.025 179.379 169.266 183.481C167.725 187.123 180.514 227.059 180.514 227.059L149.469 230.033C149.469 230.033 135.963 190.952 139.344 174.13C139.917 171.369 142.501 167.794 146.22 163.892C159.508 149.995 187.058 131.936 187.058 131.936H203.979C203.979 131.936 210.998 149.571 200.403 160.737Z" fill="#455A64"/>
<path d="M202.071 135.838C202.002 135.024 201.922 134.211 201.848 133.41C201.848 133.331 201.722 133.331 201.733 133.41C202.432 139.94 203.011 147.101 200.106 153.163C197.309 158.989 191.705 162.497 186.715 165.956L177.661 172.328L173.123 175.495C171.879 176.325 170.676 177.223 169.519 178.184C168.463 179.049 167.571 180.118 166.889 181.333C166.19 182.71 165.891 184.274 166.029 185.83C166.768 196.329 176.584 224.134 176.813 225.033C176.83 225.073 176.86 225.105 176.898 225.124C176.936 225.142 176.979 225.145 177.019 225.133C177.059 225.12 177.093 225.092 177.115 225.055C177.138 225.018 177.146 224.973 177.14 224.929C175.008 217.926 169.261 202.342 166.688 188.288C166.361 186.467 166.115 184.58 166.648 182.79C167.118 181.365 167.932 180.095 169.009 179.106C170.058 178.119 171.183 177.226 172.372 176.436L176.956 173.208L185.947 166.914C190.857 163.474 196.393 160.136 199.584 154.699C202.936 149.043 202.615 142.21 202.071 135.838Z" fill="#263238"/>
<path d="M200.402 160.737C195.021 166.399 187.526 169.973 181.149 173.481C169.878 170.349 155.644 166.435 146.195 163.917C159.483 150.02 187.033 131.96 187.033 131.96H203.954C203.954 131.96 210.996 149.571 200.402 160.737Z" fill="#263238"/>
<path d="M74.4048 229.293C75.7112 230.3 117.489 244.434 119.403 243.906C120.131 243.711 122.428 237.388 125.001 229.663C125.574 227.994 126.147 226.27 126.686 224.511C130.359 213.114 134.003 200.928 134.003 200.928L106.08 191.389L99.5253 215.232L98.0871 220.469C98.0871 220.469 79.8025 222.635 77.7626 223.455C75.7227 224.274 73.0983 228.279 74.4048 229.293Z" fill="#DD6A57"/>
<path d="M74.2577 229.311C75.5699 230.33 117.583 244.537 119.525 244.009C120.413 243.766 123.639 234.427 126.848 224.505L99.5387 215.177L98.089 220.439C98.089 220.439 79.707 222.617 77.6557 223.436C75.6043 224.256 72.9456 228.297 74.2577 229.311Z" fill="#E45E14"/>
<path d="M75.3949 227.733C82.4887 229.936 110.921 239.512 117.797 242.261C117.855 242.261 117.843 242.322 117.797 242.304C110.715 240.289 82.3569 230.464 75.3949 227.861C75.2058 227.8 75.2402 227.691 75.3949 227.733Z" fill="#263238"/>
<path d="M97.5756 218.448C100.515 218.837 103.77 220.433 105.254 223.242C105.311 223.352 105.168 223.437 105.082 223.376C102.708 221.575 100.159 220.047 97.4782 218.818C97.438 218.8 97.4055 218.766 97.3867 218.724C97.3679 218.682 97.3641 218.634 97.3759 218.589C97.3877 218.544 97.4144 218.505 97.451 218.479C97.4877 218.453 97.5319 218.442 97.5756 218.448Z" fill="#263238"/>
<path d="M95.1938 219.049C98.1276 219.437 101.382 221.033 102.872 223.843C102.929 223.946 102.78 224.031 102.7 223.976C100.325 222.174 97.7735 220.646 95.0907 219.419C95.0491 219.401 95.0155 219.366 94.9962 219.323C94.9769 219.28 94.9733 219.231 94.986 219.185C94.9988 219.139 95.027 219.1 95.0654 219.075C95.1037 219.05 95.1494 219.041 95.1938 219.049Z" fill="#263238"/>
<path d="M92.8104 219.644C95.7441 220.038 98.9988 221.634 100.483 224.438C100.546 224.547 100.397 224.632 100.317 224.571C97.9395 222.773 95.3887 221.247 92.7072 220.02C92.669 219.998 92.639 219.963 92.6222 219.921C92.6054 219.879 92.6028 219.832 92.6149 219.787C92.627 219.743 92.653 219.705 92.6886 219.679C92.7242 219.653 92.7671 219.64 92.8104 219.644Z" fill="#263238"/>
<path d="M90.4504 220.244C93.39 220.633 96.6446 222.235 98.1287 225.038C98.186 225.148 98.0428 225.233 97.9568 225.172C95.583 223.371 93.0339 221.846 90.353 220.621C90.3155 220.599 90.2859 220.565 90.2691 220.523C90.2523 220.481 90.2493 220.435 90.2606 220.391C90.2719 220.348 90.2968 220.31 90.3313 220.283C90.3658 220.256 90.4078 220.243 90.4504 220.244Z" fill="#263238"/>
<path d="M94.4878 214.504C95.9605 216.779 98.3155 218.302 100.332 219.965C100.38 219.999 100.434 220.021 100.491 220.028C100.547 220.035 100.605 220.028 100.658 220.006C100.712 219.985 100.76 219.95 100.798 219.905C100.836 219.86 100.863 219.805 100.877 219.747C100.889 219.75 100.901 219.749 100.913 219.746C100.925 219.743 100.936 219.738 100.945 219.729C100.954 219.721 100.962 219.711 100.967 219.699C100.972 219.687 100.975 219.675 100.974 219.662C100.915 216.78 100.143 213.966 98.7338 211.5C97.8858 210.08 96.0751 208.678 94.505 209.898C92.935 211.117 93.6283 213.199 94.4878 214.504ZM94.4878 211.9C94.9692 208.514 97.7253 211.293 98.3098 212.386C98.679 213.087 99.0007 213.815 99.2724 214.564C99.8171 216.118 100.288 217.7 100.682 219.304C99.7366 218.418 98.7281 217.623 97.754 216.779C96.6022 215.79 94.23 213.794 94.4936 211.924L94.4878 211.9Z" fill="#263238"/>
<path d="M111.577 218.351C111.456 216.294 109.285 215.717 107.709 215.924C105.015 216.366 102.477 217.55 100.352 219.358C100.342 219.366 100.334 219.376 100.329 219.388C100.324 219.4 100.321 219.412 100.321 219.425C100.321 219.438 100.324 219.451 100.329 219.462C100.334 219.474 100.342 219.484 100.352 219.492C100.314 219.542 100.289 219.6 100.279 219.663C100.269 219.725 100.273 219.789 100.292 219.849C100.31 219.91 100.343 219.964 100.386 220.007C100.43 220.051 100.483 220.082 100.541 220.099C103.045 220.669 105.658 221.61 108.253 221.355C109.766 221.179 111.686 220.299 111.577 218.351ZM104.506 220.105C103.268 219.85 102.048 219.54 100.804 219.34C102.218 218.631 103.666 218.001 105.142 217.453C105.859 217.197 106.593 216.994 107.337 216.846C108.483 216.634 112.282 217.089 110.133 219.65C108.947 221.051 105.979 220.402 104.506 220.105Z" fill="#263238"/>
<path d="M98.3145 212.41L129.257 222.053L138.849 184.653C139.685 172.291 141.788 166.296 148.653 164.02C160.342 160.185 188.901 174.336 201.834 164.845C212.337 157.126 203.959 131.905 203.959 131.905H173.59C173.59 131.905 169.923 136.633 169.247 139.412C169.247 139.412 131.64 136.341 123.223 147.641C111.975 162.812 98.3145 212.41 98.3145 212.41Z" fill="#455A64"/>
<path d="M153.926 163.48C152.116 163.314 150.292 163.463 148.528 163.923C146.852 164.401 145.29 165.249 143.944 166.411C142.64 167.535 141.584 168.947 140.85 170.549C139.99 172.425 139.704 174.549 139.4 176.618C139.234 177.832 139.125 179.045 139.062 180.259C138.999 181.473 138.953 183.16 138.953 184.197C138.953 184.288 139.068 184.295 139.068 184.197C139.085 183.106 139.171 182.018 139.326 180.939C139.452 179.913 139.624 178.894 139.79 177.874C140.065 175.843 140.512 173.843 141.125 171.897C141.716 170.23 142.627 168.711 143.799 167.434C144.972 166.158 146.381 165.153 147.938 164.481C148.88 164.077 149.865 163.796 150.872 163.643C151.89 163.527 152.914 163.493 153.937 163.54C153.937 163.54 153.949 163.48 153.926 163.48Z" fill="#263238"/>
<path d="M197.457 144.109C196.402 143.856 195.381 143.469 194.414 142.956C193.449 142.488 192.573 141.836 191.83 141.032C191.269 140.255 190.893 139.345 190.736 138.38C190.615 137.858 190.546 137.324 190.466 136.796C190.386 136.269 190.243 135.637 190.203 135.055C190.203 134.982 190.082 134.988 190.088 135.055C190.346 137.252 189.761 139.703 191.309 141.572C192.098 142.424 193.057 143.077 194.116 143.484C195.165 143.97 196.286 144.258 197.428 144.334C197.454 144.332 197.478 144.321 197.496 144.303C197.515 144.285 197.527 144.26 197.53 144.234C197.534 144.207 197.528 144.18 197.515 144.157C197.501 144.135 197.481 144.118 197.457 144.109Z" fill="#263238"/>
<path d="M203.143 139.042C202.868 137.856 202.547 136.687 202.181 135.534C202.181 135.461 202.043 135.492 202.072 135.57C203.557 140.381 204.209 145.437 203.997 150.493C203.97 152.884 203.664 155.263 203.086 157.575C202.531 159.784 201.179 161.673 199.321 162.836C197.404 163.896 195.324 164.584 193.179 164.869C190.774 165.267 188.341 165.448 185.907 165.409C180.951 165.361 176.029 164.651 171.118 164.038C166.356 163.431 161.595 162.745 156.822 162.29C152.914 161.92 148.748 161.877 145.132 163.71C141.694 165.464 139.448 168.808 137.981 172.443C136.331 176.551 135.397 180.981 134.28 185.272C132.95 190.387 126.086 218.284 125.982 219.48C125.982 219.595 126.137 219.589 126.149 219.48C126.389 216.858 132.331 193.786 133.666 188.634L135.678 180.914C136.211 178.857 136.738 176.794 137.397 174.779C138.669 170.938 140.537 167.084 143.843 164.79C147.367 162.363 151.756 162.163 155.83 162.478C158.122 162.648 160.414 162.976 162.706 163.261L170.23 164.208C175.032 164.815 179.839 165.525 184.675 165.682C187.094 165.78 189.515 165.676 191.918 165.373C194.092 165.148 196.226 164.609 198.261 163.771C200.063 163.032 201.576 161.673 202.559 159.911C203.567 158 203.911 155.785 204.135 153.642C204.61 148.752 204.274 143.81 203.143 139.042Z" fill="#263238"/>
<path d="M180.858 102.006C176.847 115.963 173.489 126.796 169.604 129.314C166.47 131.359 146.988 135.17 143.2 135.382C141.705 135.467 140.461 135.516 139.579 135.552C137.401 135.631 134.244 120.296 135.837 118.488C136.204 118.075 137.648 117.79 139.671 117.584C146.472 116.886 159.817 117.08 160.637 116.303C161.456 115.526 165.943 109.591 171.994 101.842C176.165 96.4894 179.506 94.9783 180.812 96.544C181.557 97.4482 181.632 99.3113 180.858 102.006Z" fill="#DD6A57"/>
<path d="M143.193 135.407C140.892 136.408 138.532 137.249 136.128 137.925C134.214 138.368 128.679 139.497 127.991 137.318C127.533 135.831 130.719 134.757 132.959 133.95C134.134 133.525 135.629 132.348 135.337 131.523C134.833 130.115 131.796 131.286 129.773 132.348C125.877 134.399 120.605 138.21 118.439 136.032C117.62 135.206 118.714 133.889 120.273 132.627C117.78 134.047 115.15 135.176 114.205 134.296C113.666 133.798 113.677 133.167 114.038 132.475C113.726 132.598 113.388 132.621 113.063 132.544C112.739 132.466 112.443 132.291 112.21 132.038C111.488 131.122 111.947 129.878 112.875 128.634C112.73 128.607 112.593 128.544 112.476 128.45C112.358 128.356 112.264 128.234 112.199 128.094C110.721 125.321 119.43 118.263 122.33 117.747C130.845 116.218 139.715 117.608 139.715 117.608C142.832 120.63 143.204 135.4 143.193 135.407Z" fill="#DD6A57"/>
<path d="M131.378 126.274C129.36 126.445 127.402 127.09 125.648 128.161C123.602 129.447 121.929 131.286 120.021 132.767C119.97 132.809 120.021 132.894 120.079 132.852C120.984 132.081 121.964 131.401 122.892 130.667C123.82 129.933 124.697 129.192 125.654 128.549C127.377 127.349 129.337 126.583 131.384 126.31C131.384 126.31 131.401 126.267 131.378 126.274Z" fill="#263238"/>
<path d="M130.05 122.396C127.776 122.8 125.547 123.448 123.397 124.332C121.105 125.382 119.209 127.233 117.369 129.005C116.269 130.073 115.188 131.165 114.126 132.282C114.08 132.33 114.126 132.409 114.189 132.367C116.057 130.53 117.967 128.754 119.919 127.038C121.744 125.427 123.854 124.216 126.125 123.476C127.42 123.057 128.738 122.742 130.056 122.426L130.05 122.396Z" fill="#263238"/>
<path d="M127.9 118.937C125.734 119.252 123.838 119.543 121.867 120.605C119.259 122.038 116.669 124.58 115.758 125.46C114.756 126.455 113.781 127.487 112.825 128.531C112.784 128.573 112.825 128.646 112.893 128.604C115.082 126.335 117.406 124.217 119.85 122.262C121.003 121.308 122.288 120.546 123.66 120.005C125.045 119.538 126.466 119.197 127.906 118.985C127.906 118.985 127.912 118.937 127.9 118.937Z" fill="#263238"/>
<path d="M182.073 99.6755C181.569 103.638 178.721 111.248 178.721 111.248L164.705 109.555C164.705 109.555 172.234 99.3478 177.913 95.5975C180.193 94.0985 182.589 95.6703 182.073 99.6755Z" fill="#E45E14"/>
<path d="M178.842 109.227C176.773 108.833 174.71 108.469 172.625 108.202C171.582 108.068 170.545 107.953 169.502 107.85C168.459 107.747 167.405 107.765 166.367 107.649C166.31 107.649 166.304 107.74 166.367 107.747C167.405 107.801 168.453 108.014 169.49 108.129C170.527 108.244 171.57 108.372 172.613 108.499C174.687 108.76 176.767 109.015 178.842 109.324C178.893 109.33 178.893 109.239 178.842 109.227Z" fill="#263238"/>
<path d="M176.903 100.483C177.493 99.9225 178.203 99.5226 178.971 99.3174C178.68 99.6005 178.354 99.8413 178.003 100.033C177.656 100.233 177.286 100.384 176.903 100.483ZM175.092 107.504C174.72 107.38 174.335 107.307 173.946 107.285C174.281 107.507 174.644 107.678 175.023 107.795C175.394 107.922 175.78 107.995 176.169 108.014C175.834 107.792 175.471 107.621 175.092 107.504ZM172.193 101.193C172.073 101.585 172.003 101.994 171.986 102.406C172.194 102.051 172.354 101.667 172.462 101.265C172.582 100.872 172.651 100.464 172.668 100.052C172.465 100.409 172.305 100.792 172.193 101.193Z" fill="white"/>
<path d="M182.074 99.6756C182.074 99.894 182.017 100.131 181.971 100.361C181.925 100.592 181.902 100.732 181.856 100.932C181.069 104.453 180.021 107.902 178.722 111.248L178.149 111.181L177.604 111.115L173.198 110.581L172.545 110.508L168.15 109.98L167.577 109.907L165.961 109.713L177.891 95.5975C180.412 94.5538 182.578 95.6704 182.074 99.6756Z" fill="#263238"/>
<path d="M168.548 139.728C168.548 139.728 181.865 141.906 206.452 137.543C206.452 137.543 194.305 105.635 185.824 97.4907C181.974 93.7768 178.553 94.681 175.808 97.4907C175.126 98.1947 166.955 111.181 166.503 115.508C166.107 119.331 169.31 123.264 169.31 123.264L168.548 139.728Z" fill="#E45E14"/>
<path d="M192.97 124.605C192.703 124.296 192.476 123.951 192.294 123.579C192.102 123.214 191.959 122.821 191.87 122.414C192.138 122.722 192.365 123.067 192.546 123.439C192.734 123.807 192.877 124.198 192.97 124.605ZM180.834 110.313C180.653 109.94 180.423 109.594 180.152 109.288C180.246 109.694 180.388 110.085 180.576 110.453C180.758 110.825 180.985 111.17 181.252 111.478C181.165 111.071 181.024 110.679 180.834 110.313ZM201.921 135.419C201.738 135.049 201.51 134.707 201.245 134.399C201.338 134.805 201.48 135.197 201.669 135.564C201.85 135.936 202.077 136.281 202.345 136.59C202.253 136.181 202.11 135.788 201.921 135.419ZM177.545 128.057C177.364 127.685 177.136 127.341 176.869 127.032C176.962 127.438 177.105 127.83 177.293 128.197C177.474 128.569 177.702 128.914 177.969 129.223C177.877 128.816 177.734 128.424 177.545 128.057ZM182.966 96.7258C182.788 96.3511 182.561 96.0057 182.29 95.7002C182.483 96.514 182.861 97.2658 183.39 97.8909C183.301 97.4824 183.156 97.0899 182.96 96.7258H182.966ZM184.421 123.1C184.772 122.906 185.097 122.665 185.39 122.383C185.004 122.481 184.632 122.632 184.284 122.833C183.933 123.026 183.608 123.267 183.315 123.549C183.701 123.451 184.073 123.3 184.421 123.1ZM171.483 117.565C171.831 117.371 172.155 117.13 172.445 116.849C172.06 116.942 171.69 117.093 171.345 117.298C170.994 117.49 170.668 117.731 170.377 118.014C170.768 117.918 171.146 117.767 171.5 117.565H171.483ZM177.986 100.033C178.338 99.841 178.663 99.6002 178.955 99.317C178.186 99.5223 177.476 99.9221 176.886 100.482C177.275 100.385 177.651 100.234 178.003 100.033H177.986ZM180.169 136.924C180.526 136.737 180.858 136.5 181.155 136.22C180.387 136.425 179.677 136.825 179.086 137.385C179.47 137.282 179.84 137.127 180.187 136.924H180.169ZM191.561 107.255C191.909 107.061 192.233 106.82 192.523 106.539C191.755 106.744 191.045 107.144 190.455 107.704C190.846 107.608 191.224 107.457 191.578 107.255H191.561ZM195.635 132.075C195.986 131.883 196.312 131.642 196.603 131.359C196.218 131.451 195.847 131.602 195.503 131.808C195.152 132 194.826 132.241 194.535 132.524C194.924 132.427 195.3 132.276 195.652 132.075H195.635ZM187.097 129.441C186.726 129.315 186.341 129.241 185.951 129.223C186.286 129.444 186.649 129.616 187.028 129.732C187.4 129.856 187.785 129.929 188.174 129.951C187.844 129.731 187.488 129.559 187.114 129.441H187.097ZM170.984 125.132C170.613 125.006 170.228 124.933 169.838 124.914C170.173 125.135 170.536 125.307 170.915 125.424C171.287 125.547 171.672 125.621 172.061 125.642C171.731 125.422 171.375 125.251 171.001 125.132H170.984ZM187.567 114.118C187.196 113.991 186.81 113.918 186.421 113.9C186.759 114.12 187.123 114.292 187.504 114.409C187.876 114.534 188.261 114.607 188.65 114.628C188.317 114.409 187.959 114.238 187.584 114.118H187.567ZM175.075 107.503C174.704 107.38 174.319 107.306 173.929 107.285C174.265 107.506 174.627 107.678 175.007 107.795C175.378 107.921 175.763 107.995 176.153 108.013C175.823 107.793 175.466 107.622 175.093 107.503H175.075ZM199.995 125.533C199.624 125.406 199.239 125.333 198.849 125.315C199.186 125.534 199.548 125.705 199.927 125.824C200.299 125.947 200.684 126.021 201.073 126.043C200.743 125.823 200.386 125.651 200.013 125.533H199.995ZM195.446 115.732C195.326 116.125 195.257 116.534 195.239 116.946C195.449 116.591 195.611 116.207 195.721 115.805C195.838 115.412 195.907 115.004 195.927 114.591C195.725 114.948 195.569 115.332 195.463 115.732H195.446ZM178.009 118.937C177.89 119.33 177.82 119.738 177.803 120.15C178.012 119.795 178.174 119.411 178.284 119.009C178.402 118.616 178.469 118.208 178.485 117.796C178.286 118.153 178.132 118.537 178.026 118.937H178.009ZM172.629 135.613C172.509 136.006 172.439 136.414 172.422 136.826C172.631 136.469 172.792 136.083 172.904 135.68C173.021 135.286 173.09 134.878 173.11 134.466C172.9 134.823 172.739 135.209 172.629 135.613ZM189.767 136.826C189.648 137.22 189.578 137.628 189.561 138.04C189.768 137.685 189.928 137.301 190.037 136.899C190.156 136.506 190.226 136.098 190.243 135.686C190.04 136.043 189.88 136.427 189.767 136.826ZM185.47 103.201C185.35 103.594 185.28 104.002 185.263 104.415C185.47 104.058 185.632 103.675 185.745 103.274C185.861 102.88 185.93 102.472 185.951 102.06C185.742 102.413 185.581 102.795 185.47 103.195V103.201ZM169.105 110.975C168.985 111.368 168.915 111.776 168.898 112.188C169.107 111.831 169.268 111.445 169.38 111.041C169.5 110.648 169.569 110.24 169.586 109.828C169.378 110.186 169.216 110.571 169.105 110.975Z" fill="white"/>
<path d="M181.466 96.2164C181.466 96.9446 179.535 102.285 176.544 102.952C175.57 103.177 174.177 97.6061 174.177 97.6061L173.988 97.2177L171.307 91.8046L176.595 85.6451L177.375 84.8076C177.375 84.8076 178.017 86.3369 178.796 88.2545L178.905 88.5276C178.951 88.6369 178.996 88.7339 179.036 88.8371C179.157 89.1223 179.277 89.444 179.392 89.7049C179.506 89.9659 179.569 90.1479 179.655 90.3846C179.741 90.6213 179.827 90.8519 179.919 91.0825C180.545 92.7544 181.061 94.4697 181.466 96.2164Z" fill="#DD6A57"/>
<path d="M178.796 88.2785C178.657 90.0526 178.155 91.7734 177.325 93.3212C176.495 94.8691 175.356 96.2069 173.988 97.2416L171.307 91.8285L176.595 85.669L177.375 84.8315C177.375 84.8315 178.017 86.3365 178.796 88.2785Z" fill="#263238"/>
<path d="M161.398 84.601C162.544 95.2573 168.693 95.7428 170.864 95.4818C172.836 95.2391 179.511 94.1649 179.419 83.4419C179.328 72.7188 174.291 69.903 169.759 70.1943C165.226 70.4856 160.264 73.9386 161.398 84.601Z" fill="#DD6A57"/>
<path d="M162.647 82.5926C162.876 82.5258 163.082 82.4287 163.306 82.3438C163.549 82.2876 163.768 82.1491 163.93 81.9493C163.971 81.8768 163.988 81.7919 163.977 81.7082C163.967 81.6246 163.93 81.5471 163.873 81.4881C163.745 81.3891 163.593 81.3284 163.435 81.3124C163.277 81.2964 163.117 81.3256 162.974 81.3971C162.659 81.4918 162.389 81.7084 162.217 82.0039C162.184 82.0735 162.171 82.1514 162.178 82.2288C162.185 82.3062 162.212 82.38 162.257 82.4415C162.302 82.503 162.363 82.5498 162.431 82.5766C162.5 82.6033 162.575 82.6089 162.647 82.5926Z" fill="#263238"/>
<path d="M169.523 81.6033C169.289 81.6004 169.056 81.5822 168.824 81.5487C168.575 81.565 168.327 81.4947 168.119 81.3484C168.063 81.2889 168.027 81.2115 168.017 81.1281C168.006 81.0447 168.022 80.96 168.062 80.8872C168.162 80.7561 168.294 80.6555 168.443 80.5958C168.592 80.5361 168.753 80.5194 168.91 80.5473C169.236 80.5483 169.549 80.6807 169.787 80.9175C169.837 80.9742 169.872 81.0452 169.885 81.122C169.899 81.1987 169.891 81.278 169.863 81.3503C169.836 81.4226 169.789 81.4849 169.728 81.5298C169.668 81.5747 169.597 81.6002 169.523 81.6033Z" fill="#263238"/>
<path d="M168.245 84.4189C168.245 84.4189 168.302 84.4189 168.308 84.4736C168.359 85.2018 168.537 86.0271 169.185 86.197V86.2395C168.411 86.2152 168.188 85.1168 168.245 84.4189Z" fill="#263238"/>
<path d="M168.778 83.5877C169.872 83.3692 170.204 85.6995 169.19 85.8998C168.176 86.1 167.861 83.7697 168.778 83.5877Z" fill="#263238"/>
<path d="M169.225 83.6425C169.437 83.7396 169.661 83.9459 169.896 83.9338C170.131 83.9217 170.337 83.6425 170.469 83.3755C170.469 83.3755 170.503 83.3755 170.509 83.3755C170.573 83.5834 170.56 83.8095 170.473 84.0079C170.386 84.2062 170.231 84.362 170.039 84.4435C169.632 84.571 169.283 84.219 169.111 83.7882C169.094 83.7335 169.145 83.6 169.225 83.6425Z" fill="#263238"/>
<path d="M164.433 84.874C164.433 84.874 164.381 84.9165 164.387 84.9468C164.519 85.6629 164.553 86.5064 163.975 86.8524C163.975 86.8524 163.975 86.8948 163.975 86.8888C164.72 86.6521 164.662 85.5294 164.433 84.874Z" fill="#263238"/>
<path d="M163.713 84.2187C162.601 84.3158 162.871 86.6461 163.896 86.5673C164.922 86.4884 164.641 84.1398 163.713 84.2187Z" fill="#263238"/>
<path d="M163.272 84.4313C163.112 84.583 162.963 84.8258 162.756 84.8683C162.55 84.9107 162.31 84.6862 162.126 84.4617H162.092C162.132 84.9107 162.327 85.3598 162.739 85.3962C163.152 85.4326 163.347 85.0078 163.398 84.5466C163.41 84.492 163.335 84.3767 163.272 84.4313Z" fill="#263238"/>
<path d="M165.969 88.1392C165.969 88.1392 165.969 89.2376 166.038 89.7473C166.038 89.7959 166.164 89.802 166.33 89.7898C166.752 89.8125 167.172 89.7112 167.543 89.497C167.914 89.2828 168.222 88.9641 168.433 88.5761C168.462 88.5215 168.393 88.479 168.353 88.5215C167.796 89.0533 167.093 89.3829 166.347 89.4621C166.296 89.3225 166.405 87.5748 166.347 87.5809C165.977 87.6686 165.62 87.8116 165.287 88.0057C165.218 85.7118 165.505 83.4239 165.408 81.1422C165.408 81.0572 165.287 81.0512 165.276 81.1422C164.901 83.5827 164.759 86.0569 164.852 88.5276C164.852 88.7824 165.791 88.2788 165.969 88.1392Z" fill="#263238"/>
<path d="M166.365 89.5346C166.687 89.9173 167.095 90.2075 167.551 90.3781C167.801 90.4631 168.07 90.4631 168.319 90.3781C168.892 90.19 168.846 89.6499 168.715 89.1947C168.642 88.9533 168.544 88.7212 168.422 88.5029C167.858 89.0702 167.137 89.4317 166.365 89.5346Z" fill="#263238"/>
<path d="M167.553 90.3782C167.802 90.4632 168.071 90.4632 168.321 90.3782C168.894 90.1901 168.848 89.65 168.716 89.1948C168.425 89.2247 168.151 89.3578 167.94 89.5725C167.729 89.7873 167.593 90.0711 167.553 90.3782Z" fill="#FF9CBD"/>
<path d="M178.76 84.3525C177.66 84.3525 174.571 81.4032 174.079 75.7959C174.079 75.7959 174.847 80.8025 175.259 81.5125C175.672 82.2225 173.54 79.8376 173.07 75.3226C171.799 76.4538 170.38 77.3858 168.859 78.0898C166.882 78.8484 165.644 78.9334 165.489 78.7877C165.335 78.6421 168.234 77.4102 168.967 76.3603C168.967 76.3603 163.81 79.437 161.324 79.8376C161.043 79.8861 160.246 73.678 163.885 70.7348C167.524 67.7916 173.792 70.1279 175.546 71.6815C175.546 71.6815 177.477 71.815 179.774 74.649C182.072 77.483 179.952 84.3343 178.76 84.3525Z" fill="#263238"/>
<path d="M169.839 87.781C168.996 87.7762 168.189 87.4178 167.595 86.7842C167.001 86.1507 166.668 85.2936 166.67 84.4009C166.672 83.7704 166.841 83.1531 167.157 82.6192C167.474 82.0853 167.926 81.6563 168.461 81.381C168.997 81.1057 169.595 80.9951 170.187 81.0619C170.779 81.1287 171.341 81.3701 171.81 81.7587C172.279 82.1472 172.635 82.6674 172.839 83.2599C173.042 83.8525 173.085 84.4936 172.961 85.1104C172.837 85.7271 172.553 86.2947 172.14 86.7486C171.726 87.2025 171.201 87.5245 170.624 87.6779C170.367 87.7461 170.103 87.7807 169.839 87.781ZM167.094 84.4009C167.092 84.9784 167.251 85.5437 167.552 86.0252C167.854 86.5067 168.283 86.8827 168.786 87.1057C169.289 87.3286 169.843 87.3885 170.379 87.2778C170.914 87.167 171.406 86.8906 171.793 86.4834C172.18 86.0763 172.444 85.5568 172.552 84.9906C172.66 84.4245 172.607 83.8372 172.399 83.303C172.192 82.7688 171.839 82.3118 171.387 81.9898C170.934 81.6678 170.401 81.4953 169.856 81.4941C169.628 81.4929 169.4 81.5235 169.18 81.5851C168.586 81.7417 168.058 82.1037 167.68 82.6137C167.303 83.1237 167.096 83.7526 167.094 84.4009Z" fill="#E45E14"/>
<path d="M163.173 88.6732C161.884 88.8491 160.646 87.4959 160.423 85.6389C160.305 84.8078 160.437 83.9584 160.801 83.2115C160.939 82.8812 161.155 82.594 161.428 82.3778C161.701 82.1616 162.022 82.0237 162.36 81.9773C162.698 81.931 163.042 81.9777 163.358 82.1131C163.674 82.2485 163.952 82.468 164.165 82.7503C164.694 83.3758 165.027 84.1607 165.116 84.9956C165.328 86.7373 164.543 88.2969 163.397 88.6368L163.173 88.6732ZM161.173 83.4239C160.853 84.0856 160.737 84.8369 160.841 85.5722C161.036 87.1682 162.062 88.3455 163.133 88.1998C164.205 88.0542 164.898 86.6402 164.703 85.0442C164.625 84.3052 164.333 83.6099 163.867 83.0537C163.691 82.8341 163.468 82.6619 163.217 82.5511C162.966 82.4403 162.694 82.3942 162.423 82.4165L162.268 82.4469C162.031 82.5194 161.811 82.6438 161.623 82.8122C161.434 82.9805 161.281 83.1889 161.173 83.4239Z" fill="#E45E14"/>
<path d="M166.819 84.7709L167.048 84.3946C166.521 84.0305 165.329 83.6118 164.682 84.5888L165.025 84.8558C165.621 83.9759 166.773 84.7405 166.819 84.7709Z" fill="#E45E14"/>
<path d="M180.985 83.7032L181.334 83.4422C181.22 83.2723 180.188 81.7613 179.243 81.7248C178.298 81.6884 172.762 83.0356 172.527 83.0903L172.619 83.5333C174.223 83.1449 178.532 82.1496 179.232 82.1739C179.931 82.1982 180.698 83.2845 180.985 83.7032Z" fill="#E45E14"/>
<path d="M179.838 87.3685C179.699 87.4568 179.553 87.532 179.402 87.5931C179.251 87.6535 179.093 87.6903 178.932 87.7023C178.727 87.726 178.52 87.7011 178.325 87.6295C178.171 87.5744 178.025 87.499 177.889 87.4049C177.7 87.2666 177.535 87.0941 177.402 86.8952V83.9702C177.402 83.9702 178.944 80.2198 180.502 80.7417C182.061 81.2636 181.39 86.3672 179.838 87.3685Z" fill="#DD6A57"/>
<path d="M180.301 82.21C180.33 82.21 180.341 82.2403 180.301 82.2524C179.235 82.9989 178.84 84.2672 178.64 85.5355C178.683 85.3985 178.755 85.2732 178.849 85.1682C178.943 85.0633 179.057 84.9812 179.184 84.9275C179.311 84.8739 179.448 84.85 179.584 84.8575C179.72 84.8651 179.854 84.9038 179.975 84.9711C180.009 84.9711 179.975 85.044 179.975 85.044C179.76 85.017 179.542 85.0608 179.351 85.1693C179.161 85.2779 179.006 85.446 178.909 85.6508C178.753 85.998 178.634 86.3623 178.554 86.7371C178.519 86.8584 178.319 86.8402 178.336 86.7067C178.021 85.1228 178.748 82.6954 180.301 82.21Z" fill="#263238"/>
<path d="M179.637 86.9556C179.637 87.054 179.609 87.1503 179.558 87.2321C179.506 87.3139 179.433 87.3777 179.347 87.4154C179.261 87.453 179.167 87.4629 179.075 87.4437C178.984 87.4245 178.901 87.3771 178.835 87.3075C178.769 87.2379 178.724 87.1492 178.706 87.0527C178.688 86.9562 178.697 86.8561 178.733 86.7652C178.769 86.6743 178.829 86.5966 178.906 86.5419C178.983 86.4872 179.074 86.458 179.167 86.458C179.292 86.458 179.411 86.5104 179.499 86.6038C179.587 86.6971 179.637 86.8237 179.637 86.9556Z" fill="white"/>
<path d="M180.446 86.0151C180.446 86.0847 180.426 86.1527 180.39 86.2106C180.353 86.2685 180.302 86.3136 180.241 86.3402C180.18 86.3669 180.113 86.3738 180.049 86.3603C179.984 86.3467 179.925 86.3132 179.879 86.2639C179.832 86.2147 179.8 86.152 179.788 86.0837C179.775 86.0154 179.781 85.9447 179.807 85.8804C179.832 85.8161 179.874 85.7611 179.929 85.7224C179.984 85.6837 180.048 85.6631 180.114 85.6631C180.202 85.6631 180.286 85.7002 180.349 85.7662C180.411 85.8322 180.446 85.9217 180.446 86.0151Z" fill="white"/>
<path d="M187.642 99.2568C195.172 110.113 205.314 128.44 200.587 132.385C192.817 138.86 170.406 142.21 165.272 142.756C163.055 142.986 158.918 127.585 160.43 125.637C161.943 123.689 185.585 122.797 185.78 121.267C185.889 120.399 184.113 112.893 181.987 103.553C179.529 92.7817 185.482 96.1679 187.642 99.2568Z" fill="#DD6A57"/>
<path d="M164.325 124.459C164.325 124.459 157.547 124.259 153.112 124.35C150.636 124.398 146.402 124.89 144.597 125.806C141.904 127.178 131.458 134.739 133.137 137.464C134.655 139.928 142.878 132.221 142.878 132.221C142.878 132.221 133.927 139.254 136.288 141.833C138.649 144.412 146.797 134.436 146.797 134.436C146.797 134.436 137.784 141.845 140.603 144.145C142.734 145.875 150.613 137.252 150.613 137.252C150.613 137.252 142.912 143.678 145.027 145.553C147.37 147.629 155.111 140.152 155.111 140.152C161.254 143.963 165.655 143.12 168.715 142.125C169.442 141.87 164.325 124.459 164.325 124.459Z" fill="#DD6A57"/>
<path d="M145.789 129.593C144.712 130.376 143.617 131.159 142.609 132.02C141.6 132.882 140.626 133.841 139.698 134.794C138.47 136.048 137.378 137.444 136.443 138.957C138.283 136.396 141.841 133.186 142.85 132.281C143.858 131.377 144.815 130.461 145.818 129.587C145.846 129.611 145.812 129.575 145.789 129.593Z" fill="#263238"/>
<path d="M148.856 133.386C147.526 134.442 146.163 135.449 144.873 136.572C143.584 137.694 142.467 138.872 141.263 140.079C141.166 140.176 141.263 140.195 141.344 140.079C142.593 138.926 143.836 137.955 145.097 136.814C146.357 135.674 147.584 134.478 148.884 133.392L148.856 133.386Z" fill="#263238"/>
<path d="M152.04 136.135C149.961 137.711 148.04 139.511 146.31 141.505C146.224 141.603 146.31 141.615 146.425 141.505C148.299 139.685 149.754 138.241 152.098 136.196C152.126 136.183 152.086 136.104 152.04 136.135Z" fill="#263238"/>
<path d="M169.398 123.786C168.446 123.786 166.435 124.125 164.206 124.18C159.192 124.289 152.11 124.113 149.583 124.18C142.753 124.399 138.501 129.642 136.553 131.462C135.388 132.564 134.326 133.784 133.384 135.103C132.897 135.826 132.421 136.851 133.04 137.676C133.791 138.678 136.708 137.676 139.773 134.879C139.882 134.776 139.813 134.709 139.699 134.8C135.413 138.332 133.739 137.883 133.31 137.227C133.035 136.821 133.31 136.129 133.585 135.607C134.014 134.851 134.53 134.154 135.12 133.532C137.095 131.373 139.272 129.433 141.618 127.742C144.139 125.832 147.119 124.719 150.213 124.532C152.414 124.386 159.164 124.599 164.218 124.441C166.429 124.368 168.435 123.949 169.375 123.871C169.478 123.901 169.466 123.786 169.398 123.786Z" fill="#263238"/>
<path d="M197.263 113.038L182.875 112.65C182.875 112.65 181.328 105.167 181.019 100.901C180.612 95.2513 182.497 93.7645 187.178 98.6315C190.307 101.89 197.263 113.038 197.263 113.038Z" fill="#E45E14"/>
<path d="M183.383 97.8909C182.855 97.2658 182.477 96.514 182.283 95.7002C182.812 96.3253 183.19 97.0771 183.383 97.8909ZM191.577 107.255C191.926 107.061 192.249 106.82 192.54 106.539C191.772 106.744 191.062 107.144 190.471 107.704C190.857 107.606 191.229 107.455 191.577 107.255ZM185.469 103.195C185.349 103.588 185.28 103.996 185.263 104.409C185.47 104.052 185.632 103.669 185.744 103.268C185.86 102.874 185.93 102.466 185.95 102.054C185.741 102.409 185.579 102.793 185.469 103.195Z" fill="white"/>
<path d="M184.635 112.704C184.48 112.668 183.002 112.577 182.916 112.601C182.755 111.715 182.606 110.829 182.434 109.949C182.348 109.506 182.257 109.063 182.159 108.626C182.062 108.189 181.947 107.589 181.856 107.164C181.856 107.097 181.758 107.109 181.764 107.164C181.838 107.734 181.907 108.153 181.976 108.645C182.045 109.136 182.102 109.524 182.182 109.961C182.343 110.884 182.48 111.873 182.686 112.789C183.344 112.819 184.002 112.805 184.658 112.747L184.635 112.704Z" fill="#263238"/>
<path d="M195.835 111.551C193.743 111.345 191.658 111.163 189.56 111.084C188.512 111.048 187.469 111.023 186.42 111.017C185.372 111.011 184.323 111.121 183.28 111.096C183.268 111.096 183.256 111.101 183.248 111.11C183.239 111.12 183.234 111.132 183.234 111.145C183.234 111.158 183.239 111.17 183.248 111.179C183.256 111.188 183.268 111.193 183.28 111.193C184.323 111.157 185.383 111.272 186.426 111.296L189.566 111.381C191.658 111.454 193.749 111.521 195.84 111.648C195.881 111.648 195.881 111.557 195.835 111.551Z" fill="#263238"/>
<path d="M126.934 141.761H158.672V139.151L126.934 138.065V141.761Z" fill="#455A64"/>
<path d="M101.982 141.718H122.926C124.708 141.718 122.123 136.33 115.603 134.26C109.082 132.191 99.9251 139.698 101.982 141.718Z" fill="#37474F"/>
<path d="M110.201 141.718C109.86 140.582 109.403 139.49 108.837 138.459C108.556 137.958 108.23 137.486 107.863 137.052C107.482 136.614 107.07 136.208 106.631 135.838C107.198 136.017 107.724 136.321 108.172 136.73C108.629 137.135 109.016 137.619 109.318 138.162C109.624 138.702 109.857 139.284 110.012 139.892C110.17 140.485 110.233 141.103 110.201 141.718Z" fill="#263238"/>
<path d="M107.72 136.59C106.62 137.343 105.52 138.029 104.488 138.811C103.97 139.187 103.483 139.609 103.033 140.074C102.566 140.526 102.206 141.09 101.984 141.718C101.995 140.995 102.249 140.3 102.701 139.758C103.117 139.204 103.607 138.717 104.156 138.314C104.699 137.913 105.274 137.564 105.875 137.27C106.466 136.975 107.084 136.747 107.72 136.59Z" fill="#263238"/>
<path d="M86.9618 131.287H137.862L129.771 91.1494H78.8652L86.9618 131.287Z" fill="#455A64"/>
<path d="M85.0809 131.287H135.981L127.884 91.1494H76.9844L85.0809 131.287Z" fill="#37474F"/>
<path d="M112.533 116.898H113.725L111.914 107.893H110.717L112.533 116.898Z" fill="#263238"/>
<path d="M110.178 116.898H111.37L109.559 107.893H108.361L110.178 116.898Z" fill="#263238"/>
<path d="M107.824 116.898H109.016L107.205 107.893H106.008L107.824 116.898Z" fill="#263238"/>
<path d="M105.467 116.898H106.659L104.848 107.893H103.65L105.467 116.898Z" fill="#263238"/>
<path d="M103.106 116.898H104.303L102.487 107.893H101.295L103.106 116.898Z" fill="#263238"/>
<path d="M100.752 116.898H101.95L100.133 107.893H98.9414L100.752 116.898Z" fill="#263238"/>
<path d="M98.3966 116.898H99.5942L97.7778 107.893H96.5859L98.3966 116.898Z" fill="#263238"/>
<path d="M99.4746 141.767H124.509V139.709L99.4746 138.848V141.767Z" fill="#455A64"/>
<path d="M92.666 141.761H106.109L114.205 119.277H100.763L92.666 141.761Z" fill="#455A64"/>
<path d="M90.4551 141.761H103.898L111.989 119.277H98.5516L90.4551 141.761Z" fill="#263238"/>
<path d="M211.048 141.761H30.5859V145.238H211.048V141.761Z" fill="#37474F"/>
<path d="M206.752 145.238H34.8848V153.964H206.752V145.238Z" fill="#37474F"/>
<path d="M206.752 145.238H34.8848V149.601H206.752V145.238Z" fill="#263238"/>
<path d="M58.1836 222.174H42.7812V225.045H58.1836V222.174Z" fill="#37474F"/>
<path d="M66.5375 264.144H64.8758L51.3071 197.069L50.5335 193.246L48.0982 181.206L47.1929 176.715L43.7778 159.869L42.5859 153.964H48.5108L49.4792 159.869L50.1095 163.741L50.5335 166.32L52.9688 181.206L53.7538 186L66.5375 264.144Z" fill="#37474F"/>
<path d="M48.5108 153.964L49.4792 159.869H43.7778L42.5859 153.964H48.5108Z" fill="#263238"/>
<path d="M53.7523 186L51.3056 197.069L50.532 193.246L48.0968 181.206L47.1914 176.715L50.108 163.741L50.532 166.32L52.9673 181.206L53.7523 186Z" fill="#263238"/>
<path d="M58.4809 153.964L57.2891 159.869L52.9686 181.206L50.5333 193.246L36.191 264.144H34.5293L48.0981 181.206L50.5333 166.32L51.5876 159.869L52.5503 153.964H58.4809Z" fill="#37474F"/>
<path d="M58.4792 153.964L57.2873 159.869H51.5859L52.5486 153.964H58.4792Z" fill="#263238"/>
<path d="M198.752 222.174H183.35V225.045H198.752V222.174Z" fill="#37474F"/>
<path d="M207.106 264.144H205.438L191.875 197.069L191.102 193.246L188.661 181.206L187.755 176.715L184.346 159.869L183.148 153.964H189.079L190.042 159.869L190.678 163.741L191.102 166.32L193.531 181.206L194.316 186L207.106 264.144Z" fill="#37474F"/>
<path d="M189.079 153.964L190.042 159.869H184.346L183.148 153.964H189.079Z" fill="#263238"/>
<path d="M194.317 186L191.876 197.069L191.102 193.246L188.661 181.206L187.756 176.715L190.678 163.741L191.102 166.32L193.532 181.206L194.317 186Z" fill="#263238"/>
<path d="M199.045 153.964L197.854 159.869L193.533 181.206L191.104 193.246L176.756 264.144H175.1L188.663 181.206L191.104 166.32L192.152 159.869L193.121 153.964H199.045Z" fill="#37474F"/>
<path d="M199.044 153.964L197.852 159.869H192.15L193.119 153.964H199.044Z" fill="#263238"/>
<path d="M45.8572 138.314L44.7227 138.156L49.6562 98.3769L64.1991 88.5459L68.892 91.7986L68.2674 92.8121L64.1876 89.9902L50.722 99.093L45.8572 138.314Z" fill="#263238"/>
<path d="M49.2266 98.7349C49.2254 98.9382 49.2814 99.1373 49.3874 99.3069C49.4934 99.4765 49.6445 99.6089 49.8217 99.6873C49.9989 99.7656 50.1941 99.7865 50.3825 99.7471C50.5708 99.7077 50.7439 99.6099 50.8797 99.4661C51.0155 99.3223 51.1078 99.139 51.145 98.9395C51.1822 98.74 51.1625 98.5333 51.0885 98.3456C51.0145 98.158 50.8895 97.9979 50.7294 97.8857C50.5693 97.7734 50.3812 97.7142 50.1892 97.7153C49.9339 97.7153 49.6891 97.8228 49.5085 98.014C49.328 98.2051 49.2266 98.4645 49.2266 98.7349Z" fill="#E45E14"/>
<path d="M64.1462 90.2876C64.6779 90.2876 65.1089 89.8311 65.1089 89.268C65.1089 88.705 64.6779 88.2485 64.1462 88.2485C63.6146 88.2485 63.1836 88.705 63.1836 89.268C63.1836 89.8311 63.6146 90.2876 64.1462 90.2876Z" fill="#E45E14"/>
<path d="M76.9491 93.1945L70.5372 100.774L67.5805 96.9024L65.7812 94.5417L70.583 88.8677L72.9954 90.5122L76.9491 93.1945Z" fill="#E45E14"/>
<path opacity="0.1" d="M76.9487 93.1945L70.5368 100.774L67.5801 96.9024L72.995 90.5122L76.9487 93.1945Z" fill="black"/>
<path d="M86.2366 96.9325L75.063 110.138L67.6426 100.112L76.0142 90.2207L86.2366 96.9325Z" fill="#E45E14"/>
<path d="M54.0624 141.767H37.5312L38.5455 136.269H53.0482L54.0624 141.767Z" fill="#E45E14"/>
<path d="M221.167 192.815C220.685 196.371 220.858 199.992 221.677 203.477C222.065 205.092 222.58 206.67 223.218 208.193C224.021 210.141 224.857 212.046 224.657 214.182C224.462 214.322 225.132 214.298 225.149 214.091C230.536 210.845 237.446 210.25 241.589 204.94C243.554 202.422 244.546 199.236 245.027 196.05C245.537 192.578 245.674 188.767 244.832 185.314C244.116 182.42 242.54 179.628 239.956 178.208C237.372 176.788 233.836 176.873 231.046 177.789C225.012 179.774 222.021 186.649 221.167 192.815Z" fill="#7AC943"/>
<path d="M218.406 235.04C219.14 232.449 219.873 229.851 220.629 227.266C222.108 222.193 223.643 217.144 225.345 212.149C226.365 209.164 227.439 206.204 228.566 203.271C228.445 201.422 228.231 199.58 227.924 197.755C227.477 195.546 226.818 193.41 226.205 191.243C226.195 191.213 226.197 191.179 226.21 191.15C226.224 191.121 226.248 191.099 226.276 191.089C226.305 191.078 226.337 191.08 226.364 191.095C226.392 191.109 226.413 191.134 226.422 191.165C227.632 194.15 229.213 197.961 229.247 201.481C230.565 198.162 231.969 194.891 233.482 191.668C233.655 188.942 233.577 186.204 233.247 183.494C233.242 183.468 233.248 183.442 233.262 183.42C233.276 183.398 233.297 183.383 233.321 183.379C233.346 183.374 233.371 183.379 233.391 183.394C233.412 183.409 233.426 183.432 233.43 183.458C233.887 185.83 234.064 188.254 233.958 190.673C235.104 188.246 236.33 185.861 237.63 183.506C237.745 183.294 238.026 183.506 237.923 183.718C235.9 187.845 234.021 192.063 232.256 196.329C234.737 194.054 237.603 192.298 240.702 191.152C240.839 191.104 240.937 191.31 240.799 191.365C237.419 192.909 234.326 195.079 231.666 197.773C230.401 200.9 229.196 204.052 228.05 207.228C231.419 203.726 236.032 201.426 240.49 200.194C240.644 200.152 240.685 200.395 240.536 200.443C235.379 202.088 231.368 205.189 227.437 208.939C226.978 210.222 226.531 211.508 226.096 212.799C224.427 217.682 222.841 222.599 221.34 227.551C220.618 229.918 219.902 232.297 219.203 234.67C218.452 237.231 217.862 239.931 216.911 242.401C216.819 242.638 216.418 242.583 216.469 242.298C216.999 239.845 217.645 237.423 218.406 235.04Z" fill="#263238"/>
<path d="M227.339 187.803C228.296 189.36 228.956 191.099 229.282 192.924C229.282 192.973 229.219 192.997 229.202 192.924C228.6 191.205 227.897 189.527 227.099 187.9C227.019 187.803 227.248 187.675 227.339 187.803Z" fill="#263238"/>
<path d="M236.95 199.709C238.448 198.827 240.085 198.243 241.781 197.985C241.827 197.985 241.855 198.046 241.781 198.064C241.001 198.41 240.188 198.671 239.403 198.968C238.618 199.266 237.838 199.678 237.042 199.97C237.013 199.972 236.983 199.963 236.959 199.946C236.934 199.929 236.915 199.904 236.905 199.875C236.895 199.846 236.894 199.814 236.902 199.784C236.91 199.754 236.927 199.728 236.95 199.709Z" fill="#263238"/>
<path d="M239.652 185.411C240.14 185.021 240.662 184.679 241.211 184.392C241.229 184.38 241.251 184.376 241.272 184.381C241.293 184.386 241.311 184.4 241.323 184.419C241.334 184.439 241.338 184.462 241.333 184.484C241.328 184.506 241.315 184.526 241.297 184.538C240.819 184.94 240.307 185.293 239.767 185.594C239.669 185.654 239.555 185.478 239.652 185.411Z" fill="#263238"/>
<path d="M203.009 212.192C206.888 213.406 210.79 214.534 214.67 215.742C215.008 215.851 221.546 202.543 219.191 195.686C217.002 189.338 211.988 184.592 206.012 182.432C203.244 181.437 199.84 180.611 196.912 181.285C194.311 181.892 192.471 184.149 191.629 186.747C190.483 190.266 190.861 194.472 191.486 198.064C191.987 201.44 193.304 204.622 195.308 207.301C197.359 209.892 199.989 211.239 203.009 212.192Z" fill="#7AC943"/>
<path d="M197.389 199.539C199.84 200.808 202.383 201.869 204.993 202.713C206.734 203.21 208.432 203.861 210.07 204.661C208.437 200.789 206.632 197.002 204.729 193.252C202.219 192.481 199.572 191.286 197.698 189.404C197.677 189.385 197.664 189.358 197.662 189.328C197.66 189.298 197.669 189.269 197.687 189.247C197.705 189.224 197.731 189.21 197.759 189.208C197.787 189.206 197.815 189.215 197.836 189.234C199.904 190.782 202.185 191.71 204.471 192.754C203.956 191.747 203.432 190.735 202.901 189.72C202.758 189.441 203.119 189.162 203.297 189.435C205.334 192.571 207.176 195.844 208.809 199.235C209.227 196.263 209.361 193.254 209.21 190.254C209.207 190.245 209.206 190.235 209.208 190.226C209.209 190.216 209.213 190.207 209.218 190.199C209.223 190.192 209.23 190.185 209.238 190.181C209.247 190.177 209.255 190.174 209.264 190.174C209.274 190.174 209.282 190.177 209.291 190.181C209.299 190.185 209.306 190.192 209.311 190.199C209.316 190.207 209.32 190.216 209.321 190.226C209.322 190.235 209.322 190.245 209.319 190.254C209.804 193.526 209.773 196.86 209.227 200.121C210.585 202.998 211.823 205.947 212.94 208.927C213.382 207.137 213.955 205.371 214.338 203.562C214.93 200.983 215.124 198.318 214.911 195.673C214.911 195.594 215.009 195.588 215.02 195.673C215.71 200.579 215.148 205.591 213.393 210.189C214.04 212.01 214.659 213.788 215.227 215.59C218.153 224.807 219.888 234.402 220.384 244.112C220.384 244.159 220.366 244.203 220.335 244.236C220.304 244.269 220.262 244.288 220.217 244.288C220.173 244.288 220.131 244.269 220.1 244.236C220.069 244.203 220.051 244.159 220.051 244.112C219.037 234.538 217.102 225.099 214.275 215.942C213.129 212.362 211.852 208.884 210.431 205.468C208.139 204.752 205.847 203.781 203.606 202.955C201.366 202.13 199.16 201.214 197.303 199.684C197.229 199.624 197.309 199.496 197.389 199.539Z" fill="#263238"/>
<path d="M193.773 195.691C196.145 196.589 198.392 197.84 200.764 198.726C200.873 198.768 200.81 198.956 200.695 198.932C198.191 198.38 195.704 197.56 193.681 195.819C193.59 195.752 193.687 195.643 193.773 195.691Z" fill="#263238"/>
<path d="M213.141 190.23C213.141 190.097 213.301 190.024 213.335 190.157C213.989 192.475 214.436 194.933 213.805 197.3C213.805 197.391 213.639 197.397 213.633 197.3C213.525 194.927 213.645 192.609 213.141 190.23Z" fill="#263238"/>
<path d="M203.33 184.908C204.085 186.059 204.447 187.448 204.356 188.846C204.356 188.931 204.218 188.986 204.195 188.846C203.909 187.523 203.427 186.316 203.049 185.029C203.047 184.994 203.056 184.959 203.074 184.929C203.092 184.899 203.118 184.876 203.149 184.863C203.18 184.849 203.214 184.847 203.246 184.855C203.279 184.863 203.308 184.881 203.33 184.908Z" fill="#263238"/>
<path d="M249.171 218.06C248.025 221.883 245.332 227.163 241.052 227.211C238.279 227.211 235.482 226.89 232.703 226.847C229.724 226.798 226.744 226.805 223.77 226.993C223.529 226.993 224.125 217.55 231.282 212.944C233.288 211.651 235.74 211.245 238.015 210.723C240.62 210.071 243.293 209.775 245.968 209.843C247.613 209.916 248.982 210.286 249.567 212.064C250.151 213.842 249.698 216.245 249.171 218.06Z" fill="#7AC943"/>
<path d="M246.077 213.29C244.358 213.764 242.582 214.304 240.834 214.892C241.29 214.369 241.772 213.873 242.278 213.406C243.029 212.744 243.854 212.192 244.656 211.64C244.725 211.591 244.685 211.452 244.599 211.488C242.906 212.233 241.443 213.465 240.376 215.044C238.204 215.791 236.05 216.61 233.976 217.514C232.542 218.134 231.168 218.898 229.873 219.796C230.289 218.84 230.785 217.926 231.357 217.065C232.308 215.76 233.592 215.032 234.835 214.11C234.86 214.093 234.878 214.067 234.885 214.037C234.892 214.007 234.888 213.975 234.872 213.949C234.857 213.922 234.833 213.903 234.804 213.896C234.776 213.888 234.746 213.893 234.72 213.909C233.417 214.502 232.244 215.377 231.279 216.479C230.314 217.581 229.577 218.884 229.116 220.305C227.644 221.443 226.298 222.754 225.105 224.214C220.367 229.912 216.636 237.491 216.625 245.223C216.625 245.411 216.906 245.459 216.94 245.271C218.154 237.688 221.273 230.59 225.971 224.723C226.309 224.305 226.658 223.91 227.008 223.51C228.305 223.325 229.612 223.221 230.921 223.2C232.446 223.2 233.958 223.437 235.477 223.57C237.975 223.783 240.737 223.819 242.989 222.484C243.012 222.471 243.029 222.45 243.037 222.424C243.046 222.398 243.045 222.37 243.035 222.345C243.025 222.32 243.006 222.3 242.983 222.289C242.96 222.277 242.933 222.276 242.909 222.284C237.889 224.22 232.595 221.768 227.581 222.921C229.738 220.745 232.266 219.023 235.03 217.848L235.494 217.654C238.72 218.06 242.124 218.952 245.264 217.842C245.284 217.836 245.3 217.822 245.311 217.804C245.321 217.785 245.324 217.762 245.318 217.742C245.313 217.721 245.3 217.703 245.282 217.692C245.264 217.681 245.243 217.678 245.224 217.684C242.187 218.485 239.276 217.478 236.285 217.32C239.545 215.973 242.869 214.892 246.14 213.569C246.37 213.46 246.375 213.193 246.077 213.29Z" fill="#263238"/>
<path d="M236.896 213.363C236.03 213.774 235.243 214.353 234.575 215.068C234.489 215.147 234.604 215.305 234.69 215.232C235.085 214.929 235.492 214.625 235.899 214.364C236.294 214.134 236.677 213.881 237.045 213.606C237.137 213.515 237.022 213.29 236.896 213.363Z" fill="#263238"/>
<path d="M211.627 225.67C211.678 225.791 211.506 225.913 211.438 225.779C211.426 225.799 211.41 225.816 211.391 225.829C211.372 225.841 211.351 225.849 211.329 225.852C208.448 226.582 205.528 227.123 202.585 227.472C200.218 227.691 197.491 227.83 195.416 226.38C192.609 224.408 190.764 219.134 192.282 215.784C194.076 211.809 199.485 213.964 202.201 215.384C206.379 217.543 209.714 221.182 211.627 225.67Z" fill="#7AC943"/>
<path d="M213.724 227.509C212.147 225.892 210.395 224.478 208.504 223.297C207.143 221.015 205.338 219.066 203.209 217.581C203.106 217.508 203.02 217.678 203.112 217.757C204.805 219.192 206.306 220.864 207.576 222.727C205.466 221.507 203.275 220.453 201.021 219.571C200.219 217.988 198.995 216.691 197.502 215.839C197.474 215.839 197.439 215.839 197.468 215.887C198.698 216.879 199.771 218.071 200.648 219.419C199.313 218.891 197.972 218.406 196.637 217.932C196.517 217.89 196.471 218.084 196.586 218.133C198.981 219.122 201.422 220.166 203.794 221.367C200.903 221.856 197.958 221.856 195.067 221.367C195.052 221.365 195.036 221.368 195.023 221.377C195.01 221.386 195.001 221.399 194.997 221.415C194.992 221.431 194.994 221.447 195 221.462C195.007 221.477 195.018 221.488 195.033 221.495C198.048 222.441 201.251 222.494 204.292 221.646C205.803 222.422 207.268 223.291 208.682 224.25C207.491 224.145 206.293 224.25 205.135 224.559C203.089 225.062 200.995 225.312 198.895 225.306C198.815 225.306 198.797 225.439 198.895 225.451C202.51 226.113 205.931 224.371 209.518 224.845C210.85 225.803 212.1 226.884 213.254 228.073C215.492 230.442 217.334 233.196 218.704 236.217C220.211 239.47 221.03 242.892 222.25 246.278C222.258 246.31 222.277 246.337 222.303 246.353C222.33 246.37 222.361 246.375 222.391 246.367C222.42 246.358 222.446 246.338 222.461 246.31C222.477 246.283 222.482 246.249 222.474 246.218C221.402 239.542 218.285 232.23 213.724 227.509Z" fill="#263238"/>
<path d="M202.807 218.412C202.569 217.952 202.254 217.541 201.879 217.199C201.577 216.848 201.216 216.562 200.813 216.355C200.779 216.355 200.756 216.391 200.779 216.416C201.077 216.774 201.489 217.023 201.81 217.375C202.131 217.726 202.383 218.121 202.721 218.461C202.73 218.466 202.739 218.469 202.749 218.469C202.759 218.469 202.768 218.467 202.777 218.462C202.786 218.457 202.793 218.45 202.798 218.441C202.803 218.432 202.807 218.423 202.807 218.412Z" fill="#263238"/>
<path d="M196.844 220.469C196.306 220.33 195.738 220.342 195.194 220.221C194.651 220.083 194.116 219.915 193.59 219.717C193.575 219.714 193.561 219.717 193.548 219.724C193.535 219.732 193.526 219.744 193.52 219.758C193.515 219.772 193.514 219.788 193.518 219.802C193.523 219.817 193.532 219.83 193.544 219.838C194.531 220.482 195.69 220.767 196.844 220.651C196.862 220.645 196.877 220.632 196.888 220.616C196.898 220.6 196.904 220.58 196.904 220.56C196.904 220.541 196.898 220.521 196.888 220.505C196.877 220.489 196.862 220.476 196.844 220.469Z" fill="#263238"/>
<path d="M230.931 234.524L230.341 241.624L228.341 265.589H210.618L208.114 241.624L207.375 234.524H230.931Z" fill="#455A64"/>
<path d="M230.931 234.524L230.341 241.624H208.114L207.375 234.524H230.931Z" fill="#263238"/>
<path d="M232.686 232.588H205.623V238.347H232.686V232.588Z" fill="#455A64"/>
</svg>
