<svg width="641" height="609" viewBox="0 0 641 609" fill="none" xmlns="http://www.w3.org/2000/svg">
<g filter="url(#filter0_d_2112_3841)">
<rect x="25.5" y="25.5" width="152" height="152" rx="76" fill="white"/>
<g clip-path="url(#clip0_2112_3841)">
<path d="M138.456 92.7585L138.677 105.667H138.567L134.829 92.7633H128.681V109.017H132.745L132.524 95.6719H132.635L136.64 109.017H142.52V92.7633L138.456 92.7585ZM61.071 92.7585L57.9996 109.184H62.4462L64.6983 94.2439H64.8085L67.0079 109.184H71.3971L68.3783 92.7633L61.071 92.7585ZM85.8967 92.7585L83.865 105.284H83.7548L81.7231 92.7633H75.0292L74.6985 109.184H78.8194L78.9296 94.4117H78.9823L81.7279 109.184H85.9015L88.6471 94.4117H88.7573L88.8675 109.184H92.9883L92.605 92.7633L85.8967 92.7585ZM51.0804 104.517C51.2053 104.908 51.2235 105.325 51.1331 105.725C51.0229 106.271 50.6396 106.822 49.5423 106.822C48.4977 106.822 47.894 106.218 47.894 105.337V103.746H43.5V105.011C43.5 108.691 46.4085 109.788 49.4896 109.788C52.4508 109.788 54.9233 108.744 55.3067 106.051C55.5271 104.623 55.3642 103.693 55.3067 103.362C54.54 99.9029 48.2773 98.911 47.8365 96.9896C47.7816 96.6999 47.7816 96.4024 47.8365 96.1127C47.9467 95.5617 48.3348 95.0106 49.3219 95.0106C50.309 95.0106 50.8552 95.6192 50.8552 96.496V97.4831H54.976V96.3331C54.976 92.7633 51.7369 92.2123 49.4321 92.2123C46.5188 92.2123 44.1037 93.1994 43.6629 95.8396C43.5187 96.5663 43.5384 97.316 43.7204 98.0342C44.3769 101.436 50.2562 102.428 51.0804 104.512M104.517 104.512C104.68 104.896 104.622 105.394 104.57 105.725C104.46 106.271 104.076 106.822 102.979 106.822C101.934 106.822 101.331 106.218 101.331 105.337V103.746H96.9367V105.011C96.9367 108.633 99.7925 109.731 102.869 109.731C105.835 109.731 108.25 108.744 108.633 105.998C108.854 104.57 108.691 103.693 108.633 103.305C107.977 99.9029 101.767 98.8583 101.331 96.9896C101.275 96.6999 101.275 96.4024 101.331 96.1127C101.441 95.5617 101.824 95.0106 102.816 95.0106C103.746 95.0106 104.349 95.6192 104.349 96.496V97.4831H108.413V96.3331C108.413 92.7633 105.226 92.2123 102.921 92.2123C100.013 92.2123 97.6506 93.1467 97.2098 95.8396C97.0996 96.5535 97.0996 97.21 97.2673 98.0342C97.9237 101.436 103.688 102.371 104.517 104.512ZM118.355 106.712C119.505 106.712 119.841 105.945 119.946 105.504C120.004 105.337 120.004 105.064 120.004 104.901V92.7585H124.173V104.565C124.173 104.896 124.173 105.5 124.125 105.667C123.847 108.739 121.432 109.726 118.408 109.726C115.389 109.726 112.974 108.739 112.696 105.662C112.696 105.5 112.644 104.896 112.644 104.565V92.7585H116.812V104.896C116.812 105.116 116.812 105.332 116.87 105.5C116.87 105.936 117.205 106.707 118.355 106.707M152.625 106.544C153.833 106.544 154.216 105.777 154.326 105.332C154.379 105.169 154.379 104.896 154.379 104.728V102.366H152.678V99.9508H158.5V104.345C158.5 104.675 158.5 104.896 158.447 105.447C158.169 108.466 155.587 109.505 152.678 109.505C149.77 109.505 147.187 108.466 146.914 105.442C146.856 104.896 146.856 104.675 146.856 104.345V97.4256C146.856 97.1525 146.914 96.6014 146.914 96.3235C147.297 93.2521 149.77 92.265 152.678 92.265C155.587 92.265 158.117 93.2521 158.442 96.3283C158.5 96.8219 158.5 97.4256 158.5 97.4256V97.9767H154.379V97.0423C154.379 97.0423 154.379 96.6589 154.326 96.4385C154.269 96.0552 153.943 95.231 152.678 95.231C151.471 95.231 151.145 95.9977 151.03 96.4385C150.977 96.6542 150.977 96.9321 150.977 97.2052V104.728C150.977 104.949 150.977 105.169 151.03 105.332C151.03 105.773 151.471 106.544 152.625 106.544Z" fill="#A9A9B9"/>
</g>
</g>
<g filter="url(#filter1_d_2112_3841)">
<rect x="244.5" y="25.5" width="152" height="152" rx="76" fill="white"/>
<g clip-path="url(#clip1_2112_3841)">
<path d="M386.613 100.259V97.9355H383.728V94.3235L383.631 94.3532L380.921 95.1825L380.868 95.1988V97.9355H376.59V96.411C376.59 95.7012 376.749 95.1578 377.062 94.7957C377.373 94.4376 377.817 94.2557 378.384 94.2557C378.791 94.2557 379.213 94.3517 379.638 94.5408L379.744 94.5883V92.1416L379.694 92.1235C379.298 91.9808 378.759 91.9094 378.092 91.9094C377.25 91.9094 376.485 92.0923 375.818 92.4554C375.161 92.8088 374.619 93.3442 374.258 93.9974C373.892 94.6564 373.706 95.4173 373.706 96.2596V97.9358H371.697V100.259H373.706V110.047H376.59V100.259H380.868V106.479C380.868 109.041 382.076 110.339 384.459 110.339C384.871 110.337 385.281 110.291 385.684 110.203C386.112 110.111 386.404 110.019 386.575 109.921L386.613 109.898V107.553L386.496 107.631C386.34 107.735 386.145 107.821 385.916 107.884C385.687 107.948 385.495 107.981 385.346 107.981C384.788 107.981 384.375 107.83 384.119 107.533C383.86 107.234 383.728 106.71 383.728 105.977V100.259H386.613ZM365.256 107.981C364.21 107.981 363.384 107.634 362.802 106.95C362.217 106.263 361.921 105.283 361.921 104.038C361.921 102.754 362.217 101.749 362.803 101.049C363.385 100.355 364.202 100.002 365.233 100.002C366.233 100.002 367.029 100.339 367.599 101.004C368.172 101.672 368.463 102.669 368.463 103.968C368.463 105.283 368.189 106.294 367.65 106.97C367.115 107.64 366.309 107.981 365.256 107.981ZM365.385 97.6437C363.388 97.6437 361.801 98.2289 360.671 99.3831C359.54 100.538 358.967 102.135 358.967 104.131C358.967 106.028 359.526 107.553 360.63 108.664C361.733 109.776 363.235 110.339 365.093 110.339C367.029 110.339 368.583 109.746 369.714 108.576C370.844 107.407 371.417 105.824 371.417 103.874C371.417 101.948 370.879 100.412 369.819 99.308C368.758 98.2036 367.266 97.6437 365.385 97.6437ZM354.317 97.6437C352.958 97.6437 351.834 97.9912 350.976 98.6763C350.113 99.3655 349.674 100.27 349.674 101.363C349.674 101.932 349.769 102.437 349.955 102.865C350.142 103.295 350.432 103.673 350.817 103.991C351.199 104.306 351.789 104.636 352.57 104.972C353.227 105.242 353.717 105.471 354.028 105.651C354.332 105.828 354.548 106.005 354.67 106.178C354.788 106.347 354.849 106.579 354.849 106.865C354.849 107.678 354.239 108.074 352.986 108.074C352.52 108.074 351.99 107.977 351.409 107.786C350.832 107.597 350.287 107.321 349.794 106.967L349.674 106.881V109.658L349.718 109.678C350.127 109.867 350.641 110.025 351.247 110.151C351.853 110.275 352.402 110.339 352.88 110.339C354.354 110.339 355.542 109.99 356.408 109.301C357.28 108.607 357.722 107.682 357.722 106.55C357.722 105.734 357.484 105.033 357.014 104.469C356.549 103.909 355.741 103.394 354.614 102.94C353.716 102.58 353.141 102.281 352.903 102.051C352.675 101.829 352.558 101.515 352.558 101.118C352.558 100.766 352.702 100.484 352.996 100.255C353.293 100.025 353.706 99.9084 354.224 99.9084C354.704 99.9084 355.196 99.9843 355.685 100.133C356.174 100.282 356.602 100.481 356.961 100.725L357.078 100.805V98.1713L357.033 98.152C356.703 98.0101 356.267 97.8888 355.738 97.7907C355.211 97.6932 354.732 97.6437 354.317 97.6437ZM342.156 107.981C341.109 107.981 340.284 107.634 339.702 106.95C339.117 106.263 338.821 105.283 338.821 104.038C338.821 102.754 339.117 101.749 339.703 101.049C340.284 100.355 341.101 100.002 342.132 100.002C343.132 100.002 343.928 100.339 344.499 101.004C345.072 101.672 345.362 102.669 345.362 103.968C345.362 105.283 345.089 106.294 344.55 106.97C344.014 107.64 343.209 107.981 342.156 107.981ZM342.284 97.6437C340.287 97.6437 338.7 98.2289 337.57 99.3831C336.44 100.538 335.866 102.135 335.866 104.131C335.866 106.028 336.426 107.553 337.529 108.664C338.633 109.776 340.134 110.339 341.992 110.339C343.928 110.339 345.483 109.746 346.614 108.576C347.744 107.407 348.317 105.824 348.317 103.874C348.317 101.948 347.779 100.412 346.718 99.308C345.657 98.2036 344.165 97.6437 342.284 97.6437ZM331.488 100.033V97.9355H328.639V110.047H331.488V103.851C331.488 102.798 331.727 101.932 332.198 101.279C332.664 100.633 333.284 100.305 334.041 100.305C334.297 100.305 334.585 100.348 334.897 100.431C335.206 100.515 335.43 100.605 335.562 100.7L335.681 100.787V97.9149L335.635 97.895C335.37 97.7822 334.995 97.7255 334.52 97.7255C333.804 97.7255 333.163 97.9554 332.615 98.4082C332.133 98.8064 331.784 99.3524 331.518 100.033H331.488ZM323.537 97.6437C322.23 97.6437 321.064 97.9241 320.073 98.4766C319.079 99.0301 318.311 99.821 317.788 100.826C317.267 101.829 317.003 103 317.003 104.307C317.003 105.451 317.259 106.501 317.766 107.427C318.272 108.354 318.99 109.079 319.898 109.582C320.804 110.085 321.852 110.339 323.012 110.339C324.366 110.339 325.522 110.069 326.449 109.535L326.486 109.513V106.903L326.367 106.991C325.94 107.3 325.471 107.544 324.973 107.716C324.469 107.892 324.01 107.981 323.608 107.981C322.49 107.981 321.593 107.631 320.941 106.942C320.288 106.251 319.957 105.281 319.957 104.061C319.957 102.834 320.302 101.839 320.983 101.105C321.661 100.373 322.56 100.002 323.655 100.002C324.591 100.002 325.504 100.319 326.367 100.946L326.486 101.032V98.2823L326.448 98.2606C326.123 98.0787 325.68 97.9285 325.13 97.8147C324.582 97.7012 324.046 97.6437 323.537 97.6437ZM315.041 97.9355H312.192V110.047H315.041V97.9355ZM313.646 92.7761C313.177 92.7761 312.768 92.9358 312.432 93.2519C312.094 93.5693 311.923 93.9687 311.923 94.4399C311.923 94.9039 312.092 95.2958 312.426 95.6047C312.758 95.9125 313.169 96.0686 313.646 96.0686C314.122 96.0686 314.534 95.9125 314.87 95.6052C315.208 95.2958 315.38 94.9039 315.38 94.4399C315.38 93.9852 315.213 93.5897 314.884 93.2648C314.556 92.9405 314.139 92.7761 313.646 92.7761ZM306.537 97.0422V110.047H309.445V93.1469H305.421L300.306 105.699L295.342 93.1469H291.154V110.047H293.887V97.0409H293.981L299.222 110.047H301.284L306.443 97.0419L306.537 97.0422Z" fill="#A9A9B9"/>
<path d="M267.902 100.902H254.5V87.5H267.902V100.902Z" fill="#A9A9B9"/>
<path d="M282.701 100.902H269.299V87.5H282.701V100.902Z" fill="#A9A9B9"/>
<path d="M267.902 115.705H254.5V102.303H267.902V115.705Z" fill="#A9A9B9"/>
<path d="M282.701 115.705H269.299V102.303H282.701V115.705Z" fill="#A9A9B9"/>
</g>
</g>
<g filter="url(#filter2_d_2112_3841)">
<rect x="463.5" y="25.5" width="152" height="152" rx="76" fill="white"/>
<g clip-path="url(#clip2_2112_3841)">
<path d="M598.576 105.766L602.071 108.097C600.937 109.767 598.223 112.634 593.532 112.634C587.707 112.634 583.368 108.127 583.368 102.394C583.368 96.2921 587.753 92.1528 593.042 92.1528C598.361 92.1528 600.967 96.3839 601.811 98.6682L602.271 99.8334L588.565 105.506C589.608 107.56 591.233 108.602 593.532 108.602C595.832 108.602 597.426 107.468 598.576 105.766ZM587.829 102.072L596.982 98.2697C596.476 96.9974 594.973 96.093 593.179 96.093C590.895 96.093 587.722 98.1167 587.829 102.072Z" fill="#A9A9B9"/>
<path d="M576.76 81.7135H581.175V111.7H576.76V81.7133V81.7135Z" fill="#A9A9B9"/>
<path d="M569.8 92.9501H574.062V111.163C574.062 118.72 569.601 121.833 564.327 121.833C559.36 121.833 556.371 118.491 555.251 115.777L559.161 114.152C559.866 115.823 561.567 117.801 564.327 117.801C567.715 117.801 569.8 115.7 569.8 111.776V110.304H569.647C568.635 111.531 566.703 112.634 564.25 112.634C559.13 112.634 554.438 108.173 554.438 102.424C554.438 96.6447 559.13 92.1377 564.25 92.1377C566.688 92.1377 568.635 93.2262 569.647 94.4219H569.8V92.9503V92.9501ZM570.106 102.424C570.106 98.8063 567.699 96.1694 564.633 96.1694C561.537 96.1694 558.93 98.8063 558.93 102.424C558.93 105.996 561.537 108.587 564.633 108.587C567.7 108.603 570.107 105.996 570.107 102.424H570.106Z" fill="#A9A9B9"/>
<path d="M530.202 102.348C530.202 108.251 525.603 112.589 519.961 112.589C514.32 112.589 509.721 108.235 509.721 102.348C509.721 96.4155 514.32 92.0923 519.961 92.0923C525.603 92.0923 530.202 96.4155 530.202 102.348ZM525.726 102.348C525.726 98.6692 523.058 96.1394 519.961 96.1394C516.865 96.1394 514.197 98.6692 514.197 102.348C514.197 105.997 516.865 108.557 519.961 108.557C523.058 108.557 525.726 105.997 525.726 102.348Z" fill="#A9A9B9"/>
<path d="M552.568 102.394C552.568 108.296 547.969 112.634 542.328 112.634C536.686 112.634 532.087 108.296 532.087 102.394C532.087 96.4607 536.686 92.1528 542.328 92.1528C547.969 92.1528 552.568 96.4454 552.568 102.394ZM548.076 102.394C548.076 98.7144 545.409 96.1846 542.312 96.1846C539.216 96.1846 536.548 98.7144 536.548 102.394C536.548 106.042 539.216 108.602 542.312 108.602C545.424 108.602 548.076 106.027 548.076 102.394Z" fill="#A9A9B9"/>
<path d="M492.887 108.142C486.463 108.142 481.435 102.961 481.435 96.5371C481.435 90.1138 486.463 84.932 492.887 84.932C496.352 84.932 498.881 86.2964 500.751 88.0441L503.833 84.9628C501.227 82.4639 497.747 80.5626 492.887 80.5626C484.087 80.5629 476.683 87.7377 476.683 96.5371C476.683 105.337 484.087 112.511 492.887 112.511C497.639 112.511 501.227 110.948 504.032 108.035C506.914 105.153 507.803 101.106 507.803 97.8249C507.803 96.7977 507.681 95.74 507.543 94.9581H492.887V99.22H503.327C503.02 101.888 502.177 103.712 500.935 104.953C499.433 106.471 497.057 108.142 492.887 108.142Z" fill="#A9A9B9"/>
</g>
</g>
<g filter="url(#filter3_d_2112_3841)">
<rect x="25.5" y="228.5" width="152" height="152" rx="76" fill="white"/>
<path d="M79.5662 313.272L81.055 309.808C82.6625 311.011 84.7944 311.636 86.9029 311.636C88.4645 311.636 89.4429 311.035 89.4429 310.12C89.4194 307.575 80.1177 309.569 80.0495 303.175C80.026 299.932 82.9012 297.428 86.9758 297.428C89.397 297.428 91.8171 298.03 93.5446 299.404L92.1534 302.936C90.573 301.925 88.6068 301.204 86.7371 301.204C85.4647 301.204 84.6286 301.806 84.6286 302.573C84.6521 305.072 94.022 303.703 94.1184 309.808C94.1184 313.125 91.3174 315.458 87.2886 315.458C84.3393 315.458 81.6288 314.761 79.5662 313.272ZM136.599 308.558C136.134 309.387 135.408 310.038 134.533 310.409C133.659 310.78 132.686 310.85 131.767 310.608C130.848 310.366 130.036 309.826 129.457 309.073C128.878 308.32 128.566 307.395 128.57 306.445C128.568 305.881 128.678 305.321 128.893 304.799C129.108 304.277 129.424 303.803 129.822 303.403C130.221 303.003 130.695 302.686 131.216 302.469C131.737 302.253 132.296 302.141 132.861 302.141C134.464 302.141 135.856 303.033 136.6 304.329L140.697 302.045C139.163 299.307 136.213 297.428 132.861 297.428C127.895 297.428 123.871 301.471 123.871 306.445C123.871 311.419 127.895 315.458 132.861 315.458C134.461 315.461 136.032 315.034 137.411 314.222C138.79 313.41 139.925 312.242 140.697 310.841L136.599 308.558ZM96.181 289.954H101.313V315.122H96.181V289.954ZM142.714 289.954V315.122H147.84V307.575L153.931 315.122H160.5L152.755 306.156L159.925 297.792H153.642L147.84 304.737V289.955H142.713L142.714 289.954ZM116.558 308.609C115.814 309.835 114.28 310.744 112.552 310.744C111.988 310.744 111.43 310.633 110.909 310.416C110.388 310.2 109.915 309.883 109.516 309.484C109.118 309.085 108.802 308.611 108.587 308.089C108.372 307.568 108.262 307.009 108.263 306.445C108.262 305.881 108.372 305.322 108.587 304.8C108.802 304.278 109.117 303.804 109.516 303.404C109.914 303.005 110.387 302.688 110.908 302.471C111.429 302.254 111.988 302.142 112.552 302.141C114.28 302.141 115.814 303.101 116.558 304.351V308.609ZM116.558 297.79V299.836C115.718 298.416 113.632 297.428 111.451 297.428C106.944 297.428 103.398 301.42 103.398 306.418C103.398 311.421 106.944 315.458 111.451 315.458C113.632 315.458 115.718 314.47 116.558 313.055V315.1H121.689V297.79H116.558ZM47.8536 308.581C47.8536 310.336 46.4389 311.756 44.688 311.756C44.2716 311.755 43.8594 311.673 43.4749 311.513C43.0904 311.353 42.7412 311.119 42.4473 310.824C42.1534 310.53 41.9205 310.18 41.762 309.795C41.6035 309.41 41.5224 308.997 41.5235 308.581C41.5228 308.165 41.604 307.753 41.7627 307.368C41.9214 306.984 42.1544 306.634 42.4484 306.34C42.7423 306.045 43.0914 305.812 43.4757 305.653C43.86 305.493 44.272 305.411 44.688 305.412H47.8536V308.581ZM49.4329 308.581C49.4321 308.165 49.5134 307.752 49.6722 307.368C49.831 306.983 50.0641 306.634 50.3581 306.339C50.6522 306.045 51.0014 305.811 51.3859 305.652C51.7703 305.493 52.1824 305.411 52.5985 305.412C53.0146 305.411 53.4266 305.493 53.811 305.653C54.1954 305.812 54.5446 306.046 54.8385 306.34C55.1325 306.635 55.3654 306.984 55.5241 307.369C55.6827 307.754 55.7639 308.166 55.7629 308.582V316.515C55.7639 316.931 55.6827 317.343 55.5241 317.728C55.3655 318.113 55.1326 318.463 54.8387 318.758C54.5448 319.053 54.1957 319.286 53.8113 319.446C53.4269 319.606 53.0148 319.688 52.5985 319.689C52.182 319.688 51.7697 319.606 51.3851 319.446C51.0005 319.287 50.6511 319.053 50.3571 318.758C50.063 318.463 49.83 318.113 49.6715 317.728C49.5129 317.343 49.4318 316.93 49.4329 316.514V308.581ZM52.5985 295.844C52.182 295.844 51.7697 295.762 51.3851 295.602C51.0005 295.442 50.6511 295.208 50.3571 294.913C50.063 294.618 49.83 294.268 49.6715 293.883C49.5129 293.498 49.4318 293.086 49.4329 292.669C49.4321 292.253 49.5134 291.841 49.6722 291.456C49.831 291.072 50.0641 290.722 50.3581 290.428C50.6522 290.133 51.0014 289.9 51.3859 289.741C51.7703 289.581 52.1824 289.5 52.5985 289.5C53.0145 289.5 53.4264 289.582 53.8107 289.741C54.195 289.9 54.5442 290.134 54.8381 290.428C55.132 290.723 55.365 291.072 55.5237 291.457C55.6824 291.841 55.7637 292.253 55.7629 292.669V295.844H52.5985ZM52.5985 297.456C53.0145 297.456 53.4264 297.538 53.8107 297.697C54.195 297.857 54.5442 298.09 54.8381 298.385C55.132 298.679 55.365 299.028 55.5237 299.413C55.6824 299.797 55.7637 300.21 55.7629 300.626C55.7629 302.38 54.3483 303.801 52.5985 303.801H44.6656C44.2492 303.8 43.8368 303.718 43.4522 303.558C43.0676 303.399 42.7183 303.165 42.4242 302.87C42.1302 302.575 41.8972 302.225 41.7386 301.84C41.58 301.455 41.4989 301.042 41.5 300.626C41.4992 300.209 41.5806 299.797 41.7393 299.413C41.8981 299.028 42.1312 298.679 42.4253 298.384C42.7193 298.09 43.0686 297.856 43.453 297.697C43.8375 297.538 44.2495 297.456 44.6656 297.456H52.5985ZM65.281 300.626C65.2802 300.21 65.3615 299.797 65.5202 299.413C65.6789 299.028 65.9119 298.679 66.2058 298.385C66.4997 298.09 66.8488 297.857 67.2332 297.697C67.6175 297.538 68.0294 297.456 68.4454 297.456C68.8615 297.456 69.2736 297.538 69.658 297.697C70.0425 297.856 70.3917 298.09 70.6858 298.384C70.9798 298.679 71.2129 299.028 71.3717 299.413C71.5305 299.797 71.6118 300.209 71.611 300.626C71.611 302.38 70.1964 303.801 68.4454 303.801H65.281V300.626ZM63.7005 300.626C63.7005 302.38 62.2859 303.801 60.5361 303.801C60.1196 303.8 59.7073 303.718 59.3226 303.558C58.938 303.399 58.5887 303.165 58.2946 302.87C58.0006 302.575 57.7676 302.225 57.609 301.84C57.4504 301.455 57.3694 301.042 57.3704 300.626V292.669C57.3697 292.253 57.451 291.841 57.6098 291.456C57.7685 291.072 58.0016 290.722 58.2957 290.428C58.5898 290.133 58.939 289.9 59.3234 289.741C59.7079 289.581 60.12 289.5 60.5361 289.5C60.9521 289.5 61.364 289.582 61.7483 289.741C62.1326 289.9 62.4817 290.134 62.7757 290.428C63.0696 290.723 63.3026 291.072 63.4613 291.457C63.62 291.841 63.7013 292.253 63.7005 292.669V300.626ZM60.5361 313.344C60.9522 313.344 61.3642 313.426 61.7486 313.586C62.133 313.745 62.4821 313.979 62.7761 314.273C63.07 314.568 63.303 314.917 63.4616 315.302C63.6203 315.686 63.7014 316.099 63.7005 316.515C63.7014 316.931 63.6203 317.343 63.4617 317.728C63.3031 318.113 63.0702 318.463 62.7763 318.758C62.4824 319.053 62.1332 319.286 61.7488 319.446C61.3644 319.606 60.9523 319.688 60.5361 319.689C60.1196 319.688 59.7073 319.606 59.3226 319.446C58.938 319.287 58.5887 319.053 58.2946 318.758C58.0006 318.463 57.7676 318.113 57.609 317.728C57.4504 317.343 57.3694 316.93 57.3704 316.514V313.344H60.5361ZM60.5361 311.756C60.1196 311.756 59.7073 311.673 59.3226 311.514C58.938 311.354 58.5887 311.12 58.2946 310.825C58.0006 310.53 57.7676 310.18 57.609 309.795C57.4504 309.41 57.3694 308.997 57.3704 308.581C57.3697 308.165 57.451 307.752 57.6098 307.368C57.7685 306.983 58.0016 306.634 58.2957 306.339C58.5898 306.045 58.939 305.811 59.3234 305.652C59.7079 305.493 60.12 305.411 60.5361 305.412H68.4689C68.885 305.411 69.2971 305.493 69.6814 305.653C70.0658 305.812 70.415 306.046 70.7089 306.34C71.0029 306.635 71.2359 306.984 71.3945 307.369C71.5531 307.754 71.6343 308.166 71.6334 308.582C71.6343 308.998 71.5531 309.411 71.3946 309.795C71.236 310.18 71.0031 310.53 70.7092 310.825C70.4153 311.12 70.0661 311.354 69.6817 311.513C69.2973 311.673 68.8852 311.755 68.4689 311.756H60.5361Z" fill="#A9A9B9"/>
</g>
<g filter="url(#filter4_d_2112_3841)">
<rect x="244.5" y="228.5" width="152" height="152" rx="76" fill="white"/>
<path d="M298.566 313.272L300.055 309.808C301.662 311.011 303.794 311.636 305.903 311.636C307.465 311.636 308.443 311.035 308.443 310.12C308.419 307.575 299.118 309.569 299.05 303.175C299.026 299.932 301.901 297.428 305.976 297.428C308.397 297.428 310.817 298.03 312.545 299.404L311.153 302.936C309.573 301.925 307.607 301.204 305.737 301.204C304.465 301.204 303.629 301.806 303.629 302.573C303.652 305.072 313.022 303.703 313.118 309.808C313.118 313.125 310.317 315.458 306.289 315.458C303.339 315.458 300.629 314.761 298.566 313.272ZM355.599 308.558C355.134 309.387 354.408 310.038 353.533 310.409C352.659 310.78 351.686 310.85 350.767 310.608C349.848 310.366 349.036 309.826 348.457 309.073C347.878 308.32 347.566 307.395 347.57 306.445C347.568 305.881 347.678 305.321 347.893 304.799C348.108 304.277 348.424 303.803 348.822 303.403C349.221 303.003 349.695 302.686 350.216 302.469C350.737 302.253 351.296 302.141 351.861 302.141C353.464 302.141 354.856 303.033 355.6 304.329L359.697 302.045C358.163 299.307 355.213 297.428 351.861 297.428C346.895 297.428 342.871 301.471 342.871 306.445C342.871 311.419 346.895 315.458 351.861 315.458C353.461 315.461 355.032 315.034 356.411 314.222C357.79 313.41 358.925 312.242 359.697 310.841L355.599 308.558ZM315.181 289.954H320.313V315.122H315.181V289.954ZM361.714 289.954V315.122H366.84V307.575L372.931 315.122H379.5L371.755 306.156L378.925 297.792H372.642L366.84 304.737V289.955H361.713L361.714 289.954ZM335.558 308.609C334.814 309.835 333.28 310.744 331.552 310.744C330.988 310.744 330.43 310.633 329.909 310.416C329.388 310.2 328.915 309.883 328.516 309.484C328.118 309.085 327.802 308.611 327.587 308.089C327.372 307.568 327.262 307.009 327.263 306.445C327.262 305.881 327.372 305.322 327.587 304.8C327.802 304.278 328.117 303.804 328.516 303.404C328.914 303.005 329.387 302.688 329.908 302.471C330.429 302.254 330.988 302.142 331.552 302.141C333.28 302.141 334.814 303.101 335.558 304.351V308.609ZM335.558 297.79V299.836C334.718 298.416 332.632 297.428 330.451 297.428C325.944 297.428 322.398 301.42 322.398 306.418C322.398 311.421 325.944 315.458 330.451 315.458C332.632 315.458 334.718 314.47 335.558 313.055V315.1H340.689V297.79H335.558ZM266.854 308.581C266.854 310.336 265.439 311.756 263.688 311.756C263.272 311.755 262.859 311.673 262.475 311.513C262.09 311.353 261.741 311.119 261.447 310.824C261.153 310.53 260.921 310.18 260.762 309.795C260.603 309.41 260.522 308.997 260.524 308.581C260.523 308.165 260.604 307.753 260.763 307.368C260.921 306.984 261.154 306.634 261.448 306.34C261.742 306.045 262.091 305.812 262.476 305.653C262.86 305.493 263.272 305.411 263.688 305.412H266.854V308.581ZM268.433 308.581C268.432 308.165 268.513 307.752 268.672 307.368C268.831 306.983 269.064 306.634 269.358 306.339C269.652 306.045 270.001 305.811 270.386 305.652C270.77 305.493 271.182 305.411 271.598 305.412C272.015 305.411 272.427 305.493 272.811 305.653C273.195 305.812 273.545 306.046 273.839 306.34C274.132 306.635 274.365 306.984 274.524 307.369C274.683 307.754 274.764 308.166 274.763 308.582V316.515C274.764 316.931 274.683 317.343 274.524 317.728C274.366 318.113 274.133 318.463 273.839 318.758C273.545 319.053 273.196 319.286 272.811 319.446C272.427 319.606 272.015 319.688 271.598 319.689C271.182 319.688 270.77 319.606 270.385 319.446C270 319.287 269.651 319.053 269.357 318.758C269.063 318.463 268.83 318.113 268.671 317.728C268.513 317.343 268.432 316.93 268.433 316.514V308.581ZM271.598 295.844C271.182 295.844 270.77 295.762 270.385 295.602C270 295.442 269.651 295.208 269.357 294.913C269.063 294.618 268.83 294.268 268.671 293.883C268.513 293.498 268.432 293.086 268.433 292.669C268.432 292.253 268.513 291.841 268.672 291.456C268.831 291.072 269.064 290.722 269.358 290.428C269.652 290.133 270.001 289.9 270.386 289.741C270.77 289.581 271.182 289.5 271.598 289.5C272.014 289.5 272.426 289.582 272.811 289.741C273.195 289.9 273.544 290.134 273.838 290.428C274.132 290.723 274.365 291.072 274.524 291.457C274.682 291.841 274.764 292.253 274.763 292.669V295.844H271.598ZM271.598 297.456C272.014 297.456 272.426 297.538 272.811 297.697C273.195 297.857 273.544 298.09 273.838 298.385C274.132 298.679 274.365 299.028 274.524 299.413C274.682 299.797 274.764 300.21 274.763 300.626C274.763 302.38 273.348 303.801 271.598 303.801H263.666C263.249 303.8 262.837 303.718 262.452 303.558C262.068 303.399 261.718 303.165 261.424 302.87C261.13 302.575 260.897 302.225 260.739 301.84C260.58 301.455 260.499 301.042 260.5 300.626C260.499 300.209 260.581 299.797 260.739 299.413C260.898 299.028 261.131 298.679 261.425 298.384C261.719 298.09 262.069 297.856 262.453 297.697C262.837 297.538 263.25 297.456 263.666 297.456H271.598ZM284.281 300.626C284.28 300.21 284.361 299.797 284.52 299.413C284.679 299.028 284.912 298.679 285.206 298.385C285.5 298.09 285.849 297.857 286.233 297.697C286.617 297.538 287.029 297.456 287.445 297.456C287.862 297.456 288.274 297.538 288.658 297.697C289.042 297.856 289.392 298.09 289.686 298.384C289.98 298.679 290.213 299.028 290.372 299.413C290.53 299.797 290.612 300.209 290.611 300.626C290.611 302.38 289.196 303.801 287.445 303.801H284.281V300.626ZM282.701 300.626C282.701 302.38 281.286 303.801 279.536 303.801C279.12 303.8 278.707 303.718 278.323 303.558C277.938 303.399 277.589 303.165 277.295 302.87C277.001 302.575 276.768 302.225 276.609 301.84C276.45 301.455 276.369 301.042 276.37 300.626V292.669C276.37 292.253 276.451 291.841 276.61 291.456C276.769 291.072 277.002 290.722 277.296 290.428C277.59 290.133 277.939 289.9 278.323 289.741C278.708 289.581 279.12 289.5 279.536 289.5C279.952 289.5 280.364 289.582 280.748 289.741C281.133 289.9 281.482 290.134 281.776 290.428C282.07 290.723 282.303 291.072 282.461 291.457C282.62 291.841 282.701 292.253 282.701 292.669V300.626ZM279.536 313.344C279.952 313.344 280.364 313.426 280.749 313.586C281.133 313.745 281.482 313.979 281.776 314.273C282.07 314.568 282.303 314.917 282.462 315.302C282.62 315.686 282.701 316.099 282.701 316.515C282.701 316.931 282.62 317.343 282.462 317.728C282.303 318.113 282.07 318.463 281.776 318.758C281.482 319.053 281.133 319.286 280.749 319.446C280.364 319.606 279.952 319.688 279.536 319.689C279.12 319.688 278.707 319.606 278.323 319.446C277.938 319.287 277.589 319.053 277.295 318.758C277.001 318.463 276.768 318.113 276.609 317.728C276.45 317.343 276.369 316.93 276.37 316.514V313.344H279.536ZM279.536 311.756C279.12 311.756 278.707 311.673 278.323 311.514C277.938 311.354 277.589 311.12 277.295 310.825C277.001 310.53 276.768 310.18 276.609 309.795C276.45 309.41 276.369 308.997 276.37 308.581C276.37 308.165 276.451 307.752 276.61 307.368C276.769 306.983 277.002 306.634 277.296 306.339C277.59 306.045 277.939 305.811 278.323 305.652C278.708 305.493 279.12 305.411 279.536 305.412H287.469C287.885 305.411 288.297 305.493 288.681 305.653C289.066 305.812 289.415 306.046 289.709 306.34C290.003 306.635 290.236 306.984 290.394 307.369C290.553 307.754 290.634 308.166 290.633 308.582C290.634 308.998 290.553 309.411 290.395 309.795C290.236 310.18 290.003 310.53 289.709 310.825C289.415 311.12 289.066 311.354 288.682 311.513C288.297 311.673 287.885 311.755 287.469 311.756H279.536Z" fill="#A9A9B9"/>
</g>
<g filter="url(#filter5_d_2112_3841)">
<rect x="463.5" y="228.5" width="152" height="152" rx="76" fill="white"/>
<g clip-path="url(#clip3_2112_3841)">
<path d="M511.659 282.647C505.782 282.647 500.145 284.982 495.989 289.138C491.833 293.294 489.498 298.931 489.498 304.809C489.498 310.686 491.833 316.323 495.989 320.479C500.145 324.635 505.782 326.97 511.659 326.97C517.462 326.857 522.99 324.473 527.053 320.329C531.117 316.185 533.394 310.613 533.394 304.809C533.394 299.005 531.117 293.432 527.053 289.289C522.99 285.145 517.462 282.76 511.659 282.647ZM511.659 286.253C511.869 286.253 512.313 286.253 512.54 286.261V287.993C512.246 287.987 511.953 287.982 511.659 287.98C509.45 287.975 507.262 288.407 505.221 289.253C503.18 290.098 501.327 291.34 499.77 292.906C498.203 294.464 496.96 296.317 496.115 298.358C495.269 300.399 494.837 302.587 494.843 304.796C494.843 309.291 496.592 313.517 499.77 316.686C501.327 318.252 503.18 319.494 505.221 320.34C507.262 321.185 509.45 321.618 511.659 321.612C515.922 321.604 520.024 319.982 523.138 317.072C526.252 314.162 528.147 310.18 528.442 305.928V305.677H516.963V303.958H529.461L530.203 303.954V304.796C530.21 307.232 529.735 309.646 528.804 311.897C527.873 314.148 526.504 316.192 524.778 317.91C523.058 319.638 521.013 321.008 518.76 321.941C516.508 322.873 514.093 323.35 511.655 323.344C506.708 323.344 502.055 321.415 498.533 317.91C496.807 316.191 495.439 314.147 494.509 311.896C493.579 309.645 493.104 307.232 493.112 304.796C493.118 299.879 495.073 295.164 498.55 291.686C502.027 288.208 506.742 286.251 511.659 286.245V286.253ZM579.003 289.934C569.738 289.934 564.866 294.994 564.866 304.641C564.866 314.242 569.268 319.441 578.953 319.441C583.397 319.441 587.753 318.309 590.117 316.653V302.75H578.63V308.092H584.017V313.102C583.024 313.479 581.083 313.86 579.238 313.86C573.285 313.86 571.297 310.833 571.297 304.687C571.297 298.826 573.184 295.372 579.146 295.372C582.458 295.372 584.344 296.411 585.908 298.399L590.025 294.617C587.518 291.024 583.12 289.934 578.999 289.934H579.003ZM543.732 290.362V319.013H564.065V313.437H550.356V290.357L543.732 290.362ZM504.583 295.07C505.289 295.07 505.966 295.35 506.465 295.85C506.964 296.349 507.245 297.026 507.245 297.732C507.245 298.438 506.964 299.115 506.465 299.614C505.966 300.114 505.289 300.394 504.583 300.394C503.877 300.394 503.199 300.114 502.7 299.614C502.201 299.115 501.92 298.438 501.92 297.732C501.92 297.026 502.201 296.349 502.7 295.85C503.199 295.35 503.877 295.07 504.583 295.07ZM510.779 295.078H512.54V312.77H516.95V314.506H510.779V295.078Z" fill="#A9A9B9"/>
</g>
</g>
<g filter="url(#filter6_d_2112_3841)">
<rect x="25.5" y="431.5" width="152" height="152" rx="76" fill="white"/>
<g clip-path="url(#clip4_2112_3841)">
<path d="M73.6595 485.647C67.7819 485.647 62.145 487.982 57.989 492.138C53.8329 496.294 51.498 501.931 51.498 507.809C51.498 513.686 53.8329 519.323 57.989 523.479C62.145 527.635 67.7819 529.97 73.6595 529.97C79.4624 529.857 84.9895 527.473 89.0535 523.329C93.1175 519.185 95.394 513.613 95.394 507.809C95.394 502.005 93.1175 496.432 89.0535 492.289C84.9895 488.145 79.4624 485.76 73.6595 485.647ZM73.6595 489.253C73.8691 489.253 74.3135 489.253 74.5399 489.261V490.993C74.2464 490.987 73.953 490.982 73.6595 490.98C71.4504 490.975 69.2621 491.407 67.2213 492.253C65.1804 493.098 63.3275 494.34 61.7696 495.906C60.2026 497.464 58.9603 499.317 58.1147 501.358C57.2691 503.399 56.837 505.587 56.8434 507.796C56.8434 512.291 58.5917 516.517 61.7696 519.686C63.3275 521.252 65.1804 522.494 67.2213 523.34C69.2621 524.185 71.4504 524.618 73.6595 524.612C77.9222 524.604 82.0236 522.982 85.1377 520.072C88.2518 517.162 90.1471 513.18 90.4419 508.928V508.677H78.9629V506.958H91.4607L92.2028 506.954V507.796C92.2105 510.232 91.735 512.646 90.8038 514.897C89.8726 517.148 88.5041 519.192 86.7777 520.91C85.0579 522.638 83.0128 524.008 80.7604 524.941C78.508 525.873 76.0931 526.35 73.6553 526.344C68.7081 526.344 64.0545 524.415 60.5328 520.91C58.8071 519.191 57.4395 517.147 56.509 514.896C55.5785 512.645 55.1037 510.232 55.112 507.796C55.1175 502.879 57.0733 498.164 60.5503 494.686C64.0273 491.208 68.7417 489.251 73.6595 489.245V489.253ZM141.003 492.934C131.738 492.934 126.866 497.994 126.866 507.641C126.866 517.242 131.268 522.441 140.953 522.441C145.397 522.441 149.753 521.309 152.117 519.653V505.75H140.63V511.092H146.017V516.102C145.024 516.479 143.083 516.86 141.238 516.86C135.285 516.86 133.297 513.833 133.297 507.687C133.297 501.826 135.184 498.372 141.146 498.372C144.458 498.372 146.344 499.411 147.908 501.399L152.025 497.617C149.518 494.024 145.12 492.934 140.999 492.934H141.003ZM105.732 493.362V522.013H126.065V516.437H112.356V493.357L105.732 493.362ZM66.5826 498.07C67.2886 498.07 67.9658 498.35 68.465 498.85C68.9643 499.349 69.2448 500.026 69.2448 500.732C69.2448 501.438 68.9643 502.115 68.465 502.614C67.9658 503.114 67.2886 503.394 66.5826 503.394C65.8765 503.394 65.1994 503.114 64.7001 502.614C64.2008 502.115 63.9203 501.438 63.9203 500.732C63.9203 500.026 64.2008 499.349 64.7001 498.85C65.1994 498.35 65.8765 498.07 66.5826 498.07ZM72.779 498.078H74.5399V515.77H78.9504V517.506H72.779V498.078Z" fill="#A9A9B9"/>
</g>
</g>
<g filter="url(#filter7_d_2112_3841)">
<rect x="244.5" y="431.5" width="152" height="152" rx="76" fill="white"/>
<g clip-path="url(#clip5_2112_3841)">
<path d="M305.263 498.172C309.33 498.172 312.585 499.188 315.072 501.449C316.772 502.991 317.722 505.186 317.695 507.487C317.689 508.622 317.454 509.745 317.003 510.787C316.552 511.829 315.895 512.769 315.072 513.551C312.744 515.689 309.118 516.828 305.267 516.828C301.411 516.828 297.847 515.689 295.484 513.551C294.632 512.79 293.953 511.854 293.494 510.808C293.035 509.762 292.805 508.629 292.821 507.487C292.821 505.199 293.784 503.004 295.484 501.449C297.692 499.444 301.597 498.172 305.263 498.172ZM305.276 514.381C307.312 514.381 309.198 513.67 310.523 512.358C311.848 511.033 312.435 509.443 312.435 507.487C312.435 505.614 311.782 503.861 310.523 502.615C309.224 501.334 307.285 500.606 305.276 500.606C303.266 500.606 301.332 501.33 300.02 502.615C298.761 503.861 298.103 505.614 298.103 507.487C298.076 509.3 298.765 511.05 300.02 512.358C301.332 513.657 303.257 514.381 305.276 514.381ZM283.895 505.689C284.601 505.875 285.286 506.104 285.953 506.409C286.572 506.691 287.138 507.076 287.627 507.549C288.497 508.459 288.992 509.678 288.978 510.932C288.988 511.597 288.841 512.255 288.551 512.853C288.26 513.451 287.833 513.973 287.304 514.377C286.369 515.086 285.306 515.608 284.173 515.914C282.468 516.449 280.686 516.703 278.899 516.665C277.345 516.665 276.488 516.484 275.309 516.236L274.969 516.166C273.669 515.878 272.4 515.467 271.179 514.938C271.124 514.901 271.059 514.882 270.994 514.885C270.897 514.887 270.805 514.927 270.737 514.997C270.669 515.066 270.631 515.159 270.631 515.256V516.152H268.034V509.625H270.349C270.363 510.286 270.574 510.929 270.954 511.471C271.89 512.619 272.897 513.061 273.856 513.414C275.477 513.944 277.177 514.227 278.873 514.28C281.315 514.28 282.742 513.688 283.051 513.56L283.091 513.542L283.117 513.533C283.391 513.432 284.495 513.03 284.495 511.802C284.495 510.592 283.462 510.327 282.786 510.155L282.689 510.132C281.938 509.929 280.207 509.744 278.316 509.545L277.645 509.474C275.872 509.294 274.108 509.036 272.358 508.701C270.159 508.216 269.293 507.412 268.754 506.913L268.719 506.877C267.934 506.04 267.497 504.934 267.5 503.786C267.5 501.595 269.002 500.27 270.843 499.457C272.813 498.574 275.154 498.181 277.203 498.181C280.825 498.194 283.771 499.373 284.831 499.921C285.259 500.151 285.471 499.868 285.471 499.656V498.998H287.799V504.687H285.714C285.527 503.843 285.072 503.082 284.416 502.518C284.016 502.197 283.575 501.931 283.104 501.728C281.357 500.99 279.476 500.621 277.579 500.645C275.622 500.645 273.75 501.021 272.809 501.595C272.226 501.957 271.926 502.412 271.926 502.947C271.926 503.711 272.57 504.015 272.897 504.108C273.763 504.373 275.689 504.563 277.186 504.713L278.087 504.806C279.531 504.952 282.556 505.354 283.895 505.689ZM364.132 501.286V499.17H373.5V501.246H371.398C370.638 501.246 370.329 501.392 369.755 502.037L363.452 509.236C363.386 509.324 363.356 509.435 363.368 509.545V512.822C363.379 512.975 363.396 513.126 363.421 513.277C363.459 513.373 363.518 513.459 363.595 513.528C363.672 513.597 363.763 513.647 363.863 513.675C364.053 513.703 364.245 513.717 364.437 513.719H366.584V515.795H355.215V513.719H357.247C357.439 513.717 357.631 513.703 357.821 513.675C357.922 513.646 358.015 513.595 358.094 513.527C358.174 513.458 358.237 513.373 358.28 513.277C358.307 513.131 358.32 512.984 358.32 512.835V509.558C358.32 509.448 358.32 509.448 358.174 509.276C356.1 506.912 354.021 504.552 351.938 502.196C351.602 501.847 351.028 501.286 350.145 501.286H348.122V499.21H359.552V501.286H358.174C357.865 501.286 357.653 501.595 357.918 501.931L361.8 506.573C361.84 506.626 361.867 506.626 361.92 506.586C361.973 506.546 365.868 501.97 365.895 501.931C365.927 501.888 365.95 501.84 365.963 501.789C365.977 501.738 365.98 501.684 365.973 501.631C365.965 501.579 365.947 501.528 365.92 501.483C365.893 501.437 365.858 501.397 365.815 501.365C365.736 501.314 365.644 501.286 365.55 501.286H364.132ZM336.378 501.273H338.52C339.496 501.273 339.668 501.648 339.682 502.558L339.805 509.474L328.401 499.21H320.253V501.286H322.072C323.384 501.286 323.477 502.01 323.477 502.655V512.429C323.477 512.994 323.481 513.732 322.673 513.732H320.438V515.795H329.996V513.719H327.664C326.728 513.719 326.692 513.29 326.675 512.381V504.068L339.805 515.777H343.149L342.972 502.545C342.99 501.582 343.056 501.259 344.045 501.259H346.134V499.184H336.378V501.273Z" fill="#A9A9B9"/>
</g>
</g>
<g filter="url(#filter8_d_2112_3841)">
<rect x="463.5" y="431.5" width="152" height="152" rx="76" fill="white"/>
<g clip-path="url(#clip6_2112_3841)">
<path d="M524.263 498.172C528.33 498.172 531.585 499.188 534.072 501.449C535.772 502.991 536.722 505.186 536.695 507.487C536.689 508.622 536.454 509.745 536.003 510.787C535.552 511.829 534.895 512.769 534.072 513.551C531.744 515.689 528.118 516.828 524.267 516.828C520.411 516.828 516.847 515.689 514.484 513.551C513.632 512.79 512.953 511.854 512.494 510.808C512.035 509.762 511.805 508.629 511.821 507.487C511.821 505.199 512.784 503.004 514.484 501.449C516.692 499.444 520.597 498.172 524.263 498.172ZM524.276 514.381C526.312 514.381 528.198 513.67 529.523 512.358C530.848 511.033 531.435 509.443 531.435 507.487C531.435 505.614 530.782 503.861 529.523 502.615C528.224 501.334 526.285 500.606 524.276 500.606C522.266 500.606 520.332 501.33 519.02 502.615C517.761 503.861 517.103 505.614 517.103 507.487C517.076 509.3 517.765 511.05 519.02 512.358C520.332 513.657 522.257 514.381 524.276 514.381ZM502.895 505.689C503.601 505.875 504.286 506.104 504.953 506.409C505.572 506.691 506.138 507.076 506.627 507.549C507.497 508.459 507.992 509.678 507.978 510.932C507.988 511.597 507.841 512.255 507.551 512.853C507.26 513.451 506.833 513.973 506.304 514.377C505.369 515.086 504.306 515.608 503.173 515.914C501.468 516.449 499.686 516.703 497.899 516.665C496.345 516.665 495.488 516.484 494.309 516.236L493.969 516.166C492.669 515.878 491.4 515.467 490.179 514.938C490.124 514.901 490.059 514.882 489.994 514.885C489.897 514.887 489.805 514.927 489.737 514.997C489.669 515.066 489.631 515.159 489.631 515.256V516.152H487.034V509.625H489.349C489.363 510.286 489.574 510.929 489.954 511.471C490.89 512.619 491.897 513.061 492.856 513.414C494.477 513.944 496.177 514.227 497.873 514.28C500.315 514.28 501.742 513.688 502.051 513.56L502.091 513.542L502.117 513.533C502.391 513.432 503.495 513.03 503.495 511.802C503.495 510.592 502.462 510.327 501.786 510.155L501.689 510.132C500.938 509.929 499.207 509.744 497.316 509.545L496.645 509.474C494.872 509.294 493.108 509.036 491.358 508.701C489.159 508.216 488.293 507.412 487.754 506.913L487.719 506.877C486.934 506.04 486.497 504.934 486.5 503.786C486.5 501.595 488.002 500.27 489.843 499.457C491.813 498.574 494.154 498.181 496.203 498.181C499.825 498.194 502.771 499.373 503.831 499.921C504.259 500.151 504.471 499.868 504.471 499.656V498.998H506.799V504.687H504.714C504.527 503.843 504.072 503.082 503.416 502.518C503.016 502.197 502.575 501.931 502.104 501.728C500.357 500.99 498.476 500.621 496.579 500.645C494.622 500.645 492.75 501.021 491.809 501.595C491.226 501.957 490.926 502.412 490.926 502.947C490.926 503.711 491.57 504.015 491.897 504.108C492.763 504.373 494.689 504.563 496.186 504.713L497.087 504.806C498.531 504.952 501.556 505.354 502.895 505.689ZM583.132 501.286V499.17H592.5V501.246H590.398C589.638 501.246 589.329 501.392 588.755 502.037L582.452 509.236C582.386 509.324 582.356 509.435 582.368 509.545V512.822C582.379 512.975 582.396 513.126 582.421 513.277C582.459 513.373 582.518 513.459 582.595 513.528C582.672 513.597 582.763 513.647 582.863 513.675C583.053 513.703 583.245 513.717 583.437 513.719H585.584V515.795H574.215V513.719H576.247C576.439 513.717 576.631 513.703 576.821 513.675C576.922 513.646 577.015 513.595 577.094 513.527C577.174 513.458 577.237 513.373 577.28 513.277C577.307 513.131 577.32 512.984 577.32 512.835V509.558C577.32 509.448 577.32 509.448 577.174 509.276C575.1 506.912 573.021 504.552 570.938 502.196C570.602 501.847 570.028 501.286 569.145 501.286H567.122V499.21H578.552V501.286H577.174C576.865 501.286 576.653 501.595 576.918 501.931L580.8 506.573C580.84 506.626 580.867 506.626 580.92 506.586C580.973 506.546 584.868 501.97 584.895 501.931C584.927 501.888 584.95 501.84 584.963 501.789C584.977 501.738 584.98 501.684 584.973 501.631C584.965 501.579 584.947 501.528 584.92 501.483C584.893 501.437 584.858 501.397 584.815 501.365C584.736 501.314 584.644 501.286 584.55 501.286H583.132ZM555.378 501.273H557.52C558.496 501.273 558.668 501.648 558.682 502.558L558.805 509.474L547.401 499.21H539.253V501.286H541.072C542.384 501.286 542.477 502.01 542.477 502.655V512.429C542.477 512.994 542.481 513.732 541.673 513.732H539.438V515.795H548.996V513.719H546.664C545.728 513.719 545.692 513.29 545.675 512.381V504.068L558.805 515.777H562.149L561.972 502.545C561.99 501.582 562.056 501.259 563.045 501.259H565.134V499.184H555.378V501.273Z" fill="#A9A9B9"/>
</g>
</g>
<defs>
<filter id="filter0_d_2112_3841" x="0.5" y="0.5" width="202" height="202" filterUnits="userSpaceOnUse" color-interpolation-filters="sRGB">
<feFlood flood-opacity="0" result="BackgroundImageFix"/>
<feColorMatrix in="SourceAlpha" type="matrix" values="0 0 0 0 0 0 0 0 0 0 0 0 0 0 0 0 0 0 127 0" result="hardAlpha"/>
<feMorphology radius="5" operator="dilate" in="SourceAlpha" result="effect1_dropShadow_2112_3841"/>
<feOffset/>
<feGaussianBlur stdDeviation="10"/>
<feComposite in2="hardAlpha" operator="out"/>
<feColorMatrix type="matrix" values="0 0 0 0 0 0 0 0 0 0 0 0 0 0 0 0 0 0 0.07 0"/>
<feBlend mode="normal" in2="BackgroundImageFix" result="effect1_dropShadow_2112_3841"/>
<feBlend mode="normal" in="SourceGraphic" in2="effect1_dropShadow_2112_3841" result="shape"/>
</filter>
<filter id="filter1_d_2112_3841" x="219.5" y="0.5" width="202" height="202" filterUnits="userSpaceOnUse" color-interpolation-filters="sRGB">
<feFlood flood-opacity="0" result="BackgroundImageFix"/>
<feColorMatrix in="SourceAlpha" type="matrix" values="0 0 0 0 0 0 0 0 0 0 0 0 0 0 0 0 0 0 127 0" result="hardAlpha"/>
<feMorphology radius="5" operator="dilate" in="SourceAlpha" result="effect1_dropShadow_2112_3841"/>
<feOffset/>
<feGaussianBlur stdDeviation="10"/>
<feComposite in2="hardAlpha" operator="out"/>
<feColorMatrix type="matrix" values="0 0 0 0 0 0 0 0 0 0 0 0 0 0 0 0 0 0 0.07 0"/>
<feBlend mode="normal" in2="BackgroundImageFix" result="effect1_dropShadow_2112_3841"/>
<feBlend mode="normal" in="SourceGraphic" in2="effect1_dropShadow_2112_3841" result="shape"/>
</filter>
<filter id="filter2_d_2112_3841" x="438.5" y="0.5" width="202" height="202" filterUnits="userSpaceOnUse" color-interpolation-filters="sRGB">
<feFlood flood-opacity="0" result="BackgroundImageFix"/>
<feColorMatrix in="SourceAlpha" type="matrix" values="0 0 0 0 0 0 0 0 0 0 0 0 0 0 0 0 0 0 127 0" result="hardAlpha"/>
<feMorphology radius="5" operator="dilate" in="SourceAlpha" result="effect1_dropShadow_2112_3841"/>
<feOffset/>
<feGaussianBlur stdDeviation="10"/>
<feComposite in2="hardAlpha" operator="out"/>
<feColorMatrix type="matrix" values="0 0 0 0 0 0 0 0 0 0 0 0 0 0 0 0 0 0 0.07 0"/>
<feBlend mode="normal" in2="BackgroundImageFix" result="effect1_dropShadow_2112_3841"/>
<feBlend mode="normal" in="SourceGraphic" in2="effect1_dropShadow_2112_3841" result="shape"/>
</filter>
<filter id="filter3_d_2112_3841" x="0.5" y="203.5" width="202" height="202" filterUnits="userSpaceOnUse" color-interpolation-filters="sRGB">
<feFlood flood-opacity="0" result="BackgroundImageFix"/>
<feColorMatrix in="SourceAlpha" type="matrix" values="0 0 0 0 0 0 0 0 0 0 0 0 0 0 0 0 0 0 127 0" result="hardAlpha"/>
<feMorphology radius="5" operator="dilate" in="SourceAlpha" result="effect1_dropShadow_2112_3841"/>
<feOffset/>
<feGaussianBlur stdDeviation="10"/>
<feComposite in2="hardAlpha" operator="out"/>
<feColorMatrix type="matrix" values="0 0 0 0 0 0 0 0 0 0 0 0 0 0 0 0 0 0 0.07 0"/>
<feBlend mode="normal" in2="BackgroundImageFix" result="effect1_dropShadow_2112_3841"/>
<feBlend mode="normal" in="SourceGraphic" in2="effect1_dropShadow_2112_3841" result="shape"/>
</filter>
<filter id="filter4_d_2112_3841" x="219.5" y="203.5" width="202" height="202" filterUnits="userSpaceOnUse" color-interpolation-filters="sRGB">
<feFlood flood-opacity="0" result="BackgroundImageFix"/>
<feColorMatrix in="SourceAlpha" type="matrix" values="0 0 0 0 0 0 0 0 0 0 0 0 0 0 0 0 0 0 127 0" result="hardAlpha"/>
<feMorphology radius="5" operator="dilate" in="SourceAlpha" result="effect1_dropShadow_2112_3841"/>
<feOffset/>
<feGaussianBlur stdDeviation="10"/>
<feComposite in2="hardAlpha" operator="out"/>
<feColorMatrix type="matrix" values="0 0 0 0 0 0 0 0 0 0 0 0 0 0 0 0 0 0 0.07 0"/>
<feBlend mode="normal" in2="BackgroundImageFix" result="effect1_dropShadow_2112_3841"/>
<feBlend mode="normal" in="SourceGraphic" in2="effect1_dropShadow_2112_3841" result="shape"/>
</filter>
<filter id="filter5_d_2112_3841" x="438.5" y="203.5" width="202" height="202" filterUnits="userSpaceOnUse" color-interpolation-filters="sRGB">
<feFlood flood-opacity="0" result="BackgroundImageFix"/>
<feColorMatrix in="SourceAlpha" type="matrix" values="0 0 0 0 0 0 0 0 0 0 0 0 0 0 0 0 0 0 127 0" result="hardAlpha"/>
<feMorphology radius="5" operator="dilate" in="SourceAlpha" result="effect1_dropShadow_2112_3841"/>
<feOffset/>
<feGaussianBlur stdDeviation="10"/>
<feComposite in2="hardAlpha" operator="out"/>
<feColorMatrix type="matrix" values="0 0 0 0 0 0 0 0 0 0 0 0 0 0 0 0 0 0 0.07 0"/>
<feBlend mode="normal" in2="BackgroundImageFix" result="effect1_dropShadow_2112_3841"/>
<feBlend mode="normal" in="SourceGraphic" in2="effect1_dropShadow_2112_3841" result="shape"/>
</filter>
<filter id="filter6_d_2112_3841" x="0.5" y="406.5" width="202" height="202" filterUnits="userSpaceOnUse" color-interpolation-filters="sRGB">
<feFlood flood-opacity="0" result="BackgroundImageFix"/>
<feColorMatrix in="SourceAlpha" type="matrix" values="0 0 0 0 0 0 0 0 0 0 0 0 0 0 0 0 0 0 127 0" result="hardAlpha"/>
<feMorphology radius="5" operator="dilate" in="SourceAlpha" result="effect1_dropShadow_2112_3841"/>
<feOffset/>
<feGaussianBlur stdDeviation="10"/>
<feComposite in2="hardAlpha" operator="out"/>
<feColorMatrix type="matrix" values="0 0 0 0 0 0 0 0 0 0 0 0 0 0 0 0 0 0 0.07 0"/>
<feBlend mode="normal" in2="BackgroundImageFix" result="effect1_dropShadow_2112_3841"/>
<feBlend mode="normal" in="SourceGraphic" in2="effect1_dropShadow_2112_3841" result="shape"/>
</filter>
<filter id="filter7_d_2112_3841" x="219.5" y="406.5" width="202" height="202" filterUnits="userSpaceOnUse" color-interpolation-filters="sRGB">
<feFlood flood-opacity="0" result="BackgroundImageFix"/>
<feColorMatrix in="SourceAlpha" type="matrix" values="0 0 0 0 0 0 0 0 0 0 0 0 0 0 0 0 0 0 127 0" result="hardAlpha"/>
<feMorphology radius="5" operator="dilate" in="SourceAlpha" result="effect1_dropShadow_2112_3841"/>
<feOffset/>
<feGaussianBlur stdDeviation="10"/>
<feComposite in2="hardAlpha" operator="out"/>
<feColorMatrix type="matrix" values="0 0 0 0 0 0 0 0 0 0 0 0 0 0 0 0 0 0 0.07 0"/>
<feBlend mode="normal" in2="BackgroundImageFix" result="effect1_dropShadow_2112_3841"/>
<feBlend mode="normal" in="SourceGraphic" in2="effect1_dropShadow_2112_3841" result="shape"/>
</filter>
<filter id="filter8_d_2112_3841" x="438.5" y="406.5" width="202" height="202" filterUnits="userSpaceOnUse" color-interpolation-filters="sRGB">
<feFlood flood-opacity="0" result="BackgroundImageFix"/>
<feColorMatrix in="SourceAlpha" type="matrix" values="0 0 0 0 0 0 0 0 0 0 0 0 0 0 0 0 0 0 127 0" result="hardAlpha"/>
<feMorphology radius="5" operator="dilate" in="SourceAlpha" result="effect1_dropShadow_2112_3841"/>
<feOffset/>
<feGaussianBlur stdDeviation="10"/>
<feComposite in2="hardAlpha" operator="out"/>
<feColorMatrix type="matrix" values="0 0 0 0 0 0 0 0 0 0 0 0 0 0 0 0 0 0 0.07 0"/>
<feBlend mode="normal" in2="BackgroundImageFix" result="effect1_dropShadow_2112_3841"/>
<feBlend mode="normal" in="SourceGraphic" in2="effect1_dropShadow_2112_3841" result="shape"/>
</filter>
<clipPath id="clip0_2112_3841">
<rect width="115" height="115" fill="white" transform="translate(43.5 43.5)"/>
</clipPath>
<clipPath id="clip1_2112_3841">
<rect width="132.114" height="28.3838" fill="white" transform="translate(254.5 87.5)"/>
</clipPath>
<clipPath id="clip2_2112_3841">
<rect width="126" height="41.3438" fill="white" transform="translate(476.5 80.5)"/>
</clipPath>
<clipPath id="clip3_2112_3841">
<rect width="100.619" height="100.619" fill="white" transform="translate(489.5 254.5)"/>
</clipPath>
<clipPath id="clip4_2112_3841">
<rect width="100.619" height="100.619" fill="white" transform="translate(51.5 457.5)"/>
</clipPath>
<clipPath id="clip5_2112_3841">
<rect width="106" height="106" fill="white" transform="translate(267.5 454.5)"/>
</clipPath>
<clipPath id="clip6_2112_3841">
<rect width="106" height="106" fill="white" transform="translate(486.5 454.5)"/>
</clipPath>
</defs>
</svg>
