<svg width="22" height="22" viewBox="0 0 22 22" fill="none" xmlns="http://www.w3.org/2000/svg">
<path d="M8 10.9686V4C8 2.34315 9.34315 1 11 1C12.6568 1 14 2.34315 14 4V5.00285" stroke="url(#paint0_linear_3378_6560)" stroke-width="2" stroke-linecap="round"/>
<path d="M14 11.0015V17.9997C14 19.6566 12.6568 20.9997 11 20.9997C9.34315 20.9997 8 19.6566 8 17.9997V16.9847" stroke="url(#paint1_linear_3378_6560)" stroke-width="2" stroke-linecap="round"/>
<path d="M11 14H3.99207C2.33959 14 1 12.6568 1 11C1 9.34315 2.33959 8 3.99207 8H4.9943" stroke="url(#paint2_linear_3378_6560)" stroke-width="2" stroke-linecap="round"/>
<path d="M11 8H17.9944C19.6544 8 21 9.34315 21 11C21 12.6568 19.6544 14 17.9944 14H17.0331" stroke="url(#paint3_linear_3378_6560)" stroke-width="2" stroke-linecap="round"/>
<defs>
<linearGradient id="paint0_linear_3378_6560" x1="11" y1="1" x2="11" y2="10.9686" gradientUnits="userSpaceOnUse">
<stop stop-color="#E45E14"/>
<stop offset="1" stop-color="#CA2323"/>
</linearGradient>
<linearGradient id="paint1_linear_3378_6560" x1="11" y1="11.0015" x2="11" y2="20.9997" gradientUnits="userSpaceOnUse">
<stop stop-color="#E45E14"/>
<stop offset="1" stop-color="#CA2323"/>
</linearGradient>
<linearGradient id="paint2_linear_3378_6560" x1="6" y1="8" x2="6" y2="14" gradientUnits="userSpaceOnUse">
<stop stop-color="#E45E14"/>
<stop offset="1" stop-color="#CA2323"/>
</linearGradient>
<linearGradient id="paint3_linear_3378_6560" x1="16" y1="8" x2="16" y2="14" gradientUnits="userSpaceOnUse">
<stop stop-color="#E45E14"/>
<stop offset="1" stop-color="#CA2323"/>
</linearGradient>
</defs>
</svg>
