<svg width="68" height="68" viewBox="0 0 68 68" fill="none" xmlns="http://www.w3.org/2000/svg">
<g clip-path="url(#clip0_2104_2914)">
<path d="M21.5387 12.1677C14.0602 16.3824 11.4085 25.9056 15.633 33.3785C18.4414 38.3463 23.5712 41.1765 28.8914 41.279C29.8361 41.2972 30.6984 41.8219 31.1634 42.6446L33.0283 45.9435C33.1284 45.8146 33.255 45.7029 33.4059 45.6176L44.0428 39.6046C44.1938 39.5193 44.3548 39.4684 44.5168 39.4491L42.6519 36.1501C42.1814 35.3178 42.1937 34.3017 42.6692 33.4722C45.3099 28.8651 45.5239 23.0239 42.7211 18.0657C38.496 10.5913 29.0161 7.9536 21.5387 12.1677Z" fill="#FFE181"/>
<path d="M34.743 40.621C34.278 39.7985 33.4158 39.2737 32.471 39.2555C27.1508 39.1529 22.021 36.3227 19.2127 31.355C15.3339 24.4937 17.2525 15.9047 23.3807 11.2823C22.7563 11.5339 22.141 11.8283 21.5387 12.1676C14.0603 16.3823 11.4085 25.9055 15.633 33.3785C18.4414 38.3463 23.5712 41.1765 28.8914 41.279C29.8362 41.2972 30.6984 41.822 31.1634 42.6446L33.0283 45.9435C33.1284 45.8146 33.255 45.7029 33.4059 45.6176L36.5597 43.8348L34.743 40.621Z" fill="#CA2323"/>
<path d="M40.7883 42.3015C40.4296 42.5043 39.9744 42.3779 39.7716 42.0192L36.4856 36.2062C36.1553 35.622 36.0263 34.9346 36.1219 34.2704L36.3712 32.5416C36.42 32.2024 36.3541 31.8513 36.1855 31.553L32.7562 25.4866C32.5534 25.1279 32.6799 24.6728 33.0386 24.47C33.3973 24.2672 33.8525 24.3936 34.0552 24.7523L37.4845 30.8187C37.8147 31.4028 37.9438 32.0903 37.8481 32.7545L37.5989 34.4833C37.55 34.8226 37.6159 35.1735 37.7846 35.4719L41.0706 41.2849C41.2734 41.6436 41.147 42.0988 40.7883 42.3015Z" fill="#FFB640"/>
<path d="M37.3952 44.2197C37.0365 44.4225 36.5813 44.296 36.3785 43.9373L33.0925 38.1244C32.9239 37.8261 32.657 37.5886 32.3412 37.4555L30.7314 36.7776C30.1131 36.5172 29.5905 36.052 29.2603 35.4678L25.831 29.4015C25.6282 29.0427 25.7547 28.5876 26.1134 28.3848C26.4721 28.182 26.9273 28.3084 27.13 28.6671L30.5593 34.7335C30.728 35.0318 30.9948 35.2693 31.3105 35.4023L32.9203 36.0801C33.5388 36.3406 34.0613 36.8059 34.3915 37.39L37.6775 43.2029C37.8803 43.5617 37.7539 44.0169 37.3952 44.2197Z" fill="#FFB640"/>
<path d="M37.1265 17.7291C34.9429 15.5071 31.899 14.3378 28.7754 14.5211C28.3641 14.5452 28.011 14.2312 27.9869 13.82C27.9627 13.4087 28.2768 13.0556 28.6879 13.0315C32.2416 12.8229 35.7053 14.1539 38.1908 16.6831C38.4796 16.977 38.4754 17.4495 38.1816 17.7383C37.8879 18.027 37.4154 18.0232 37.1265 17.7291Z" fill="#FFEAC8"/>
<path d="M41.4785 53.6045L41.7475 54.0803C42.563 55.5229 44.4106 56.0361 45.8532 55.2206C47.2958 54.4051 47.8089 52.5576 46.9933 51.1149L46.7244 50.6391L41.4785 53.6045Z" fill="#8479C2"/>
<path d="M44.0955 52.753L43.8265 52.2772L41.4785 53.6045L41.7475 54.0803C42.563 55.5229 44.4106 56.0361 45.8532 55.2206C46.2746 54.9824 46.6161 54.6557 46.8689 54.277C45.7672 54.3288 44.6728 53.7742 44.0955 52.753Z" fill="#6E60B8"/>
<path d="M34.8289 26.1226L26.6055 30.7712C26.2468 30.974 25.7916 30.8476 25.5888 30.4889C25.3861 30.1301 25.5125 29.675 25.8712 29.4722L34.0946 24.8235C34.4533 24.6208 34.9085 24.7472 35.1113 25.1059C35.3141 25.4646 35.1877 25.9198 34.8289 26.1226Z" fill="#CA2323"/>
<path d="M12.6544 35.4622L10.42 36.7253C10.0612 36.9281 9.60608 36.8017 9.4033 36.443C9.20051 36.0842 9.32692 35.6291 9.68564 35.4263L11.9201 34.1632C12.2788 33.9604 12.734 34.0868 12.9368 34.4455C13.1395 34.8042 13.0131 35.2594 12.6544 35.4622Z" fill="#CA2323"/>
<path d="M10.9619 30.9797L8.42466 31.3678C8.01736 31.4301 7.63659 31.1504 7.5743 30.7431C7.51209 30.3357 7.79175 29.9552 8.19904 29.8927L10.7363 29.5046C11.1436 29.4423 11.5244 29.7221 11.5867 30.1293C11.6489 30.5363 11.3696 30.9171 10.9619 30.9797Z" fill="#CA2323"/>
<path d="M13.3436 40.9488C13.0268 40.6854 12.9835 40.215 13.2469 39.8981L14.8878 37.9243C15.151 37.6076 15.6216 37.5641 15.9385 37.8275C16.2554 38.0909 16.2987 38.5614 16.0353 38.8783L14.3944 40.8521C14.1309 41.169 13.6606 41.2123 13.3436 40.9488Z" fill="#CA2323"/>
<path d="M48.2775 15.3243L46.043 16.5874C45.6843 16.7902 45.2291 16.6637 45.0263 16.305C44.8236 15.9463 44.95 15.4911 45.3087 15.2884L47.5431 14.0252C47.9018 13.8225 48.357 13.9489 48.5598 14.3076C48.7625 14.6662 48.6362 15.1215 48.2775 15.3243Z" fill="#CA2323"/>
<path d="M42.0243 12.9227C41.7074 12.6593 41.6641 12.1888 41.9275 11.8719L43.5684 9.89816C43.8317 9.58149 44.3023 9.5379 44.6192 9.80138C44.936 10.0648 44.9793 10.5353 44.7159 10.8521L43.0752 12.8259C42.8115 13.1428 42.3413 13.1861 42.0243 12.9227Z" fill="#CA2323"/>
<path d="M49.7637 20.8577L47.2265 21.2458C46.8192 21.3081 46.4384 21.0284 46.3761 20.6211C46.3139 20.2137 46.5935 19.833 47.0008 19.7707L49.5381 19.3826C49.9454 19.3203 50.3262 19.6 50.3885 20.0073C50.4506 20.4144 50.1713 20.7951 49.7637 20.8577Z" fill="#CA2323"/>
<path d="M46.7497 46.4127L37.8439 51.4471C37.2224 51.7984 37.0026 52.5898 37.3539 53.2112L37.8962 54.1706C38.2475 54.7921 39.0389 55.0118 39.6604 54.6605L48.5663 49.6261C49.1877 49.2748 49.4075 48.4834 49.0562 47.862L48.5139 46.9026C48.1626 46.2811 47.3712 46.0614 46.7497 46.4127Z" fill="#EFECEF"/>
<path d="M47.6579 48.0195L38.7521 53.0539C38.2432 53.3416 37.6206 53.2458 37.2188 52.8606C37.246 52.9807 37.2903 53.0989 37.3539 53.2114L37.8962 54.1707C38.2475 54.7922 39.0389 55.0119 39.6604 54.6606L48.5663 49.6262C49.1877 49.2749 49.4075 48.4835 49.0562 47.8621L48.5139 46.9027C48.4502 46.7901 48.3718 46.6912 48.283 46.6061C48.4058 47.149 48.1669 47.7318 47.6579 48.0195Z" fill="#E2DFE2"/>
<path d="M45.8226 42.7532L35.1856 48.7662C34.5642 49.1175 34.3444 49.9089 34.6957 50.5303L35.238 51.4897C35.5894 52.1112 36.3807 52.331 37.0022 51.9797L47.6392 45.9667C48.2607 45.6153 48.4805 44.824 48.1292 44.2024L47.5868 43.2431C47.2355 42.6216 46.4441 42.4019 45.8226 42.7532Z" fill="#EFECEF"/>
<path d="M46.731 44.36L36.094 50.3731C35.585 50.6608 34.9625 50.565 34.5606 50.1797C34.5878 50.2998 34.6321 50.418 34.6957 50.5304L35.238 51.4898C35.5893 52.1113 36.3807 52.3311 37.0021 51.9798L47.6392 45.9668C48.2607 45.6155 48.4805 44.8241 48.1291 44.2026L47.5868 43.2432C47.5232 43.1306 47.4448 43.0318 47.3559 42.9466C47.4789 43.4895 47.2399 44.0723 46.731 44.36Z" fill="#E2DFE2"/>
<path d="M44.0306 39.583L33.3936 45.5961C32.7722 45.9474 32.5524 46.7387 32.9037 47.3603L33.4461 48.3196C33.7974 48.9411 34.5888 49.1608 35.2102 48.8096L45.8472 42.7965C46.4687 42.4452 46.6885 41.6538 46.3372 41.0324L45.7949 40.073C45.4435 39.4515 44.6522 39.2317 44.0306 39.583Z" fill="#EFECEF"/>
<path d="M44.939 41.1898L34.3019 47.2028C33.793 47.4905 33.1704 47.3947 32.7686 47.0095C32.7958 47.1296 32.8401 47.2478 32.9037 47.3603L33.446 48.3197C33.7973 48.9411 34.5887 49.1609 35.2101 48.8096L45.8471 42.7965C46.4686 42.4452 46.6884 41.6538 46.3371 41.0324L45.7948 40.073C45.7312 39.9604 45.6528 39.8616 45.5639 39.7764C45.6869 40.3193 45.4479 40.9021 44.939 41.1898Z" fill="#E2DFE2"/>
</g>
<defs>
<clipPath id="clip0_2104_2914">
<rect width="49.444" height="49.444" fill="white" transform="translate(0 24.3438) rotate(-29.4792)"/>
</clipPath>
</defs>
</svg>
