<svg width="20" height="20" viewBox="0 0 20 20" fill="none" xmlns="http://www.w3.org/2000/svg">
<path d="M12.7083 15.625C12.875 15.625 13.0208 15.5625 13.1458 15.4375C13.2708 15.3125 13.3333 15.1667 13.3333 15C13.3333 14.8333 13.2708 14.6875 13.1458 14.5625C13.0208 14.4375 12.875 14.375 12.7083 14.375C12.5417 14.375 12.3958 14.4375 12.2708 14.5625C12.1458 14.6875 12.0833 14.8333 12.0833 15C12.0833 15.1667 12.1458 15.3125 12.2708 15.4375C12.3958 15.5625 12.5417 15.625 12.7083 15.625ZM15 15.625C15.1667 15.625 15.3125 15.5625 15.4375 15.4375C15.5625 15.3125 15.625 15.1667 15.625 15C15.625 14.8333 15.5625 14.6875 15.4375 14.5625C15.3125 14.4375 15.1667 14.375 15 14.375C14.8333 14.375 14.6875 14.4375 14.5625 14.5625C14.4375 14.6875 14.375 14.8333 14.375 15C14.375 15.1667 14.4375 15.3125 14.5625 15.4375C14.6875 15.5625 14.8333 15.625 15 15.625ZM17.2917 15.625C17.4583 15.625 17.6042 15.5625 17.7292 15.4375C17.8542 15.3125 17.9167 15.1667 17.9167 15C17.9167 14.8333 17.8542 14.6875 17.7292 14.5625C17.6042 14.4375 17.4583 14.375 17.2917 14.375C17.125 14.375 16.9792 14.4375 16.8542 14.5625C16.7292 14.6875 16.6667 14.8333 16.6667 15C16.6667 15.1667 16.7292 15.3125 16.8542 15.4375C16.9792 15.5625 17.125 15.625 17.2917 15.625ZM15 19.1667C13.8472 19.1667 12.8647 18.7603 12.0525 17.9475C11.2403 17.1347 10.8339 16.1522 10.8333 15C10.8328 13.8478 11.2392 12.8653 12.0525 12.0525C12.8658 11.2397 13.8483 10.8333 15 10.8333C16.1517 10.8333 17.1344 11.2397 17.9483 12.0525C18.7622 12.8653 19.1683 13.8478 19.1667 15C19.165 16.1522 18.7586 17.135 17.9475 17.9483C17.1364 18.7617 16.1539 19.1678 15 19.1667ZM6.66667 7.5H13.3333C13.5694 7.5 13.7675 7.42 13.9275 7.26C14.0875 7.1 14.1672 6.90222 14.1667 6.66667C14.1661 6.43111 14.0861 6.23333 13.9267 6.07333C13.7672 5.91333 13.5694 5.83333 13.3333 5.83333H6.66667C6.43056 5.83333 6.23278 5.91333 6.07333 6.07333C5.91389 6.23333 5.83389 6.43111 5.83333 6.66667C5.83278 6.90222 5.91278 7.10028 6.07333 7.26083C6.23389 7.42139 6.43167 7.50111 6.66667 7.5ZM4.16667 17.5C3.70833 17.5 3.31611 17.3369 2.99 17.0108C2.66389 16.6847 2.50056 16.2922 2.5 15.8333V4.16667C2.5 3.70833 2.66333 3.31611 2.99 2.99C3.31667 2.66389 3.70889 2.50056 4.16667 2.5H15.8333C16.2917 2.5 16.6842 2.66333 17.0108 2.99C17.3375 3.31667 17.5006 3.70889 17.5 4.16667V8.70833C17.5 8.95833 17.3958 9.15278 17.1875 9.29167C16.9792 9.43055 16.7569 9.45833 16.5208 9.375C16.2847 9.30556 16.0381 9.25333 15.7808 9.21833C15.5236 9.18333 15.2633 9.16611 15 9.16667C14.8472 9.16667 14.7047 9.17028 14.5725 9.1775C14.4403 9.18472 14.305 9.20194 14.1667 9.22917C14.0417 9.20139 13.9028 9.18417 13.75 9.1775C13.5972 9.17083 13.4583 9.16722 13.3333 9.16667H6.66667C6.43056 9.16667 6.23278 9.24667 6.07333 9.40667C5.91389 9.56667 5.83389 9.76444 5.83333 10C5.83278 10.2356 5.91278 10.4336 6.07333 10.5942C6.23389 10.7547 6.43167 10.8344 6.66667 10.8333H10.9375C10.6875 11.0694 10.4619 11.3264 10.2608 11.6042C10.0597 11.8819 9.8825 12.1806 9.72917 12.5H6.66667C6.43056 12.5 6.23278 12.58 6.07333 12.74C5.91389 12.9 5.83389 13.0978 5.83333 13.3333C5.83278 13.5689 5.91278 13.7669 6.07333 13.9275C6.23389 14.0881 6.43167 14.1678 6.66667 14.1667H9.22917C9.20139 14.3056 9.18417 14.4411 9.1775 14.5733C9.17083 14.7056 9.16722 14.8478 9.16667 15C9.16667 15.2778 9.18056 15.5417 9.20833 15.7917C9.23611 16.0417 9.28472 16.2847 9.35417 16.5208C9.42361 16.7569 9.38889 16.9792 9.25 17.1875C9.11111 17.3958 8.92361 17.5 8.6875 17.5H4.16667Z" fill="url(#paint0_linear_3275_2882)"/>
<defs>
<linearGradient id="paint0_linear_3275_2882" x1="10.8333" y1="2.5" x2="10.8333" y2="19.1667" gradientUnits="userSpaceOnUse">
<stop stop-color="#E45E14"/>
<stop offset="1" stop-color="#CA2323"/>
</linearGradient>
</defs>
</svg>
