<svg width="116" height="116" viewBox="0 0 116 116" fill="none" xmlns="http://www.w3.org/2000/svg">
<path d="M91.8327 43.5002C91.8327 50.5085 89.7543 56.9369 86.1777 62.3019C80.9577 70.0353 72.6927 75.4969 63.0743 76.8986C61.431 77.1886 59.7393 77.3335 57.9993 77.3335C56.2593 77.3335 54.5677 77.1886 52.9243 76.8986C43.306 75.4969 35.041 70.0353 29.821 62.3019C26.2443 56.9369 24.166 50.5085 24.166 43.5002C24.166 24.7952 39.2943 9.66687 57.9993 9.66687C76.7043 9.66687 91.8327 24.7952 91.8327 43.5002Z" fill="#CA2323"/>
<path d="M102.704 89.2736L94.7287 91.1586C92.9403 91.5936 91.5387 92.947 91.152 94.7353L89.4603 101.84C88.542 105.707 83.612 106.867 81.0503 103.822L57.9953 77.3353L34.9403 103.87C32.3787 106.915 27.4487 105.755 26.5303 101.889L24.8387 94.7836C24.4037 92.9952 23.002 91.5936 21.262 91.2069L13.287 89.322C9.61367 88.452 8.30867 83.8602 10.967 81.2019L29.817 62.3519C35.037 70.0853 43.302 75.547 52.9203 76.9487C54.5637 77.2387 56.2553 77.3837 57.9953 77.3837C59.7353 77.3837 61.427 77.2387 63.0703 76.9487C72.6887 75.547 80.9537 70.0853 86.1737 62.3519L105.024 81.2019C107.682 83.8119 106.377 88.4036 102.704 89.2736Z" fill="#E45E14"/>
<path d="M60.8035 28.9031L63.6552 34.6064C64.0419 35.3798 65.0569 36.1531 65.9752 36.2981L71.1469 37.1681C74.4335 37.6998 75.2069 40.1165 72.8385 42.4848L68.8269 46.4964C68.1502 47.1731 67.7635 48.4781 68.0052 49.4448L69.1652 54.4231C70.0835 58.3381 68.0052 59.8847 64.5252 57.8064L59.6919 54.9547C58.8219 54.4231 57.3719 54.4231 56.5019 54.9547L51.6685 57.8064C48.1885 59.8364 46.1102 58.3381 47.0285 54.4231L48.1885 49.4448C48.3819 48.5265 48.0435 47.1731 47.3669 46.4964L43.3552 42.4848C40.9869 40.1165 41.7602 37.7481 45.0469 37.1681L50.2185 36.2981C51.0885 36.1531 52.1035 35.3798 52.4902 34.6064L55.3419 28.9031C56.7435 25.8098 59.2569 25.8098 60.8035 28.9031Z" fill="url(#paint0_linear_2112_3809)"/>
<defs>
<linearGradient id="paint0_linear_2112_3809" x1="58.0969" y1="26.5831" x2="58.0969" y2="58.7321" gradientUnits="userSpaceOnUse">
<stop stop-color="white"/>
<stop offset="1" stop-color="white"/>
</linearGradient>
</defs>
</svg>
