<svg width="275" height="305" viewBox="0 0 275 305" fill="none" xmlns="http://www.w3.org/2000/svg">
<path d="M227.215 173.663C227.218 174.188 227.384 174.701 227.691 175.136C227.998 175.571 228.432 175.908 228.94 176.106C229.447 176.304 230.004 176.353 230.54 176.247C231.077 176.141 231.568 175.885 231.953 175.511C232.337 175.137 232.597 174.662 232.7 174.146C232.803 173.63 232.744 173.097 232.53 172.613C232.317 172.129 231.958 171.718 231.5 171.429C231.043 171.141 230.506 170.99 229.958 170.994C229.226 171 228.526 171.285 228.011 171.785C227.497 172.285 227.211 172.961 227.215 173.663Z" fill="#E0E0E0"/>
<path d="M123.789 54.7607H106.023V79.0386H123.789V54.7607Z" fill="#E6E6E6"/>
<path d="M170.717 43.7663C170.571 35.2494 173.062 26.8824 177.876 19.7237C182.69 12.565 189.609 6.9363 197.759 3.54963C205.909 0.162969 214.923 -0.829469 223.661 0.697875C232.399 2.22522 240.469 6.20371 246.849 12.13C253.229 18.0564 257.633 25.6643 259.503 33.9913C261.373 42.3182 260.627 50.9902 257.357 58.91C254.087 66.8298 248.441 73.6416 241.134 78.4837C233.826 83.3258 225.185 85.9806 216.304 86.1122C204.41 86.2745 192.933 81.9088 184.388 73.9716C175.843 66.0344 170.927 55.1728 170.717 43.7663ZM237.074 42.7427C237.005 38.6721 235.678 34.7126 233.262 31.3648C230.847 28.0171 227.45 25.4315 223.502 23.9349C219.554 22.4383 215.232 22.098 211.082 22.957C206.933 23.816 203.142 25.8357 200.189 28.7607C197.236 31.6857 195.254 35.3847 194.493 39.39C193.733 43.3952 194.227 47.5269 195.915 51.2625C197.603 54.9982 200.408 58.17 203.975 60.377C207.542 62.584 211.712 63.7271 215.956 63.6617C221.648 63.5679 227.068 61.3126 231.027 57.3907C234.986 53.4688 237.161 48.2007 237.074 42.7427Z" fill="#FAFAFA"/>
<path d="M274.526 303.956C274.526 304.064 213.07 304.156 137.263 304.156C61.4559 304.156 0 304.064 0 303.956C0 303.849 61.4395 303.749 137.263 303.749C213.086 303.749 274.526 303.841 274.526 303.956Z" fill="#263238"/>
<path d="M84.2227 197.424L236.527 196.402V198.4L84.2227 199.675V197.424Z" fill="#263238"/>
<path d="M80.8984 52.6843L84.367 198.615L236.523 197.509V50.2334L80.8984 52.6843Z" fill="white"/>
<path d="M80.8997 52.6844L236.524 50.0645H236.714V50.2412C236.714 92.3978 236.714 142.145 236.714 195.219V197.716H236.5L84.3436 198.8H84.1627V198.631C82.1983 111.167 80.9161 54.1902 80.875 52.692C80.875 54.1672 82.338 111.167 84.5244 198.615L84.3436 198.446L236.5 197.317L236.286 197.517V195.212C236.286 142.138 236.286 92.3901 236.286 50.2335L236.475 50.4102L80.8997 52.6844Z" fill="#263238"/>
<path d="M80.293 53.66L237.192 52.8225L237.389 46.6685L80.293 47.5827V53.66Z" fill="#263238"/>
<path d="M155.4 202.595C155.137 202.595 154.857 201.45 154.783 200.021C154.709 198.592 154.874 197.424 155.137 197.409C155.4 197.393 155.679 198.546 155.753 199.975C155.827 201.404 155.671 202.595 155.4 202.595Z" fill="#263238"/>
<path d="M155.342 201.542C155.342 201.489 155.605 201.473 156.016 201.627C156.264 201.724 156.496 201.854 156.706 202.011C156.989 202.223 157.226 202.484 157.405 202.779C157.649 203.188 157.771 203.649 157.759 204.117C157.748 204.584 157.603 205.04 157.339 205.438C157.181 205.677 156.981 205.89 156.747 206.068C156.503 206.251 156.224 206.389 155.925 206.475C155.29 206.639 154.613 206.593 154.01 206.344C153.705 206.217 153.427 206.04 153.188 205.822C152.951 205.603 152.764 205.342 152.637 205.053C152.41 204.529 152.361 203.952 152.498 203.402C152.599 202.942 152.836 202.519 153.182 202.179C153.527 201.84 153.968 201.598 154.454 201.481C155.076 201.322 155.737 201.376 156.32 201.634C156.714 201.819 156.862 202.011 156.829 202.057C156.796 202.103 156.575 202.057 156.196 201.965C155.682 201.875 155.15 201.918 154.659 202.088C154.343 202.203 154.061 202.387 153.838 202.626C153.581 202.907 153.413 203.249 153.354 203.614C153.294 203.979 153.345 204.353 153.501 204.692C153.68 205.057 154 205.345 154.396 205.499C154.792 205.664 155.235 205.699 155.654 205.599C156.04 205.506 156.374 205.281 156.591 204.969C156.805 204.675 156.933 204.333 156.961 203.978C156.986 203.817 156.986 203.654 156.961 203.494C156.934 203.343 156.887 203.196 156.821 203.056C156.61 202.604 156.279 202.21 155.859 201.911C155.555 201.711 155.342 201.604 155.342 201.542Z" fill="#263238"/>
<path d="M177.977 132.541C177.977 132.541 177.978 132.541 177.879 132.541H177.599L176.514 132.587L172.331 132.756L156.944 133.294C143.949 133.74 125.99 134.331 106.165 134.969L99.3431 135.184H99.187V135.038C97.8061 118.082 96.5568 102.885 95.6937 91.9596C95.2663 86.5047 94.9294 82.1177 94.691 79.0982C94.5841 77.5616 94.4937 76.4169 94.4362 75.6255C94.4362 75.226 94.3869 74.9264 94.3787 74.7189C94.3704 74.5115 94.3787 74.5422 94.3787 74.4884C94.3787 74.4347 94.3787 74.4116 94.3787 74.4116C94.3825 74.4371 94.3825 74.463 94.3787 74.4884C94.3787 74.5422 94.3787 74.6191 94.3787 74.7189C94.3787 74.8188 94.428 75.226 94.4691 75.6178C94.5348 76.3861 94.6417 77.577 94.7814 79.0906C95.0362 82.11 95.4143 86.497 95.8828 91.9366C96.8034 102.831 98.0691 117.99 99.4664 135.015L99.302 134.877L106.124 134.654C125.949 134.024 143.933 133.463 156.903 133.079L172.298 132.633L176.482 132.526H177.567H177.945L177.977 132.541Z" fill="#455A64"/>
<path d="M122.887 69.6867V71.6459L144.569 70.6779V69.0337L122.887 69.6867Z" fill="#263238"/>
<path d="M106.469 130.867H114.006L112.823 111.744H105.434L106.469 130.867Z" fill="#FF725E"/>
<path d="M120.133 130.874H127.662L126.487 104.145H119.098L120.133 130.874Z" fill="#FF725E"/>
<path d="M132.918 130.021H140.455L139.272 95.0254H131.891L132.918 130.021Z" fill="#FF725E"/>
<path d="M162.262 128.661H169.791L168.616 80.9653H161.227L162.262 128.661Z" fill="#FF725E"/>
<path d="M147.985 128.823H155.514L154.33 87.7803H146.949L147.985 128.823Z" fill="#FF725E"/>
<path d="M101.74 106.788C101.543 106.504 115.006 98.1138 131.799 88.0491C148.591 77.9843 162.383 70.0555 162.58 70.3782C162.777 70.7008 149.314 79.0523 132.514 89.117C115.713 99.1817 101.921 107.072 101.74 106.788Z" fill="#FF725E"/>
<path d="M155.118 70.3475C155.052 70.0094 159.926 68.8724 166.025 67.7967L167.57 67.5278L166.691 68.7494L166.641 68.8186C163.156 73.6589 160.066 77.4312 159.778 77.2699C159.491 77.1085 162.063 73.0058 165.532 68.1578L165.581 68.0887L166.255 69.0414C160.165 70.0786 155.184 70.6779 155.118 70.3475Z" fill="#FF725E"/>
<path d="M105.434 137.328H113.308L113.554 138.634H105.434V137.328Z" fill="#263238"/>
<path d="M119.375 136.79H127.249L127.496 138.096H119.375V136.79Z" fill="#263238"/>
<path d="M133.727 136.406H141.601L141.847 137.712H133.727V136.406Z" fill="#263238"/>
<path d="M147.172 136.091H155.046L155.293 137.405H147.172V136.091Z" fill="#263238"/>
<path d="M163.836 135.63H171.71L171.957 136.944H163.836V135.63Z" fill="#263238"/>
<path d="M199.154 187.705C213.036 187.705 224.289 177.186 224.289 164.21C224.289 151.235 213.036 140.716 199.154 140.716C185.273 140.716 174.02 151.235 174.02 164.21C174.02 177.186 185.273 187.705 199.154 187.705Z" fill="#FF725E"/>
<path opacity="0.3" d="M199.154 187.705C213.036 187.705 224.289 177.186 224.289 164.21C224.289 151.235 213.036 140.716 199.154 140.716C185.273 140.716 174.02 151.235 174.02 164.21C174.02 177.186 185.273 187.705 199.154 187.705Z" fill="black"/>
<path d="M199.154 164.18L174.636 169.335C170.691 152.433 185.272 140.686 199.154 140.686" fill="#FF725E"/>
<path d="M199.184 164.18L199.02 140.686C217.529 140.686 226.702 156.505 223.743 169.182L199.184 164.18Z" fill="#FF725E"/>
<path d="M199.184 164.18L199.02 140.686C217.529 140.686 226.702 156.505 223.743 169.182L199.184 164.18Z" fill="#FF725E"/>
<path opacity="0.1" d="M199.184 164.18L199.02 140.686C217.529 140.686 226.702 156.505 223.743 169.182L199.184 164.18Z" fill="black"/>
<path d="M224.938 108.578C224.45 108.273 223.929 108.015 223.385 107.81C221.867 107.376 220.238 107.419 218.749 107.933C216.826 108.493 214.919 109.922 213.069 111.713C211.22 113.503 209.239 115.669 206.346 116.937C204.95 117.585 203.379 117.829 201.834 117.636C200.44 117.366 199.092 116.916 197.831 116.299C196.72 115.759 195.533 115.368 194.305 115.139C193.236 114.982 192.142 115.11 191.148 115.508C189.685 116.088 188.489 117.133 187.77 118.458C187.539 118.956 187.35 119.47 187.203 119.995C187.229 119.439 187.371 118.893 187.622 118.389C188.311 116.99 189.52 115.873 191.025 115.247C192.056 114.818 193.195 114.666 194.313 114.809C195.582 115.029 196.811 115.417 197.962 115.961C199.191 116.557 200.502 116.992 201.858 117.252C203.32 117.422 204.804 117.187 206.124 116.576C208.902 115.362 210.85 113.211 212.749 111.451C214.647 109.692 216.612 108.209 218.609 107.664C220.161 107.158 221.85 107.158 223.401 107.664C223.815 107.813 224.205 108.014 224.56 108.263C224.699 108.353 224.826 108.459 224.938 108.578Z" fill="#263238"/>
<path d="M227.067 123.76C227.067 123.875 218.141 123.96 207.135 123.96C196.129 123.96 187.203 123.875 187.203 123.76C187.203 123.645 196.129 123.56 207.135 123.56C218.141 123.56 227.067 123.652 227.067 123.76Z" fill="#263238"/>
<path d="M224.843 123.76C224.728 123.76 224.629 119.012 224.629 113.149C224.629 107.287 224.728 102.547 224.843 102.547C224.958 102.547 225.056 107.295 225.056 113.149C225.056 119.004 224.966 123.76 224.843 123.76Z" fill="#263238"/>
<path d="M191.217 114.824C191.217 114.824 191.16 114.747 191.217 114.609C191.255 114.512 191.315 114.424 191.393 114.351C191.471 114.278 191.566 114.222 191.669 114.187C191.826 114.122 191.998 114.099 192.167 114.119C192.337 114.139 192.497 114.202 192.631 114.302C192.776 114.454 192.861 114.647 192.873 114.85C192.886 115.053 192.824 115.254 192.698 115.42C192.572 115.586 192.389 115.707 192.18 115.764C191.971 115.82 191.747 115.809 191.546 115.731C191.405 115.652 191.288 115.539 191.209 115.404C191.129 115.269 191.09 115.117 191.094 114.963C191.092 114.86 191.113 114.758 191.153 114.664C191.194 114.569 191.255 114.482 191.332 114.409C191.456 114.317 191.546 114.317 191.554 114.333C191.563 114.348 191.332 114.555 191.39 114.947C191.401 115.048 191.438 115.145 191.496 115.23C191.555 115.316 191.634 115.387 191.727 115.439C191.842 115.466 191.964 115.46 192.075 115.422C192.187 115.384 192.284 115.315 192.353 115.224C192.422 115.134 192.461 115.026 192.463 114.915C192.466 114.804 192.433 114.695 192.368 114.601C192.286 114.538 192.188 114.495 192.083 114.475C191.979 114.454 191.871 114.458 191.768 114.486C191.349 114.548 191.275 114.84 191.217 114.824Z" fill="#263238"/>
<path d="M218.099 107.118C218.099 107.118 218.099 107.026 218.247 106.949C218.439 106.86 218.66 106.843 218.864 106.903C219.026 106.945 219.173 107.026 219.289 107.14C219.405 107.254 219.485 107.395 219.521 107.549C219.534 107.747 219.475 107.943 219.354 108.106C219.232 108.269 219.056 108.389 218.853 108.447C218.649 108.504 218.431 108.496 218.234 108.424C218.036 108.352 217.87 108.219 217.762 108.048C217.703 107.9 217.688 107.74 217.718 107.584C217.749 107.429 217.824 107.284 217.935 107.165C218.074 107.011 218.272 106.914 218.486 106.896C218.634 106.896 218.708 106.942 218.699 106.965C218.691 106.988 218.387 107.003 218.182 107.334C218.125 107.416 218.089 107.509 218.078 107.607C218.066 107.704 218.079 107.803 218.116 107.894C218.188 107.977 218.285 108.038 218.395 108.069C218.504 108.1 218.621 108.1 218.731 108.069C218.84 108.038 218.937 107.977 219.009 107.893C219.081 107.81 219.125 107.709 219.135 107.602C219.113 107.507 219.068 107.417 219.002 107.341C218.936 107.265 218.852 107.205 218.757 107.165C218.395 106.996 218.141 107.172 218.099 107.118Z" fill="#263238"/>
<path d="M224.138 81.9717C224.138 82.0793 215.491 82.1715 204.831 82.1715C194.17 82.1715 185.523 82.0793 185.523 81.9717C185.523 81.8642 194.162 81.772 204.831 81.772C215.499 81.772 224.138 81.8795 224.138 81.9717Z" fill="#263238"/>
<path d="M224.138 87.004C224.138 87.1192 215.491 87.2037 204.831 87.2037C194.17 87.2037 185.523 87.1192 185.523 87.004C185.523 86.8887 194.162 86.8042 204.831 86.8042C215.499 86.8042 224.138 86.8964 224.138 87.004Z" fill="#263238"/>
<path d="M224.138 92.0215C224.138 92.1291 215.491 92.2213 204.831 92.2213C194.17 92.2213 185.523 92.1291 185.523 92.0215C185.523 91.914 194.162 91.8218 204.831 91.8218C215.499 91.8218 224.138 91.9063 224.138 92.0215Z" fill="#263238"/>
<path d="M224.138 97.0308C224.138 97.1461 215.491 97.2306 204.831 97.2306C194.17 97.2306 185.523 97.1461 185.523 97.0308C185.523 96.9156 194.162 96.8311 204.831 96.8311C215.499 96.8311 224.138 96.9233 224.138 97.0308Z" fill="#263238"/>
<path d="M206.072 72.8213H185.523V74.4424H206.072V72.8213Z" fill="#263238"/>
<path d="M121.251 153.309H100.703V154.93H121.251V153.309Z" fill="#263238"/>
<path d="M156.929 162.705C156.929 162.82 144.46 162.904 129.082 162.904C113.704 162.904 101.227 162.82 101.227 162.705C101.227 162.589 113.695 162.505 129.082 162.505C144.468 162.505 156.929 162.597 156.929 162.705Z" fill="#263238"/>
<path d="M157.259 167.253C157.259 167.361 144.568 167.453 128.918 167.453C113.269 167.453 100.578 167.361 100.578 167.253C100.578 167.146 113.261 167.054 128.918 167.054C144.576 167.054 157.259 167.161 157.259 167.253Z" fill="#263238"/>
<path d="M157.908 171.541C157.908 171.648 145.143 171.74 129.403 171.74C113.663 171.74 100.898 171.648 100.898 171.541C100.898 171.433 113.663 171.341 129.403 171.341C145.143 171.341 157.908 171.425 157.908 171.541Z" fill="#263238"/>
<path d="M130.545 176.104C130.545 176.212 123.969 176.304 115.882 176.304C107.794 176.304 101.227 176.212 101.227 176.104C101.227 175.996 107.802 175.904 115.882 175.904C123.961 175.904 130.545 175.996 130.545 176.104Z" fill="#263238"/>
<path d="M41.0382 300.477V293.562L27.1229 293.447L27.0078 303.611L27.8297 303.665C31.6682 303.888 47.3589 304.541 49.9315 303.834C52.8412 303.035 41.0382 300.477 41.0382 300.477Z" fill="#FF725E"/>
<path d="M50.3033 303.196C50.3033 303.319 45.1004 303.419 38.6811 303.419C32.2618 303.419 27.0508 303.319 27.0508 303.196C27.0508 303.074 32.2618 302.974 38.6811 302.974C45.1004 302.974 50.3033 303.074 50.3033 303.196Z" fill="#263238"/>
<path d="M41.2825 301.898C41.1674 301.836 41.2825 301.46 41.562 301.129C41.8414 300.799 42.2277 300.584 42.3099 300.668C42.3921 300.753 42.2113 301.068 41.9401 301.437C41.6688 301.805 41.3976 301.959 41.2825 301.898Z" fill="#263238"/>
<path d="M42.1691 302.351C42.0458 302.305 42.1116 301.89 42.3828 301.46C42.6541 301.03 43.0157 300.769 43.1144 300.845C43.213 300.922 43.0486 301.283 42.7938 301.683C42.539 302.082 42.2924 302.397 42.1691 302.351Z" fill="#263238"/>
<path d="M31.2279 303.15C31.1703 303.189 30.9566 303.004 30.6525 302.697C30.2823 302.295 29.8723 301.928 29.4278 301.598C28.9846 301.294 28.4681 301.096 27.9237 301.022C27.5045 300.968 27.2333 301.022 27.2086 300.961C27.184 300.899 27.447 300.738 27.9319 300.707C28.571 300.69 29.1972 300.877 29.7073 301.237C30.1935 301.586 30.606 302.015 30.9238 302.505C31.1786 302.866 31.2936 303.112 31.2279 303.15Z" fill="#263238"/>
<path d="M41.3209 300.592C41.3867 300.692 41.1401 300.938 40.7456 301.068C40.3511 301.199 39.9976 301.153 39.9812 301.03C39.9647 300.907 40.236 300.769 40.5894 300.653C40.9428 300.538 41.247 300.484 41.3209 300.592Z" fill="#263238"/>
<path d="M41.097 299.915C41.097 300.038 40.7353 300.146 40.2751 300.154C39.8148 300.161 39.4531 300.061 39.4531 299.938C39.4531 299.816 39.8312 299.716 40.2751 299.708C40.7189 299.7 41.097 299.792 41.097 299.915Z" fill="#FF725E"/>
<path d="M50.3033 303.196C50.3033 303.319 45.1004 303.419 38.6811 303.419C32.2618 303.419 27.0508 303.319 27.0508 303.196C27.0508 303.074 32.2618 302.974 38.6811 302.974C45.1004 302.974 50.3033 303.074 50.3033 303.196Z" fill="#263238"/>
<path d="M41.2825 301.898C41.1674 301.836 41.2825 301.46 41.562 301.129C41.8414 300.799 42.2277 300.584 42.3099 300.668C42.3921 300.753 42.2113 301.068 41.9401 301.437C41.6688 301.805 41.3976 301.959 41.2825 301.898Z" fill="#263238"/>
<path d="M42.1691 302.351C42.0458 302.305 42.1116 301.89 42.3828 301.46C42.6541 301.03 43.0157 300.769 43.1144 300.845C43.213 300.922 43.0486 301.283 42.7938 301.683C42.539 302.082 42.2924 302.397 42.1691 302.351Z" fill="#263238"/>
<path d="M31.2279 303.15C31.1703 303.189 30.9566 303.004 30.6525 302.697C30.2823 302.295 29.8723 301.928 29.4278 301.598C28.9846 301.294 28.4681 301.096 27.9237 301.022C27.5045 300.968 27.2333 301.022 27.2086 300.961C27.184 300.899 27.447 300.738 27.9319 300.707C28.571 300.69 29.1972 300.877 29.7073 301.237C30.1935 301.586 30.606 302.015 30.9238 302.505C31.1786 302.866 31.2936 303.112 31.2279 303.15Z" fill="#263238"/>
<path d="M41.3209 300.592C41.3867 300.692 41.1401 300.938 40.7456 301.068C40.3511 301.199 39.9976 301.153 39.9812 301.03C39.9647 300.907 40.236 300.769 40.5894 300.653C40.9428 300.538 41.247 300.484 41.3209 300.592Z" fill="#263238"/>
<path d="M41.097 299.915C41.097 300.038 40.7353 300.146 40.2751 300.154C39.8148 300.161 39.4531 300.061 39.4531 299.938C39.4531 299.816 39.8312 299.716 40.2751 299.708C40.7189 299.7 41.097 299.792 41.097 299.915Z" fill="#263238"/>
<path d="M55.7146 298.018L57.9092 291.388L44.6432 287.454L41.3555 297.127L42.1774 297.419C45.7693 298.694 60.5558 303.658 63.2353 303.696C66.1778 303.727 55.7146 298.018 55.7146 298.018Z" fill="#FF725E"/>
<path d="M63.7089 303.173C63.7089 303.296 58.6622 301.951 52.5306 300.169C46.399 298.386 41.4592 296.857 41.5003 296.742C41.5414 296.627 46.5387 297.972 52.6785 299.746C58.8184 301.521 63.75 303.058 63.7089 303.173Z" fill="#263238"/>
<path d="M55.5011 299.439C55.4106 299.347 55.6243 299.024 56.0189 298.755C56.4134 298.486 56.8408 298.417 56.8819 298.525C56.923 298.632 56.66 298.878 56.2983 299.124C55.9367 299.37 55.5915 299.523 55.5011 299.439Z" fill="#263238"/>
<path d="M56.2015 300.123C56.1029 300.046 56.2919 299.662 56.6947 299.355C57.0974 299.047 57.5166 298.87 57.5906 298.97C57.6646 299.07 57.3851 299.37 57.0152 299.685C56.6454 300 56.3084 300.169 56.2015 300.123Z" fill="#263238"/>
<path d="M45.5144 297.864C45.4486 297.864 45.3089 297.657 45.1198 297.273C44.8941 296.788 44.6188 296.325 44.2979 295.89C43.9716 295.477 43.5428 295.145 43.0486 294.922C42.6623 294.761 42.3828 294.73 42.3828 294.668C42.3828 294.607 42.6787 294.515 43.1554 294.622C43.7685 294.785 44.3045 295.137 44.676 295.621C45.0279 296.086 45.2869 296.607 45.4404 297.158C45.5472 297.573 45.5719 297.864 45.5144 297.864Z" fill="#455A64"/>
<path d="M55.9545 298.202C55.9545 298.318 55.675 298.487 55.2558 298.502C54.8367 298.517 54.5079 298.371 54.5326 298.249C54.5572 298.126 54.8695 298.072 55.2394 298.056C55.6093 298.041 55.8887 298.079 55.9545 298.202Z" fill="#263238"/>
<path d="M55.9536 297.503C55.9536 297.619 55.5426 297.619 55.0905 297.503C54.6385 297.388 54.3179 297.181 54.359 297.066C54.4001 296.95 54.7946 296.958 55.222 297.066C55.6495 297.173 55.9864 297.381 55.9536 297.503Z" fill="#263238"/>
<path d="M65.1601 163.127L46.8967 161.813L19.2305 159.716L22.3209 298.632L46.346 298.34C46.346 298.34 46.346 296.804 46.2885 294.084L60.3764 297.687C60.3764 297.687 74.1027 254.34 78.7795 236.554C82.6837 221.733 65.1601 163.127 65.1601 163.127ZM46.0255 272.51C45.6638 240.441 45.2447 185.907 45.746 179.238C45.746 179.238 59.1271 227.249 59.2504 231.037C59.3326 233.327 51.8777 255.484 46.0255 272.51Z" fill="#455A64"/>
<path d="M46.4735 293.078C46.4735 293.201 41.0981 293.301 34.4733 293.301C27.8485 293.301 22.4648 293.201 22.4648 293.078C22.4648 292.955 27.8403 292.855 34.4733 292.855C41.1063 292.855 46.4735 292.955 46.4735 293.078Z" fill="#455A64"/>
<path d="M46.2656 288.084C47.0171 288.25 47.7536 288.471 48.4684 288.745L53.9671 290.535L59.4659 292.333C60.2435 292.541 60.9978 292.818 61.718 293.162C60.915 293.058 60.125 292.881 59.359 292.632C57.9289 292.241 55.9644 291.657 53.811 290.957C51.6575 290.258 49.7013 289.567 48.3533 289.037C47.6136 288.811 46.911 288.49 46.2656 288.084Z" fill="#455A64"/>
<path d="M68.2742 230.607C66.7882 230.931 65.2707 231.111 63.7453 231.145C62.2325 231.325 60.7038 231.359 59.1836 231.245C60.6686 230.915 62.1866 230.732 63.7125 230.699C65.2253 230.519 66.7544 230.488 68.2742 230.607Z" fill="#455A64"/>
<path d="M66.7036 233.127C65.5221 233.034 64.3588 232.796 63.2433 232.42C62.0824 232.184 60.9603 231.804 59.9062 231.291C61.0912 231.375 62.2582 231.61 63.3748 231.99C65.2488 232.497 66.7447 233.004 66.7036 233.127Z" fill="#455A64"/>
<path d="M47.9582 161.99C48.0686 162.867 48.1098 163.751 48.0814 164.633C48.0814 166.27 48.0814 168.528 48.0814 171.025C48.0814 172.262 48.0814 173.446 48.0321 174.537C48.0622 175.519 47.866 176.497 47.4568 177.402C47.1652 178.02 46.6992 178.551 46.1088 178.939C45.9075 179.095 45.6671 179.201 45.4102 179.246C45.4102 179.246 45.6403 179.108 46.0102 178.816C46.5292 178.4 46.9325 177.873 47.1855 177.279C47.5282 176.399 47.6819 175.465 47.6376 174.529C47.6376 173.43 47.6376 172.224 47.6376 171.01C47.6376 168.513 47.7034 166.254 47.7527 164.625C47.75 163.743 47.8187 162.863 47.9582 161.99Z" fill="#455A64"/>
<path d="M34.2044 161.207C34.2132 161.319 34.2132 161.432 34.2044 161.545C34.2044 161.79 34.2044 162.121 34.2044 162.543C34.2044 163.435 34.1304 164.725 34.0729 166.385C33.9578 169.727 33.7934 174.529 33.5879 180.452C33.2016 192.33 32.8071 208.749 32.7085 226.873C32.6098 244.997 32.8318 261.447 33.0866 273.317C33.2263 279.241 33.3331 284.073 33.4153 287.385C33.4153 289.036 33.4811 290.319 33.5057 291.226C33.5057 291.649 33.5057 291.994 33.5057 292.225C33.5146 292.337 33.5146 292.45 33.5057 292.563C33.4969 292.45 33.4969 292.337 33.5057 292.225C33.5057 291.987 33.5057 291.656 33.4482 291.234C33.4482 290.335 33.3578 289.052 33.2838 287.392C33.1441 284.073 32.9797 279.264 32.8153 273.325C32.4783 261.439 32.2153 245.02 32.3139 226.873C32.4126 208.726 32.8564 192.3 33.3167 180.445C33.5468 174.506 33.7605 169.689 33.9414 166.377C34.0318 164.733 34.1058 163.45 34.1551 162.536C34.1551 162.113 34.2044 161.767 34.2208 161.537C34.2069 161.427 34.2014 161.317 34.2044 161.207Z" fill="#455A64"/>
<path d="M59.1773 164.703C59.2272 164.804 59.2684 164.91 59.3006 165.018C59.3746 165.248 59.4814 165.555 59.6129 165.955C59.8759 166.777 60.2951 167.991 60.7554 169.574C61.7006 172.731 62.9746 177.318 64.3966 183.027C65.8185 188.735 67.3966 195.542 69.0405 203.133C70.6844 210.724 72.4186 219.083 73.9721 227.903C74.1694 229.009 74.3502 230.108 74.5063 231.207C74.5063 231.499 74.5639 231.798 74.5639 232.083L74.4159 232.897C74.3091 233.442 74.2269 233.988 74.0954 234.518C73.6269 236.654 73.1008 238.744 72.5337 240.787C71.4159 244.875 70.2323 248.785 69.0652 252.504C66.7473 259.941 64.5116 266.595 62.613 272.18C60.7143 277.766 59.128 282.26 58.0102 285.364L56.7115 288.937L56.3581 289.866C56.3274 289.973 56.2833 290.077 56.2266 290.174C56.248 290.064 56.2783 289.956 56.317 289.851C56.3992 289.621 56.4978 289.313 56.6293 288.914L57.854 285.318L62.3253 272.096C64.1829 266.502 66.3857 259.841 68.6871 252.404C69.8378 248.686 71.0131 244.767 72.131 240.688C72.6899 238.652 73.2159 236.569 73.6844 234.441C73.8159 233.911 73.8899 233.373 73.9885 232.836L74.1365 232.029C74.1365 231.768 74.0954 231.514 74.079 231.261C73.9228 230.177 73.7502 229.079 73.5529 227.98C71.9912 219.167 70.2652 210.808 68.6213 203.218C66.9775 195.627 65.4897 188.766 64.1089 183.088C62.7281 177.41 61.4869 172.777 60.591 169.612C60.1636 168.029 59.7691 166.808 59.5307 165.978L59.2595 165.033C59.2191 164.926 59.1916 164.815 59.1773 164.703Z" fill="#455A64"/>
<path d="M45.955 269.69C46.0212 270.048 46.046 270.411 46.029 270.774C46.029 271.542 46.029 272.549 46.0701 273.739C46.0701 276.313 46.1687 279.732 46.2263 283.504C46.2838 287.277 46.44 290.696 46.5139 293.27C46.5139 294.46 46.5797 295.459 46.6044 296.235C46.6415 296.595 46.6415 296.958 46.6044 297.319C46.5137 296.966 46.4641 296.605 46.4564 296.243C46.3907 295.544 46.3167 294.537 46.2345 293.285C46.0701 290.788 45.9139 287.331 45.8235 283.512C45.7331 279.694 45.7495 276.236 45.8235 273.739C45.8235 272.487 45.8811 271.434 45.9139 270.774C45.8973 270.412 45.911 270.05 45.955 269.69Z" fill="#455A64"/>
<path d="M65.1601 163.127L46.8967 161.813L19.2305 159.716L22.3209 298.632L46.346 298.34C46.346 298.34 46.346 296.804 46.2885 294.084L60.3764 297.687C60.3764 297.687 74.1027 254.34 78.7795 236.554C82.6837 221.733 65.1601 163.127 65.1601 163.127ZM46.0255 272.51C45.6638 240.441 45.2447 185.907 45.746 179.238C45.746 179.238 59.1271 227.249 59.2504 231.037C59.3326 233.327 51.8777 255.484 46.0255 272.51Z" fill="#263238"/>
<path d="M46.4735 293.078C46.4735 293.201 41.0981 293.301 34.4733 293.301C27.8485 293.301 22.4648 293.201 22.4648 293.078C22.4648 292.955 27.8403 292.855 34.4733 292.855C41.1063 292.855 46.4735 292.955 46.4735 293.078Z" fill="#455A64"/>
<path d="M46.2656 288.084C47.0171 288.25 47.7536 288.471 48.4684 288.745L53.9671 290.535L59.4659 292.333C60.2435 292.541 60.9978 292.818 61.718 293.162C60.915 293.058 60.125 292.881 59.359 292.632C57.9289 292.241 55.9644 291.657 53.811 290.957C51.6575 290.258 49.7013 289.567 48.3533 289.037C47.6136 288.811 46.911 288.49 46.2656 288.084Z" fill="#455A64"/>
<path d="M68.2742 230.607C66.7882 230.931 65.2707 231.111 63.7453 231.145C62.2325 231.325 60.7038 231.359 59.1836 231.245C60.6686 230.915 62.1866 230.732 63.7125 230.699C65.2253 230.519 66.7544 230.488 68.2742 230.607Z" fill="#455A64"/>
<path d="M66.7036 233.127C65.5221 233.034 64.3588 232.796 63.2433 232.42C62.0824 232.184 60.9603 231.804 59.9062 231.291C61.0912 231.375 62.2582 231.61 63.3748 231.99C65.2488 232.497 66.7447 233.004 66.7036 233.127Z" fill="#455A64"/>
<path d="M47.9582 161.99C48.0686 162.867 48.1098 163.751 48.0814 164.633C48.0814 166.27 48.0814 168.528 48.0814 171.025C48.0814 172.262 48.0814 173.446 48.0321 174.537C48.0622 175.519 47.866 176.497 47.4568 177.402C47.1652 178.02 46.6992 178.551 46.1088 178.939C45.9075 179.095 45.6671 179.201 45.4102 179.246C45.4102 179.246 45.6403 179.108 46.0102 178.816C46.5292 178.4 46.9325 177.873 47.1855 177.279C47.5282 176.399 47.6819 175.465 47.6376 174.529C47.6376 173.43 47.6376 172.224 47.6376 171.01C47.6376 168.513 47.7034 166.254 47.7527 164.625C47.75 163.743 47.8187 162.863 47.9582 161.99Z" fill="#455A64"/>
<path d="M34.2044 161.207C34.2132 161.319 34.2132 161.432 34.2044 161.545C34.2044 161.79 34.2044 162.121 34.2044 162.543C34.2044 163.435 34.1304 164.725 34.0729 166.385C33.9578 169.727 33.7934 174.529 33.5879 180.452C33.2016 192.33 32.8071 208.749 32.7085 226.873C32.6098 244.997 32.8318 261.447 33.0866 273.317C33.2263 279.241 33.3331 284.073 33.4153 287.385C33.4153 289.036 33.4811 290.319 33.5057 291.226C33.5057 291.649 33.5057 291.994 33.5057 292.225C33.5146 292.337 33.5146 292.45 33.5057 292.563C33.4969 292.45 33.4969 292.337 33.5057 292.225C33.5057 291.987 33.5057 291.656 33.4482 291.234C33.4482 290.335 33.3578 289.052 33.2838 287.392C33.1441 284.073 32.9797 279.264 32.8153 273.325C32.4783 261.439 32.2153 245.02 32.3139 226.873C32.4126 208.726 32.8564 192.3 33.3167 180.445C33.5468 174.506 33.7605 169.689 33.9414 166.377C34.0318 164.733 34.1058 163.45 34.1551 162.536C34.1551 162.113 34.2044 161.767 34.2208 161.537C34.2069 161.427 34.2014 161.317 34.2044 161.207Z" fill="#455A64"/>
<path d="M59.1773 164.703C59.2272 164.804 59.2684 164.91 59.3006 165.018C59.3746 165.248 59.4814 165.555 59.6129 165.955C59.8759 166.777 60.2951 167.991 60.7554 169.574C61.7006 172.731 62.9746 177.318 64.3966 183.027C65.8185 188.735 67.3966 195.542 69.0405 203.133C70.6844 210.724 72.4186 219.083 73.9721 227.903C74.1694 229.009 74.3502 230.108 74.5063 231.207C74.5063 231.499 74.5639 231.798 74.5639 232.083L74.4159 232.897C74.3091 233.442 74.2269 233.988 74.0954 234.518C73.6269 236.654 73.1008 238.744 72.5337 240.787C71.4159 244.875 70.2323 248.785 69.0652 252.504C66.7473 259.941 64.5116 266.595 62.613 272.18C60.7143 277.766 59.128 282.26 58.0102 285.364L56.7115 288.937L56.3581 289.866C56.3274 289.973 56.2833 290.077 56.2266 290.174C56.248 290.064 56.2783 289.956 56.317 289.851C56.3992 289.621 56.4978 289.313 56.6293 288.914L57.854 285.318L62.3253 272.096C64.1829 266.502 66.3857 259.841 68.6871 252.404C69.8378 248.686 71.0131 244.767 72.131 240.688C72.6899 238.652 73.2159 236.569 73.6844 234.441C73.8159 233.911 73.8899 233.373 73.9885 232.836L74.1365 232.029C74.1365 231.768 74.0954 231.514 74.079 231.261C73.9228 230.177 73.7502 229.079 73.5529 227.98C71.9912 219.167 70.2652 210.808 68.6213 203.218C66.9775 195.627 65.4897 188.766 64.1089 183.088C62.7281 177.41 61.4869 172.777 60.591 169.612C60.1636 168.029 59.7691 166.808 59.5307 165.978L59.2595 165.033C59.2191 164.926 59.1916 164.815 59.1773 164.703Z" fill="#455A64"/>
<path d="M45.955 269.69C46.0212 270.048 46.046 270.411 46.029 270.774C46.029 271.542 46.029 272.549 46.0701 273.739C46.0701 276.313 46.1687 279.732 46.2263 283.504C46.2838 287.277 46.44 290.696 46.5139 293.27C46.5139 294.46 46.5797 295.459 46.6044 296.235C46.6415 296.595 46.6415 296.958 46.6044 297.319C46.5137 296.966 46.4641 296.605 46.4564 296.243C46.3907 295.544 46.3167 294.537 46.2345 293.285C46.0701 290.788 45.9139 287.331 45.8235 283.512C45.7331 279.694 45.7495 276.236 45.8235 273.739C45.8235 272.487 45.8811 271.434 45.9139 270.774C45.8973 270.412 45.911 270.05 45.955 269.69Z" fill="#455A64"/>
<path d="M33.6974 96.4545L47.6703 97.4226C47.8593 95.886 48.1306 90.0392 48.1306 90.0392C48.1306 90.0392 53.9581 89.5398 54.3855 84.1463C54.8129 78.7529 54.6321 66.2987 54.6321 66.2987C51.4375 64.7895 47.8696 64.1055 44.2974 64.3175C40.7252 64.5296 37.2785 65.63 34.3139 67.5049L33.418 68.0735L33.6974 96.4545Z" fill="#E5BAAB"/>
<path d="M52.644 75.4947C52.5333 75.3858 52.4592 75.2489 52.4308 75.1009C52.4025 74.953 52.4212 74.8006 52.4846 74.6625C52.548 74.5244 52.6534 74.4067 52.7877 74.324C52.9219 74.2413 53.0791 74.1973 53.2399 74.1973C53.4007 74.1973 53.5579 74.2413 53.6921 74.324C53.8264 74.4067 53.9317 74.5244 53.9952 74.6625C54.0586 74.8006 54.0773 74.953 54.049 75.1009C54.0206 75.2489 53.9465 75.3858 53.8358 75.4947C53.759 75.5703 53.6666 75.6304 53.5641 75.6716C53.4617 75.7127 53.3514 75.7339 53.2399 75.7339C53.1284 75.7339 53.0181 75.7127 52.9157 75.6716C52.8132 75.6304 52.7208 75.5703 52.644 75.4947Z" fill="#263238"/>
<path d="M54.1206 74.3426C54.022 74.4347 53.4877 73.9968 52.6904 73.943C51.8931 73.8892 51.2931 74.2427 51.2109 74.1428C51.1287 74.0429 51.2685 73.9353 51.5397 73.774C51.8894 73.5593 52.3067 73.4618 52.7233 73.4974C53.1431 73.5208 53.5424 73.675 53.8576 73.9353C54.0959 74.1274 54.1699 74.2888 54.1206 74.3426Z" fill="#263238"/>
<path d="M44.9161 74.4657C45.0463 74.5546 45.1456 74.6773 45.2018 74.8185C45.2579 74.9598 45.2684 75.1133 45.2319 75.2601C45.1954 75.4068 45.1136 75.5403 44.9966 75.6439C44.8796 75.7475 44.7326 75.8167 44.5738 75.8428C44.4151 75.869 44.2516 75.8509 44.1038 75.7908C43.956 75.7308 43.8303 75.6315 43.7424 75.5052C43.6545 75.3789 43.6082 75.2312 43.6094 75.0806C43.6106 74.9299 43.6591 74.7829 43.749 74.6578C43.8107 74.5719 43.8903 74.4986 43.983 74.4422C44.0758 74.3858 44.1798 74.3474 44.2888 74.3295C44.3978 74.3116 44.5095 74.3144 44.6173 74.3378C44.7251 74.3612 44.8267 74.4047 44.9161 74.4657Z" fill="#263238"/>
<path d="M45.441 74.5038C45.3423 74.5883 44.8081 74.1503 44.0108 74.0966C43.2135 74.0428 42.6135 74.4039 42.5313 74.304C42.4491 74.2041 42.5888 74.0889 42.8519 73.9275C43.2082 73.7206 43.6252 73.6239 44.0437 73.6509C44.4622 73.6794 44.8599 73.833 45.1779 74.0889C45.4163 74.2886 45.4903 74.4653 45.441 74.5038Z" fill="#263238"/>
<path d="M48.2286 80.8194C48.649 80.6979 49.0872 80.6383 49.5272 80.6427C49.7409 80.6427 49.9136 80.6043 49.9382 80.4967C49.959 80.2983 49.9191 80.0985 49.8231 79.9205L49.2971 78.3839C48.791 77.0701 48.4194 75.7144 48.1875 74.335C48.8244 75.5964 49.3335 76.9108 49.7081 78.261L50.2012 79.7976C50.3199 80.0518 50.3431 80.3362 50.267 80.6043C50.2324 80.6762 50.1802 80.7395 50.1145 80.7889C50.0487 80.8383 49.9714 80.8724 49.8889 80.8886C49.7716 80.9028 49.6528 80.9028 49.5355 80.8886C49.0987 80.9309 48.6575 80.9076 48.2286 80.8194Z" fill="#263238"/>
<path d="M45.5882 81.4876C44.7662 80.9805 47.7909 82.7553 49.4184 82.7783C49.1228 83.1527 48.6998 83.422 48.2189 83.5421C47.738 83.6621 47.2277 83.6258 46.7717 83.439C45.0786 82.7399 45.5882 81.4876 45.5882 81.4876Z" fill="white"/>
<path d="M48.0966 89.9625C45.4278 89.8571 42.8528 89.012 40.6992 87.5347C40.6992 87.5347 42.2198 91.5221 48.0144 91.3762L48.0966 89.9625Z" fill="#D78776"/>
<path d="M34.52 72.8598C34.3885 72.8137 30.2295 72.3067 30.624 76.9011C31.0186 81.4955 35.8515 79.5978 35.8433 79.4672C35.8351 79.3366 34.52 72.8598 34.52 72.8598Z" fill="#E5BAAB"/>
<path d="M34.1582 77.9691C34.1582 77.9691 34.0842 78.0306 33.9445 78.1074C33.7466 78.2022 33.5178 78.2242 33.3034 78.1689C32.9706 78.0029 32.6905 77.7578 32.4914 77.4584C32.2922 77.1589 32.1811 76.8157 32.1691 76.4632C32.1238 76.0711 32.1744 75.6744 32.3171 75.3031C32.35 75.1562 32.4202 75.0187 32.5217 74.9024C32.6233 74.7861 32.7532 74.6943 32.9007 74.6347C32.9977 74.6054 33.1025 74.6078 33.198 74.6412C33.2935 74.6747 33.3741 74.7374 33.4267 74.8191C33.5007 74.942 33.4842 75.0342 33.5089 75.0419C33.5335 75.0496 33.6075 74.9574 33.5089 74.773C33.4746 74.6602 33.399 74.5623 33.2952 74.4964C33.1494 74.4153 32.9765 74.3879 32.8102 74.4196C32.6145 74.4714 32.4362 74.5692 32.2923 74.7037C32.1484 74.8382 32.0438 75.0049 31.9883 75.1879C31.8111 75.5993 31.7461 76.0455 31.7993 76.4863C31.8084 76.8967 31.9476 77.2954 32.1993 77.6319C32.4509 77.9683 32.8037 78.2274 33.213 78.3763C33.3477 78.4027 33.4871 78.4006 33.6208 78.37C33.7545 78.3394 33.8792 78.2812 33.9856 78.1996C34.1582 78.0844 34.1829 77.9768 34.1582 77.9691Z" fill="#D78776"/>
<path d="M55.0034 64.3547C55.336 64.3464 55.6622 64.2667 55.9566 64.1217C56.2511 63.9767 56.5059 63.7704 56.7014 63.5187C56.8969 63.2669 57.0278 62.9765 57.0841 62.6699C57.1403 62.3633 57.1204 62.0487 57.0258 61.7505C56.9311 61.4523 56.7644 61.1784 56.5385 60.95C56.3125 60.7216 56.0334 60.5449 55.7227 60.4334C55.412 60.322 55.078 60.2789 54.7467 60.3073C54.4153 60.3358 54.0953 60.4352 53.8116 60.5977C54.4989 60.0644 55.059 59.4022 55.4554 58.6539C55.6472 58.2765 55.7106 57.8533 55.6371 57.4412C55.5637 57.0291 55.3568 56.6479 55.0445 56.349C54.6828 56.1253 54.2644 55.9947 53.8314 55.9704C53.3985 55.9462 52.9664 56.0291 52.5787 56.2107C51.354 56.7025 50.3841 57.6705 49.1266 58.0777C47.869 58.4849 46.4635 58.2852 45.1155 58.3389C43.603 58.3642 42.138 58.8376 40.9319 59.6911C39.9041 60.446 39.2389 61.5513 39.0825 62.7643C38.921 62.557 38.7424 62.3618 38.5483 62.1804C37.909 61.4673 37.0466 60.9594 36.0825 60.7284C36.0249 60.8282 37.151 61.4121 38.2277 62.457C38.5209 62.7192 38.7954 62.9989 39.0497 63.2945C37.1756 63.0793 35.1126 63.064 33.6331 64.155C33.0337 64.6544 32.56 65.2716 32.246 65.9623C31.9319 66.653 31.7853 67.4002 31.8166 68.1501C31.8166 69.6406 32.4742 71.062 32.9427 72.491C33.056 72.8959 33.2513 73.2767 33.518 73.6127L34.2249 77.4542L36.7976 77.4082L36.6332 69.3487C36.6332 69.3487 36.3702 65.9528 39.4935 66.2755C42.6168 66.5982 46.8909 69.8634 52.9568 69.0337C53.9521 68.9818 54.9217 68.7191 55.7924 68.2654C56.2139 68.0158 56.5564 67.6657 56.7847 67.251C57.013 66.8364 57.1188 66.3723 57.0911 65.9067C57.0313 65.4434 56.7786 65.0208 56.3879 64.7303C55.9972 64.4398 55.4998 64.3049 55.0034 64.3547Z" fill="#263238"/>
<path d="M107.275 104.129L107.654 101.686C108.04 100.35 108.282 98.9805 108.377 97.5989C108.439 96.9121 108.372 96.2205 108.18 95.5552C107.986 94.7178 107.665 93.9106 107.226 93.1581C106.749 92.5051 107.374 91.6215 108.048 91.8904C108.722 92.1594 110.128 93.8957 110.58 96.4004C111.032 98.905 113.144 95.4323 113.933 94.18C114.722 92.9276 117.377 89.1553 117.985 89.0785C118.873 88.9632 119.169 89.8468 118.339 91.0684C117.508 92.29 115.322 96.1699 116.054 96.5233C116.601 96.4415 117.161 96.4677 117.698 96.6001C117.784 96.6238 117.86 96.6721 117.916 96.7381C117.972 96.8042 118.005 96.8848 118.01 96.9689C118.007 97.3565 118.051 97.7431 118.141 98.1214C118.141 98.1214 119.218 97.8909 119.44 98.3288C119.59 98.7786 119.66 99.2485 119.646 99.7194C119.646 99.7194 120.467 99.4582 120.862 99.7194C121.684 100.342 120.632 101.41 120.632 101.41C118.212 104.108 115.612 106.661 112.848 109.054L107.185 103.953" fill="#E5BAAB"/>
<path d="M117.814 98.2907C117.573 98.7656 117.248 99.1993 116.853 99.5738C116.524 99.9426 116.113 100.342 115.628 100.826C115.375 101.078 115.1 101.309 114.806 101.518C114.625 101.652 114.406 101.735 114.176 101.757C113.946 101.779 113.714 101.738 113.507 101.641C113.395 101.579 113.3 101.493 113.23 101.39C113.16 101.287 113.117 101.17 113.105 101.049C113.088 100.832 113.139 100.616 113.253 100.427C113.455 100.141 113.675 99.8668 113.91 99.6045C114.329 99.1128 114.674 98.6518 114.962 98.2523C115.238 97.8006 115.554 97.3714 115.907 96.9692C115.77 97.4803 115.537 97.9643 115.217 98.3983C114.918 98.8922 114.589 99.3694 114.231 99.8273C114.012 100.072 113.809 100.329 113.622 100.596C113.474 100.849 113.483 101.164 113.721 101.279C113.855 101.332 114.002 101.351 114.146 101.333C114.291 101.316 114.428 101.263 114.543 101.18C114.816 100.986 115.074 100.776 115.316 100.55C115.809 100.119 116.236 99.7121 116.59 99.3663C116.958 98.9699 117.368 98.6095 117.814 98.2907Z" fill="#D78776"/>
<path d="M119.25 99.8656C119.008 100.276 118.698 100.647 118.33 100.964C117.959 101.336 117.554 101.678 117.121 101.986C116.862 102.17 116.587 102.334 116.3 102.478C116.129 102.558 115.946 102.612 115.757 102.639C115.643 102.657 115.526 102.651 115.414 102.623C115.302 102.596 115.198 102.546 115.108 102.478C114.956 102.331 114.86 102.142 114.835 101.939C114.81 101.736 114.856 101.532 114.968 101.356C115.134 101.082 115.33 100.825 115.552 100.588C115.913 100.196 116.25 99.8195 116.587 99.4431C117.187 98.7977 117.582 98.4212 117.631 98.4519C117.414 98.8738 117.138 99.2666 116.809 99.6198L115.889 100.841C115.694 101.059 115.519 101.29 115.363 101.533C115.299 101.631 115.27 101.745 115.279 101.859C115.288 101.973 115.334 102.082 115.412 102.171C115.56 102.301 115.872 102.247 116.143 102.124C116.413 101.994 116.674 101.848 116.924 101.686C117.351 101.402 117.76 101.094 118.149 100.765C118.476 100.424 118.845 100.122 119.25 99.8656Z" fill="#D78776"/>
<path d="M119.591 102.063C119.632 102.063 119.591 102.409 119.204 102.831C119.087 102.962 118.943 103.069 118.781 103.147C118.618 103.225 118.441 103.272 118.259 103.284C118.024 103.286 117.795 103.213 117.61 103.077C117.508 102.997 117.426 102.897 117.371 102.784C117.315 102.671 117.287 102.548 117.289 102.424C117.354 102.032 117.524 101.662 117.782 101.348C117.956 101.095 118.145 100.851 118.349 100.618C118.703 100.219 118.958 100.012 119.007 100.05C119.056 100.088 118.875 100.35 118.596 100.818C118.432 101.087 118.267 101.333 118.119 101.587C117.921 101.858 117.784 102.163 117.717 102.485C117.723 102.616 117.783 102.739 117.884 102.829C117.985 102.919 118.119 102.97 118.259 102.969C118.532 102.961 118.792 102.86 118.991 102.685C119.36 102.316 119.533 102.032 119.591 102.063Z" fill="#D78776"/>
<path d="M106.657 100.957C106.657 100.957 85.0974 120.786 82.0726 120.932C78.6205 121.086 68.0012 107.011 68.0012 107.011C61.2038 97.2073 52.2365 95.6246 48.9652 95.3787V94.1648L32.8964 92.9355C32.8964 92.9355 32.8964 94.2263 32.8964 95.3557H25.8031C25.8031 95.3557 13.0631 94.8102 11.1562 110.806L20.3126 117.575L24.0688 130.636C25.3757 135.184 20.7071 142.429 18.4797 154.161C18.1362 156.117 18.4854 158.124 19.4742 159.878L65.8723 164.864L63.4065 131.704L62.6586 124.021C66.4806 128.9 73.3437 135.799 81.7521 135.645C96.0948 135.392 116.018 107.218 116.018 107.218L106.657 100.957Z" fill="#E0E0E0"/>
<path d="M43.5605 93.9497C43.6402 94.6315 43.6402 95.3193 43.5605 96.0011C43.4406 97.7079 43.1934 99.4049 42.8207 101.08L42.7632 101.333L42.5166 101.21C41.9577 100.934 41.3741 100.642 40.7823 100.319C38.4809 99.0512 36.5165 97.7451 35.0288 96.8385C34.2257 96.3817 33.4517 95.8814 32.7109 95.3403C32.9569 95.4075 33.192 95.5057 33.4096 95.6323C33.837 95.8551 34.4534 96.1778 35.1932 96.6003C36.6891 97.4455 38.6782 98.7209 40.9467 99.9732C41.5221 100.288 42.0974 100.588 42.6563 100.864L42.3522 100.995C42.8289 99.0128 43.0591 97.238 43.2317 95.978C43.2972 95.2963 43.407 94.619 43.5605 93.9497Z" fill="#FAFAFA"/>
<path d="M49.017 95.4633C48.9138 96.1232 48.76 96.7754 48.5568 97.4147C48.4006 98.0217 48.2362 98.7439 47.9568 99.5276C47.8113 99.9419 47.6383 100.347 47.4389 100.741C47.3815 100.883 47.278 101.004 47.143 101.087C47.0494 101.141 46.9391 101.163 46.8301 101.151C46.7211 101.138 46.6199 101.091 46.543 101.018C46.389 100.806 46.2647 100.576 46.1732 100.334C45.3512 98.5902 44.7019 97.0075 44.2252 95.8474C43.9254 95.2396 43.6966 94.6034 43.543 93.9497C43.9269 94.5148 44.2491 95.1145 44.5046 95.7398C45.0553 96.8693 45.7869 98.4366 46.5677 100.181C46.6435 100.375 46.737 100.562 46.8471 100.741C46.8882 100.741 46.8471 100.741 46.9211 100.741C46.983 100.695 47.0311 100.634 47.0608 100.565C47.2575 100.187 47.4331 99.7996 47.5869 99.4046C47.8746 98.6363 48.0718 97.9295 48.2609 97.3379C48.4243 96.6849 48.6785 96.0546 49.017 95.4633Z" fill="#FAFAFA"/>
<path d="M46.0258 149.122C45.9865 148.942 45.9645 148.759 45.96 148.576C45.96 148.177 45.9271 147.664 45.8614 147.039C45.7956 145.626 45.697 143.667 45.5819 141.262C45.3847 136.345 45.1052 129.622 44.8093 122.2C44.5134 114.779 44.3244 108.056 44.16 103.139C44.1024 100.726 44.0531 98.7671 44.012 97.3535C44.012 96.7081 44.012 96.1856 44.012 95.8168C43.9908 95.633 43.9908 95.4475 44.012 95.2637C44.0499 95.4434 44.0692 95.626 44.0696 95.8092C44.0696 96.2087 44.1353 96.7311 44.1764 97.3458C44.2422 98.7517 44.3408 100.711 44.4559 103.116C44.6531 108.033 44.9244 114.755 45.2285 122.177C45.5326 129.599 45.7052 136.322 45.8778 141.246C45.9354 143.651 45.9847 145.61 46.0258 147.024C46.0258 147.677 46.0258 148.2 46.0258 148.599C46.0451 148.773 46.0451 148.948 46.0258 149.122Z" fill="#F5F5F5"/>
<path d="M43.1016 98.8054L44.4495 102.278L45.6085 98.5518L43.8084 94.8179L43.1016 98.8054Z" fill="#FF725E"/>
<path d="M44.6963 101.241L43.8086 140.332L50.121 152.671L52.6115 138.788L44.6963 101.241Z" fill="#FF725E"/>
<path d="M82.3096 125.765C82.3096 125.765 82.3096 125.88 82.3096 126.072L82.2603 126.364L82.1205 126.072C81.8025 125.295 81.6193 124.475 81.5781 123.644C81.4421 122.717 81.5609 121.773 81.9233 120.901C82.0466 120.901 81.9233 122.131 82.0055 123.621C82.0712 124.681 82.2521 125.588 82.3096 126.026H82.1205C82.1945 125.818 82.2767 125.765 82.3096 125.765Z" fill="#FAFAFA"/>
<path d="M84.1558 125.634C83.5428 125.033 83.087 124.307 82.8243 123.514C82.4288 122.781 82.2126 121.976 82.1914 121.155C82.6098 121.87 82.9512 122.621 83.2106 123.399C83.6026 124.114 83.9192 124.862 84.1558 125.634Z" fill="#FAFAFA"/>
<path d="M114.674 109.085C112.896 108.206 111.187 107.21 109.561 106.104C107.857 105.11 106.231 104.003 104.695 102.793C106.472 103.679 108.181 104.68 109.808 105.789C111.511 106.779 113.137 107.88 114.674 109.085Z" fill="#FAFAFA"/>
<path d="M25.0589 115.362C25.0589 115.362 21.6397 137.643 23.2589 138.887C32.2015 145.917 44.6291 149.605 49.0676 150.765C49.7169 150.619 50.4731 150.427 51.3443 150.166C52.0996 149.942 52.8084 149.599 53.4403 149.152C54.2471 148.623 54.9718 147.992 55.5937 147.277C55.6876 147.124 55.8302 147.002 56.0017 146.927C56.1732 146.853 56.3651 146.83 56.551 146.862C56.7369 146.894 56.9076 146.979 57.0394 147.106C57.1712 147.233 57.2577 147.395 57.2869 147.569C57.328 148.337 56.0129 150.312 53.5389 151.756C53.5389 151.756 59.2349 160.323 61.0514 161.099C62.8678 161.875 68.0625 164.057 67.183 164.472C66.3035 164.887 59.9828 163.173 59.9828 163.173L47.1607 159.969C47.1607 159.969 4.74893 153.754 7.56817 135.568C9.30244 124.42 11.1929 114.379 11.8751 111.835L25.0589 115.362Z" fill="#E5BAAB"/>
<path d="M11.1598 110.799L7.39537 135.085C6.5159 142.56 11.8749 148.499 19.0833 151.841C30.0561 156.92 46.3468 160.546 46.2071 160.523C46.0673 160.5 47.3084 149.683 47.3084 149.683C47.3084 149.683 24.4669 140.463 23.7518 136.468C23.0368 132.473 26.6533 115.877 26.6533 115.877L11.1598 110.799Z" fill="#E0E0E0"/>
<path d="M46.1735 160.523C46.1649 160.459 46.1649 160.394 46.1735 160.331C46.1735 160.177 46.1735 159.993 46.2146 159.77C46.2557 159.24 46.3132 158.525 46.3954 157.611C46.568 155.706 46.8228 153.001 47.1269 149.674L47.2174 149.813L35.7103 144.611L32.4226 143.075C31.313 142.521 30.1951 141.915 29.0855 141.246C27.9597 140.567 26.8783 139.825 25.8471 139.026C25.3293 138.619 24.8115 138.188 24.3183 137.735C24.0402 137.507 23.8163 137.227 23.6608 136.913C23.5736 136.761 23.51 136.598 23.4717 136.429C23.4177 136.269 23.3792 136.104 23.3566 135.937C22.9868 133.279 23.7429 130.774 24.1786 128.385C24.6142 125.995 25.0498 123.667 25.4608 121.47C26.2827 117.06 27.0307 113.096 27.6554 109.746C27.9926 108.262 28.1852 106.752 28.2307 105.236C28.2466 104.095 27.994 102.964 27.491 101.924C27.1683 101.268 26.7102 100.678 26.143 100.188C25.7485 99.8578 25.5101 99.7272 25.5183 99.7041C25.7628 99.8192 25.9919 99.961 26.2005 100.127C26.804 100.603 27.294 101.191 27.6389 101.855C28.1784 102.911 28.4592 104.066 28.4608 105.236C28.4425 106.766 28.2691 108.292 27.943 109.792C27.343 113.149 26.6279 117.121 25.8389 121.539C25.4361 123.744 25.0169 126.064 24.5813 128.454C24.4745 129.053 24.3594 129.66 24.2443 130.275C24.1293 130.889 24.006 131.489 23.9156 132.103C23.6994 133.345 23.6635 134.609 23.8087 135.86C23.8347 136.013 23.8704 136.165 23.9156 136.314C23.9479 136.461 24.0033 136.604 24.0799 136.736C24.2153 137.008 24.4115 137.249 24.6553 137.443C25.1402 137.889 25.6416 138.311 26.1512 138.711C27.1687 139.503 28.2364 140.236 29.3485 140.908C30.4417 141.576 31.5431 142.176 32.6363 142.729L35.924 144.266L47.3407 149.582L47.4311 149.628V149.72C47.0612 153.047 46.7653 155.744 46.5598 157.649C46.4447 158.556 46.3626 159.278 46.2968 159.801C46.2639 160.026 46.2393 160.21 46.2228 160.354C46.2123 160.411 46.1957 160.468 46.1735 160.523Z" fill="#FAFAFA"/>
<path d="M44.0518 148.199C44.0762 148.756 44.0293 149.313 43.9121 149.859C43.7724 150.873 43.5422 152.271 43.2381 153.808C42.934 155.344 42.5888 156.727 42.3093 157.718C42.1966 158.265 42.0058 158.795 41.7422 159.293C41.7709 158.738 41.8618 158.187 42.0134 157.649C42.2545 156.492 42.5285 155.186 42.8354 153.731C43.123 151.866 43.5292 150.019 44.0518 148.199Z" fill="#FAFAFA"/>
<path d="M46.1726 160.523C46.0358 160.522 45.8999 160.502 45.7699 160.461L44.6438 160.208L40.5342 159.194C37.0574 158.318 32.2244 157.165 27.0462 155.391C24.6095 154.558 22.2367 153.569 19.9447 152.433C18.0723 151.502 16.2854 150.427 14.6022 149.221C13.4665 148.409 12.3952 147.52 11.3966 146.563C11.0432 146.225 10.7884 145.956 10.5747 145.795C10.4768 145.704 10.3938 145.6 10.3281 145.487C10.3281 145.487 10.7391 145.848 11.4788 146.486C12.5209 147.393 13.6187 148.242 14.7666 149.029C16.4663 150.172 18.2517 151.199 20.1091 152.102C22.3954 153.213 24.7566 154.183 27.1778 155.007C32.3231 156.774 37.1478 157.965 40.5999 158.917L44.7096 160.047L45.8192 160.377C45.9432 160.411 46.062 160.46 46.1726 160.523Z" fill="#FAFAFA"/>
<path d="M46.4556 150.796C46.4605 150.933 46.4215 151.069 46.3436 151.185C46.2658 151.302 46.1525 151.394 46.0183 151.45C45.8841 151.506 45.7351 151.524 45.5903 151.5C45.4455 151.477 45.3114 151.414 45.2051 151.319C45.0989 151.224 45.0253 151.101 44.9938 150.967C44.9623 150.833 44.9742 150.693 45.0281 150.565C45.0821 150.437 45.1755 150.328 45.2965 150.25C45.4176 150.172 45.5607 150.129 45.7077 150.127C45.9011 150.125 46.0877 150.194 46.2275 150.319C46.3673 150.444 46.4492 150.615 46.4556 150.796Z" fill="#FAFAFA"/>
</svg>
