<svg width="350" height="285" viewBox="0 0 350 285" fill="none" xmlns="http://www.w3.org/2000/svg">
<path d="M350.001 249.619H0V249.81H350.001V249.619Z" fill="#E6E6E6"/>
<path d="M312.096 256.214H299.125V256.404H312.096V256.214Z" fill="#E6E6E6"/>
<path d="M294.527 256.214H276.215V256.404H294.527V256.214Z" fill="#E6E6E6"/>
<path d="M244.576 256.405H231.023V256.595H244.576V256.405Z" fill="#E6E6E6"/>
<path d="M59.3386 254.674H29.1055V254.864H59.3386V254.674Z" fill="#E6E6E6"/>
<path d="M22.8685 254.674H18.4375V254.864H22.8685V254.674Z" fill="#E6E6E6"/>
<path d="M115.465 260.415H71.3789V260.606H115.465V260.415Z" fill="#E6E6E6"/>
<path d="M165.9 215.615H30.7361C29.6772 215.613 28.6624 215.153 27.9143 214.337C27.1662 213.521 26.7461 212.414 26.7461 211.261V4.31534C26.7553 3.16867 27.1795 2.07226 27.9266 1.26427C28.6737 0.456281 29.6833 0.00196431 30.7361 0H165.9C166.96 0 167.976 0.458667 168.726 1.2751C169.476 2.09153 169.897 3.19885 169.897 4.35346V211.261C169.897 212.416 169.476 213.523 168.726 214.34C167.976 215.156 166.96 215.615 165.9 215.615ZM30.7361 0.152486C29.7237 0.154506 28.7533 0.593981 28.0381 1.37445C27.3228 2.15492 26.9211 3.2126 26.9211 4.31534V211.261C26.9211 212.364 27.3228 213.422 28.0381 214.202C28.7533 214.983 29.7237 215.422 30.7361 215.424H165.9C166.913 215.422 167.884 214.983 168.6 214.203C169.317 213.422 169.72 212.365 169.722 211.261V4.31534C169.72 3.2119 169.317 2.15423 168.6 1.37398C167.884 0.593733 166.913 0.154502 165.9 0.152486H30.7361Z" fill="#E6E6E6"/>
<path d="M317.316 215.615H182.145C181.086 215.613 180.07 215.153 179.321 214.337C178.572 213.521 178.15 212.415 178.148 211.261V4.31534C178.159 3.16798 178.585 2.07158 179.333 1.2638C180.082 0.456015 181.092 0.00194289 182.145 0H317.316C318.368 0.00396805 319.375 0.459172 320.121 1.26695C320.867 2.07472 321.29 3.16999 321.299 4.31534V211.261C321.299 212.413 320.88 213.518 320.133 214.334C319.387 215.15 318.374 215.611 317.316 215.615ZM182.145 0.152486C181.132 0.154502 180.161 0.593733 179.445 1.37398C178.729 2.15423 178.325 3.2119 178.323 4.31534V211.261C178.325 212.365 178.729 213.422 179.445 214.203C180.161 214.983 181.132 215.422 182.145 215.424H317.316C318.329 215.422 319.3 214.983 320.017 214.203C320.733 213.422 321.136 212.365 321.138 211.261V4.31534C321.136 3.2119 320.733 2.15423 320.017 1.37398C319.3 0.593733 318.329 0.154502 317.316 0.152486H182.145Z" fill="#E6E6E6"/>
<path d="M294.717 23.2998H199.727V122.08H294.717V23.2998Z" fill="#E0E0E0"/>
<path d="M296.822 23.2998H201.832V122.08H296.822V23.2998Z" fill="#F5F5F5"/>
<path d="M293.035 117.445V27.9355L205.626 27.9355V117.445H293.035Z" fill="white"/>
<path d="M293.035 117.445V27.9355H291.439V117.445H293.035Z" fill="#E0E0E0"/>
<path d="M295.253 89.6235H203.398V95.845H295.253V89.6235Z" fill="#F5F5F5"/>
<path d="M177.277 201.471H158.531V246.752H177.277V201.471Z" fill="#E6E6E6"/>
<path d="M244.677 246.752H162.133V249.619H244.677V246.752Z" fill="#E6E6E6"/>
<path d="M177.275 246.752H248.27V201.472H177.275V246.752Z" fill="#FAFAFA"/>
<path d="M184.646 221.897H240.898V207.045H184.646V221.897Z" fill="#E6E6E6"/>
<path d="M184.646 241.171H240.898V226.319H184.646V241.171Z" fill="#E6E6E6"/>
<path d="M221.209 213.449H204.346C203.889 213.449 203.52 213.852 203.52 214.349V214.585C203.52 215.082 203.889 215.485 204.346 215.485H221.209C221.665 215.485 222.035 215.082 222.035 214.585V214.349C222.035 213.852 221.665 213.449 221.209 213.449Z" fill="#FAFAFA"/>
<path d="M221.209 232.731H204.346C203.889 232.731 203.52 233.134 203.52 233.631V233.867C203.52 234.364 203.889 234.767 204.346 234.767H221.209C221.665 234.767 222.035 234.364 222.035 233.867V233.631C222.035 233.134 221.665 232.731 221.209 232.731Z" fill="#FAFAFA"/>
<path d="M62.7842 153.568H43.6602V243.893H62.7842V153.568Z" fill="#E6E6E6"/>
<path d="M141.636 243.894H47.332V249.619H141.636V243.894Z" fill="#E6E6E6"/>
<path d="M62.7853 243.894H145.309V153.569H62.7853L62.7853 243.894Z" fill="#FAFAFA"/>
<path d="M70.3018 194.305H137.789V164.677H70.3018V194.305Z" fill="#E6E6E6"/>
<path d="M70.3018 232.777H137.789V203.149H70.3018V232.777Z" fill="#E6E6E6"/>
<path d="M111.623 181.527H96.4675C95.9742 181.525 95.5017 181.31 95.1529 180.93C94.8041 180.55 94.6073 180.036 94.6055 179.499C94.6055 178.96 94.8014 178.443 95.1504 178.062C95.4994 177.68 95.973 177.465 96.4675 177.463H111.623C112.117 177.465 112.591 177.68 112.94 178.062C113.289 178.443 113.485 178.96 113.485 179.499C113.483 180.036 113.286 180.55 112.937 180.93C112.588 181.31 112.116 181.525 111.623 181.527Z" fill="#FAFAFA"/>
<path d="M111.623 219.991H96.4675C95.9742 219.989 95.5017 219.775 95.1529 219.395C94.8041 219.015 94.6073 218.5 94.6055 217.963C94.6073 217.426 94.8041 216.911 95.1529 216.531C95.5017 216.151 95.9742 215.937 96.4675 215.935H111.623C112.116 215.937 112.588 216.151 112.937 216.531C113.286 216.911 113.483 217.426 113.485 217.963C113.485 218.501 113.288 219.017 112.939 219.397C112.59 219.777 112.116 219.991 111.623 219.991Z" fill="#FAFAFA"/>
<path d="M220.5 194.289C220.5 194.289 206.416 167.841 225.953 146.79C225.953 146.79 231.056 150.404 230.979 155.276C230.902 160.148 225.519 161.375 226.674 165.439C227.829 169.503 232.911 173.483 229.579 176.875C226.247 180.268 230.111 183.219 229.887 187.336C229.663 191.453 220.5 194.289 220.5 194.289Z" fill="#FAFAFA"/>
<path d="M199.906 186.734C199.906 186.734 200.389 201.472 218.855 201.472C237.321 201.472 237.797 186.734 237.797 186.734H199.906Z" fill="#E6E6E6"/>
<path d="M221.567 196.707C221.567 196.707 227.272 166.766 202.667 153.5C202.667 153.5 198.88 158.692 200.364 163.282C201.848 167.872 207.308 167.193 207.364 171.448C207.42 175.702 203.766 181.23 207.91 183.265C212.054 185.301 209.233 189.479 210.64 193.306C212.047 197.134 221.567 196.707 221.567 196.707Z" fill="#E6E6E6"/>
<path d="M109.234 69.2588C109.234 69.2588 109.717 78.1182 128.176 78.1182C146.636 78.1182 147.126 69.2588 147.126 69.2588H109.234Z" fill="#F0F0F0"/>
<path d="M59.1716 84.5688L56.1406 106.595H59.1716L77.7637 84.5688H59.1716Z" fill="#F5F5F5"/>
<path d="M56.1406 84.5688V106.595L74.7327 84.5688H56.1406Z" fill="#E0E0E0"/>
<path d="M132.093 84.5688L129.055 106.595H132.093L150.685 84.5688H132.093Z" fill="#F5F5F5"/>
<path d="M129.055 84.5688V106.595L147.654 84.5688H129.055Z" fill="#E0E0E0"/>
<path d="M42.48 84.9878H62.7031V78.1183H42.48V84.9878Z" fill="#E0E0E0"/>
<path d="M163.252 78.1187H62.7109V84.9881H163.252V78.1187Z" fill="#F5F5F5"/>
<path d="M83.3704 49.8935C88.5994 50.6559 91.8334 38.3122 80.2904 27.8364C80.9134 39.959 74.2633 48.5287 83.3704 49.8935Z" fill="#E0E0E0"/>
<path d="M87.2115 66.1027C94.7856 60.3159 89.5985 40.1039 66.1484 41.5678C76.2985 56.4199 73.9955 76.182 87.2115 66.1027Z" fill="#E0E0E0"/>
<path d="M84.5395 65.9656C79.4995 60.0567 86.6395 45.1894 104.791 50.6179C94.5565 60.4074 93.3175 76.2431 84.5395 65.9656Z" fill="#E0E0E0"/>
<path d="M90.9993 57.3497C92.7423 55.0624 94.8003 52.4396 94.3033 49.7254C93.8063 47.0111 92.5533 44.9297 93.5473 42.002C94.7373 38.4948 94.5063 34.3091 92.4973 34.6598C90.4883 35.0105 88.2343 37.5799 88.2973 40.9727C88.3603 44.3655 86.3583 45.3186 84.5033 47.0721C82.6483 48.8257 81.9272 51.3722 81.5912 53.934C81.0102 57.9139 76.2712 57.1591 75.0112 60.6205C73.7162 63.9599 76.3062 68.4125 80.4502 69.4342C84.5943 70.4558 87.5483 71.0963 90.3763 67.5738C93.2463 63.7693 88.4163 60.6586 90.9993 57.3497Z" fill="#F5F5F5"/>
<path d="M76.7346 78.1186H92.3097L93.4857 66.8423H75.5586L76.7346 78.1186Z" fill="#E6E6E6"/>
<path d="M74.4044 68.855H94.6484V66.3695H74.4044V68.855Z" fill="#E6E6E6"/>
<path d="M127.303 141.416H110.391V153.561H127.303V141.416Z" fill="#F5F5F5"/>
<path d="M97.6926 153.568H110.391V141.422H97.6926V153.568Z" fill="#E0E0E0"/>
<path d="M92.7364 134.95H85.4844V153.568H92.7364V134.95Z" fill="#F5F5F5"/>
<path d="M80.0383 153.568H85.4844V134.949H80.0383V153.568Z" fill="#E0E0E0"/>
<path d="M175.001 284.05C249.959 284.05 310.724 280.186 310.724 275.42C310.724 270.653 249.959 266.789 175.001 266.789C100.043 266.789 39.2773 270.653 39.2773 275.42C39.2773 280.186 100.043 284.05 175.001 284.05Z" fill="#F5F5F5"/>
<path d="M110.03 134.813C110.837 135.199 111.69 135.456 112.564 135.575C114.361 135.813 116.178 135.354 117.695 134.279C120.096 132.586 121.552 129.62 121.321 126.891C121.309 126.757 121.251 126.634 121.159 126.545C121.067 126.456 120.947 126.408 120.824 126.411C118.651 126.394 116.502 126.903 114.532 127.903C112.562 128.903 110.821 130.367 109.435 132.19C108.777 129.14 108.196 125.915 107.776 122.591C108.941 123.562 110.31 124.202 111.759 124.451C112.359 124.53 112.967 124.502 113.558 124.367C116.687 123.666 119.158 120.014 121.412 116.164C121.454 116.095 121.482 116.017 121.494 115.935C121.506 115.854 121.502 115.771 121.482 115.691C121.463 115.614 121.428 115.543 121.38 115.483C121.331 115.424 121.27 115.377 121.202 115.348C115.497 112.755 109.449 118.359 107.517 120.38C107.224 117.58 107.067 114.765 107.048 111.947C108.269 112.37 109.522 112.672 110.793 112.847C113.866 113.236 116.449 112.656 118.297 111.101C120.488 109.271 121.503 106.229 121.23 102.318C121.225 102.243 121.205 102.17 121.171 102.104C121.138 102.038 121.093 101.98 121.039 101.934C120.984 101.889 120.921 101.856 120.854 101.838C120.787 101.82 120.717 101.817 120.649 101.83C114.153 102.859 109.162 107.388 107.083 109.569C107.083 109.065 107.083 108.562 107.132 108.044C107.14 107.919 107.108 107.795 107.041 107.693C106.984 106.736 106.732 105.805 106.303 104.968C105.875 104.131 105.28 103.408 104.563 102.852C102.932 101.7 100.65 101.548 97.7732 102.386C97.6885 102.413 97.6098 102.459 97.5423 102.52C97.4748 102.582 97.4199 102.659 97.3812 102.745C97.3431 102.826 97.3232 102.916 97.3232 103.008C97.3232 103.099 97.3431 103.189 97.3812 103.271C97.5002 103.492 100.013 108.112 104.444 108.684C104.924 108.73 105.407 108.73 105.886 108.684C105.83 110.072 105.809 111.467 105.83 112.862C104.288 111.422 102.475 110.366 100.519 109.768C98.5622 109.17 96.5096 109.045 94.5042 109.401C94.3457 109.429 94.203 109.521 94.1052 109.66C94.0589 109.727 94.0262 109.803 94.0093 109.885C93.9924 109.966 93.9917 110.051 94.0072 110.133C94.8892 114.852 97.0242 118.031 99.7192 118.626C99.8382 118.626 99.9642 118.672 100.097 118.695C101.497 118.87 103.499 118.42 105.935 115.897C106.107 119.122 106.441 122.334 106.936 125.519C104.584 123.864 99.1872 120.837 94.3852 123.78C94.2635 123.85 94.1699 123.967 94.1221 124.108C94.0743 124.248 94.0758 124.403 94.1262 124.543C96.0792 128.843 98.2072 131.084 100.643 131.404H100.706C102.736 131.641 104.906 130.543 107.363 128.08C107.916 131.191 108.574 134.18 109.274 136.955C107.006 134.889 104.108 134.797 100.321 136.65C100.238 136.692 100.165 136.753 100.107 136.829C100.049 136.906 100.007 136.996 99.9852 137.092C99.9632 137.184 99.964 137.28 99.9873 137.371C100.011 137.462 100.056 137.545 100.118 137.611C100.279 137.786 103.03 140.66 106.418 141.08C107.713 141.257 109.026 141.01 110.191 140.371C111.58 145.447 113.273 150.419 115.259 155.253C115.299 155.344 115.36 155.422 115.436 155.48C115.512 155.537 115.601 155.572 115.693 155.581C115.818 155.594 115.944 155.57 116.057 155.512C116.201 155.436 116.313 155.303 116.371 155.14C116.428 154.978 116.426 154.797 116.365 154.636C113.75 148.232 111.631 141.601 110.03 134.813Z" fill="#E45E14"/>
<g opacity="0.6">
<path d="M110.03 134.813C110.837 135.199 111.69 135.456 112.564 135.575C114.361 135.813 116.178 135.354 117.695 134.279C120.096 132.586 121.552 129.62 121.321 126.891C121.309 126.757 121.251 126.634 121.159 126.545C121.067 126.456 120.947 126.408 120.824 126.411C118.651 126.394 116.502 126.903 114.532 127.903C112.562 128.903 110.821 130.367 109.435 132.19C108.777 129.14 108.196 125.915 107.776 122.591C108.941 123.562 110.31 124.202 111.759 124.451C112.359 124.53 112.967 124.502 113.558 124.367C116.687 123.666 119.158 120.014 121.412 116.164C121.454 116.095 121.482 116.017 121.494 115.935C121.506 115.854 121.502 115.771 121.482 115.691C121.463 115.614 121.428 115.543 121.38 115.483C121.331 115.424 121.27 115.377 121.202 115.348C115.497 112.755 109.449 118.359 107.517 120.38C107.224 117.58 107.067 114.765 107.048 111.947C108.269 112.37 109.522 112.672 110.793 112.847C113.866 113.236 116.449 112.656 118.297 111.101C120.488 109.271 121.503 106.229 121.23 102.318C121.225 102.243 121.205 102.17 121.171 102.104C121.138 102.038 121.093 101.98 121.039 101.934C120.984 101.889 120.921 101.856 120.854 101.838C120.787 101.82 120.717 101.817 120.649 101.83C114.153 102.859 109.162 107.388 107.083 109.569C107.083 109.065 107.083 108.562 107.132 108.044C107.14 107.919 107.108 107.795 107.041 107.693C106.984 106.736 106.732 105.805 106.303 104.968C105.875 104.131 105.28 103.408 104.563 102.852C102.932 101.7 100.65 101.548 97.7732 102.386C97.6885 102.413 97.6098 102.459 97.5423 102.52C97.4748 102.582 97.4199 102.659 97.3812 102.745C97.3431 102.826 97.3232 102.916 97.3232 103.008C97.3232 103.099 97.3431 103.189 97.3812 103.271C97.5002 103.492 100.013 108.112 104.444 108.684C104.924 108.73 105.407 108.73 105.886 108.684C105.83 110.072 105.809 111.467 105.83 112.862C104.288 111.422 102.475 110.366 100.519 109.768C98.5622 109.17 96.5096 109.045 94.5042 109.401C94.3457 109.429 94.203 109.521 94.1052 109.66C94.0589 109.727 94.0262 109.803 94.0093 109.885C93.9924 109.966 93.9917 110.051 94.0072 110.133C94.8892 114.852 97.0242 118.031 99.7192 118.626C99.8382 118.626 99.9642 118.672 100.097 118.695C101.497 118.87 103.499 118.42 105.935 115.897C106.107 119.122 106.441 122.334 106.936 125.519C104.584 123.864 99.1872 120.837 94.3852 123.78C94.2635 123.85 94.1699 123.967 94.1221 124.108C94.0743 124.248 94.0758 124.403 94.1262 124.543C96.0792 128.843 98.2072 131.084 100.643 131.404H100.706C102.736 131.641 104.906 130.543 107.363 128.08C107.916 131.191 108.574 134.18 109.274 136.955C107.006 134.889 104.108 134.797 100.321 136.65C100.238 136.692 100.165 136.753 100.107 136.829C100.049 136.906 100.007 136.996 99.9852 137.092C99.9632 137.184 99.964 137.28 99.9873 137.371C100.011 137.462 100.056 137.545 100.118 137.611C100.279 137.786 103.03 140.66 106.418 141.08C107.713 141.257 109.026 141.01 110.191 140.371C111.58 145.447 113.273 150.419 115.259 155.253C115.299 155.344 115.36 155.422 115.436 155.48C115.512 155.537 115.601 155.572 115.693 155.581C115.818 155.594 115.944 155.57 116.057 155.512C116.201 155.436 116.313 155.303 116.371 155.14C116.428 154.978 116.426 154.797 116.365 154.636C113.75 148.232 111.631 141.601 110.03 134.813Z" fill="black"/>
</g>
<path d="M292.497 116.903H123.236C120.456 116.903 118.203 119.357 118.203 122.385V235.925C118.203 238.953 120.456 241.407 123.236 241.407H292.497C295.277 241.407 297.53 238.953 297.53 235.925V122.385C297.53 119.357 295.277 116.903 292.497 116.903Z" fill="#E45E14"/>
<path opacity="0.6" d="M292.497 116.903H123.236C120.456 116.903 118.203 119.357 118.203 122.385V235.925C118.203 238.953 120.456 241.407 123.236 241.407H292.497C295.277 241.407 297.53 238.953 297.53 235.925V122.385C297.53 119.357 295.277 116.903 292.497 116.903Z" fill="black"/>
<path d="M230.805 275.419H188.93C193.032 258.57 190.575 240.416 181.566 223.574H223.441C232.45 240.416 234.907 258.57 230.805 275.419Z" fill="#E45E14"/>
<path d="M228.624 275.419H186.743C190.845 258.57 188.395 240.416 179.379 223.574H221.26C230.304 240.416 232.726 258.57 228.624 275.419Z" fill="#E45E14"/>
<path d="M230.052 247.789H187.716C186.262 239.253 183.44 231.061 179.379 223.59H221.715C225.77 231.064 228.592 239.254 230.052 247.789Z" fill="#E45E14"/>
<g opacity="0.4">
<path d="M230.809 275.419H188.934C193.036 258.57 190.579 240.416 181.57 223.574H223.444C232.454 240.416 234.911 258.57 230.809 275.419Z" fill="black"/>
<path d="M228.624 275.419H186.743C190.845 258.57 188.395 240.416 179.379 223.574H221.26C230.304 240.416 232.726 258.57 228.624 275.419Z" fill="black"/>
<path d="M230.052 247.789H187.716C186.262 239.253 183.44 231.061 179.379 223.59H221.715C225.77 231.064 228.592 239.254 230.052 247.789Z" fill="black"/>
</g>
<path d="M228.624 275.419H186.743C190.845 258.57 188.395 240.416 179.379 223.574H221.26C230.304 240.416 232.726 258.57 228.624 275.419Z" fill="#E45E14"/>
<path opacity="0.2" d="M228.624 275.419H186.743C190.845 258.57 188.395 240.416 179.379 223.574H221.26C230.304 240.416 232.726 258.57 228.624 275.419Z" fill="black"/>
<path opacity="0.2" d="M229.6 247.789H187.67C186.228 239.261 183.433 231.072 179.41 223.59H221.34C225.363 231.072 228.159 239.261 229.6 247.789Z" fill="black"/>
<path d="M290.118 116.903H120.857C118.078 116.903 115.824 119.357 115.824 122.385V235.925C115.824 238.953 118.078 241.407 120.857 241.407H290.118C292.898 241.407 295.151 238.953 295.151 235.925V122.385C295.151 119.357 292.898 116.903 290.118 116.903Z" fill="#E45E14"/>
<path opacity="0.3" d="M290.118 116.903H120.857C118.078 116.903 115.824 119.357 115.824 122.385V235.925C115.824 238.953 118.078 241.407 120.857 241.407H290.118C292.898 241.407 295.151 238.953 295.151 235.925V122.385C295.151 119.357 292.898 116.903 290.118 116.903Z" fill="black"/>
<path d="M220.852 271.813H173.041C172.163 271.813 171.321 272.193 170.7 272.869C170.079 273.546 169.73 274.463 169.73 275.419H224.163C224.163 274.463 223.814 273.546 223.193 272.869C222.572 272.193 221.73 271.813 220.852 271.813Z" fill="#E45E14"/>
<path opacity="0.3" d="M220.852 271.813H173.041C172.163 271.813 171.321 272.193 170.7 272.869C170.079 273.546 169.73 274.463 169.73 275.419H224.163C224.163 274.463 223.814 273.546 223.193 272.869C222.572 272.193 221.73 271.813 220.852 271.813Z" fill="black"/>
<path d="M295.151 123.208H115.824V223.567H295.151V123.208Z" fill="#E45E14"/>
<path opacity="0.84" d="M295.085 123.208H115.758V223.567H295.085V123.208Z" fill="#FAFAFA"/>
<path opacity="0.23" d="M269.087 130.962H148.273C147.175 130.962 146.285 131.931 146.285 133.127V210.102C146.285 211.298 147.175 212.267 148.273 212.267H269.087C270.185 212.267 271.075 211.298 271.075 210.102V133.127C271.075 131.931 270.185 130.962 269.087 130.962Z" fill="#E45E14"/>
<path opacity="0.67" d="M270.551 136.559V210.102C270.551 210.677 270.342 211.227 269.969 211.634C269.596 212.04 269.09 212.268 268.563 212.268H147.75C147.223 212.266 146.718 212.037 146.346 211.631C145.974 211.226 145.764 210.676 145.762 210.102V136.559H270.551Z" fill="#FAFAFA"/>
<path opacity="0.41" d="M270.187 139.44H146.125V209.393H270.187V139.44Z" fill="white"/>
<path opacity="0.19" d="M244.856 187.733C241.596 187.733 238.409 186.68 235.698 184.707C232.987 182.734 230.874 179.929 229.626 176.649C228.378 173.368 228.052 169.758 228.688 166.275C229.324 162.792 230.894 159.592 233.199 157.081C235.505 154.57 238.442 152.86 241.64 152.167C244.838 151.474 248.152 151.83 251.165 153.189C254.177 154.548 256.752 156.849 258.563 159.802C260.374 162.755 261.341 166.226 261.341 169.777C261.336 174.538 259.597 179.101 256.507 182.467C253.416 185.833 249.227 187.727 244.856 187.733ZM244.856 152.013C241.63 152.013 238.477 153.055 235.795 155.007C233.113 156.959 231.022 159.733 229.788 162.979C228.553 166.225 228.23 169.797 228.86 173.243C229.489 176.689 231.042 179.854 233.323 182.339C235.604 184.823 238.51 186.515 241.674 187.201C244.838 187.886 248.117 187.534 251.098 186.19C254.078 184.845 256.625 182.568 258.417 179.647C260.21 176.726 261.166 173.291 261.166 169.777C261.163 165.067 259.443 160.551 256.385 157.22C253.327 153.89 249.181 152.017 244.856 152.013Z" fill="#E45E14"/>
<path opacity="0.19" d="M217.141 187.733C213.881 187.733 210.694 186.68 207.983 184.707C205.272 182.734 203.159 179.929 201.911 176.649C200.663 173.368 200.337 169.758 200.973 166.275C201.609 162.792 203.179 159.592 205.485 157.081C207.79 154.57 210.727 152.86 213.925 152.167C217.123 151.474 220.438 151.83 223.45 153.189C226.462 154.548 229.037 156.849 230.848 159.802C232.66 162.755 233.626 166.226 233.626 169.777C233.619 174.537 231.88 179.099 228.79 182.465C225.7 185.83 221.511 187.725 217.141 187.733ZM217.141 152.013C213.916 152.013 210.762 153.055 208.08 155.007C205.398 156.959 203.307 159.733 202.073 162.979C200.838 166.225 200.515 169.797 201.145 173.243C201.774 176.689 203.327 179.854 205.608 182.339C207.889 184.823 210.796 186.515 213.959 187.201C217.123 187.886 220.403 187.534 223.383 186.19C226.363 184.845 228.91 182.568 230.703 179.647C232.495 176.726 233.451 173.291 233.451 169.777C233.446 165.068 231.726 160.553 228.668 157.223C225.611 153.892 221.465 152.019 217.141 152.013Z" fill="#E45E14"/>
<path opacity="0.19" d="M261.256 197.766H163.955C163.944 197.766 163.932 197.763 163.922 197.758C163.911 197.753 163.901 197.746 163.893 197.737C163.885 197.727 163.879 197.716 163.876 197.704C163.872 197.692 163.87 197.68 163.871 197.667V194.716C163.87 194.704 163.872 194.691 163.876 194.679C163.879 194.667 163.885 194.656 163.893 194.647C163.901 194.637 163.911 194.63 163.922 194.625C163.932 194.62 163.944 194.617 163.955 194.617H261.256C261.267 194.617 261.279 194.62 261.29 194.625C261.3 194.63 261.31 194.637 261.318 194.647C261.326 194.656 261.332 194.667 261.336 194.679C261.339 194.691 261.341 194.704 261.34 194.716V197.667C261.341 197.68 261.339 197.692 261.336 197.704C261.332 197.716 261.326 197.727 261.318 197.737C261.31 197.746 261.3 197.753 261.29 197.758C261.279 197.763 261.267 197.766 261.256 197.766ZM164.018 197.575H261.165V194.808H164.018V197.575Z" fill="#E45E14"/>
<path opacity="0.19" d="M266.7 202.92H149.631C149.62 202.92 149.608 202.918 149.597 202.913C149.587 202.907 149.577 202.9 149.569 202.891C149.561 202.881 149.555 202.87 149.551 202.858C149.548 202.846 149.546 202.834 149.547 202.821V146.005C149.546 145.992 149.548 145.98 149.551 145.968C149.555 145.956 149.561 145.945 149.569 145.935C149.577 145.926 149.587 145.918 149.597 145.913C149.608 145.908 149.62 145.906 149.631 145.906H266.7C266.711 145.906 266.723 145.908 266.733 145.913C266.744 145.918 266.754 145.926 266.762 145.935C266.77 145.945 266.776 145.956 266.779 145.968C266.783 145.98 266.785 145.992 266.784 146.005V202.806C266.787 202.82 266.787 202.834 266.784 202.848C266.782 202.862 266.776 202.875 266.768 202.886C266.76 202.897 266.749 202.906 266.737 202.912C266.726 202.918 266.713 202.921 266.7 202.92ZM149.743 202.73H266.644V146.096H149.722L149.743 202.73Z" fill="#E45E14"/>
<path d="M265.141 133.776C265.139 134.004 265.2 134.227 265.315 134.417C265.431 134.607 265.595 134.756 265.788 134.845C265.981 134.933 266.194 134.957 266.4 134.913C266.605 134.87 266.794 134.761 266.943 134.6C267.091 134.439 267.192 134.234 267.234 134.011C267.275 133.787 267.255 133.555 267.175 133.344C267.095 133.134 266.96 132.953 266.786 132.826C266.612 132.7 266.407 132.632 266.198 132.632C266.059 132.631 265.922 132.66 265.794 132.717C265.665 132.774 265.549 132.858 265.451 132.964C265.352 133.07 265.274 133.197 265.221 133.336C265.168 133.475 265.141 133.625 265.141 133.776Z" fill="white"/>
<path d="M262.455 134.927C263.039 134.927 263.512 134.412 263.512 133.776C263.512 133.14 263.039 132.625 262.455 132.625C261.872 132.625 261.398 133.14 261.398 133.776C261.398 134.412 261.872 134.927 262.455 134.927Z" fill="white"/>
<path d="M258.705 134.927C259.289 134.927 259.762 134.412 259.762 133.776C259.762 133.14 259.289 132.625 258.705 132.625C258.122 132.625 257.648 133.14 257.648 133.776C257.648 134.412 258.122 134.927 258.705 134.927Z" fill="white"/>
<path d="M270.551 136.414H145.762V136.703H270.551V136.414Z" fill="#E45E14"/>
<path opacity="0.47" d="M163.752 123.208L147.281 223.567H163.584L180.055 123.208H163.752Z" fill="#FAFAFA"/>
<path opacity="0.47" d="M184.03 123.208L167.566 223.567H175.714L192.185 123.208H184.03Z" fill="#FAFAFA"/>
<path opacity="0.4" d="M275.143 123.208L258.672 223.567H262.753L279.217 123.208H275.143Z" fill="white"/>
<path opacity="0.4" d="M267.967 123.208L251.496 223.567H255.577L272.041 123.208H267.967Z" fill="white"/>
<path d="M232.243 271.813H223.682C222.804 271.813 221.962 272.193 221.341 272.869C220.72 273.546 220.371 274.463 220.371 275.419H235.547C235.548 274.946 235.463 274.477 235.298 274.04C235.132 273.602 234.889 273.205 234.582 272.87C234.275 272.535 233.91 272.269 233.509 272.088C233.108 271.906 232.678 271.813 232.243 271.813Z" fill="#E45E14"/>
<path opacity="0.4" d="M232.243 271.813H223.682C222.804 271.813 221.962 272.193 221.341 272.869C220.72 273.546 220.371 274.463 220.371 275.419H235.547C235.548 274.946 235.463 274.477 235.298 274.04C235.132 273.602 234.889 273.205 234.582 272.87C234.275 272.535 233.91 272.269 233.509 272.088C233.108 271.906 232.678 271.813 232.243 271.813Z" fill="black"/>
<path d="M208.915 232.716C208.915 233.455 208.714 234.177 208.337 234.791C207.96 235.406 207.424 235.885 206.797 236.167C206.171 236.45 205.481 236.524 204.816 236.38C204.15 236.236 203.539 235.88 203.059 235.358C202.58 234.835 202.253 234.169 202.121 233.445C201.988 232.72 202.056 231.969 202.316 231.286C202.575 230.604 203.015 230.02 203.579 229.61C204.143 229.199 204.806 228.98 205.485 228.98C206.394 228.98 207.267 229.374 207.91 230.074C208.553 230.775 208.915 231.725 208.915 232.716Z" fill="#E45E14"/>
<path opacity="0.5" d="M208.915 232.716C208.915 233.455 208.714 234.177 208.337 234.791C207.96 235.406 207.424 235.885 206.797 236.167C206.171 236.45 205.481 236.524 204.816 236.38C204.15 236.236 203.539 235.88 203.059 235.358C202.58 234.835 202.253 234.169 202.121 233.445C201.988 232.72 202.056 231.969 202.316 231.286C202.575 230.604 203.015 230.02 203.579 229.61C204.143 229.199 204.806 228.98 205.485 228.98C206.394 228.98 207.267 229.374 207.91 230.074C208.553 230.775 208.915 231.725 208.915 232.716Z" fill="black"/>
<path d="M176.173 262.535C175.69 244.282 175.732 132.975 176.705 123.834L178.028 121.844C178.028 121.844 177.419 123.613 177.272 154.895C177.125 186.177 176.929 257.891 177.09 262.535H176.173Z" fill="#E45E14"/>
<path d="M184.035 194.839C189.635 184.683 195.767 177.463 200.205 173.491C204.643 169.519 193.009 195.312 188.459 204.911C183.909 214.51 178.302 225.123 176.496 234.089C176.146 215.852 178.428 204.995 184.035 194.839Z" fill="#E45E14"/>
<path d="M176.609 125.115C177.757 113.572 176.203 102.905 181.971 89.3875C187.739 75.8697 192.128 65.2567 197.693 60.3238C199.03 59.1344 194.459 82.6324 189.146 95.8682C185.401 105.208 184.197 111.879 180.221 118.177C179.29 119.641 176.609 125.115 176.609 125.115Z" fill="#E45E14"/>
<path d="M176.582 186.704C177.744 172.454 178.794 158.73 186.305 138.457C188.132 133.517 205.065 98.9939 209.482 95.258C211.645 93.4205 204.078 116.362 196.686 135.667C191.149 150.153 188.853 154.3 182.686 171.104C180.271 177.76 176.582 186.704 176.582 186.704Z" fill="#E45E14"/>
<path d="M166.728 116.385C160.428 107.091 154.338 100.809 149.865 97.5225C145.392 94.2364 157.565 117.086 163.417 127.059C169.269 137.031 174.568 145.685 176.99 154.331C175.828 136.132 173.028 125.687 166.728 116.385Z" fill="#E45E14"/>
<path d="M176.581 211.956C175.391 202.044 172.941 190.402 169.441 181.771C165.941 173.14 160.551 159.905 156.267 155.414C155.238 154.331 160.747 180.079 164.289 186.925C167.831 193.772 170.421 200.23 172.647 204.11C173.389 205.368 176.581 211.956 176.581 211.956Z" fill="#E45E14"/>
<path opacity="0.5" d="M176.173 262.535C175.69 244.282 175.732 132.975 176.705 123.834L178.028 121.844C178.028 121.844 177.419 123.613 177.272 154.895C177.125 186.177 176.929 257.891 177.09 262.535H176.173Z" fill="white"/>
<path opacity="0.5" d="M184.035 194.839C189.635 184.683 195.767 177.463 200.205 173.491C204.643 169.519 193.009 195.312 188.459 204.911C183.909 214.51 178.302 225.123 176.496 234.089C176.146 215.852 178.428 204.995 184.035 194.839Z" fill="white"/>
<path opacity="0.5" d="M176.609 125.115C177.757 113.572 176.203 102.905 181.971 89.3875C187.739 75.8697 192.128 65.2567 197.693 60.3238C199.03 59.1344 194.459 82.6324 189.146 95.8682C185.401 105.208 184.197 111.879 180.221 118.177C179.29 119.641 176.609 125.115 176.609 125.115Z" fill="white"/>
<path opacity="0.5" d="M176.582 186.704C177.744 172.454 178.794 158.73 186.305 138.457C188.132 133.517 205.065 98.9939 209.482 95.258C211.645 93.4205 204.078 116.362 196.686 135.667C191.149 150.153 188.853 154.3 182.686 171.104C180.271 177.76 176.582 186.704 176.582 186.704Z" fill="white"/>
<path opacity="0.5" d="M166.728 116.385C160.428 107.091 154.338 100.809 149.865 97.5225C145.392 94.2364 157.565 117.086 163.417 127.059C169.269 137.031 174.568 145.685 176.99 154.331C175.828 136.132 173.028 125.687 166.728 116.385Z" fill="white"/>
<path opacity="0.5" d="M176.581 211.956C175.391 202.044 172.941 190.402 169.441 181.771C165.941 173.14 160.551 159.905 156.267 155.414C155.238 154.331 160.747 180.079 164.289 186.925C167.831 193.772 170.421 200.23 172.647 204.11C173.389 205.368 176.581 211.956 176.581 211.956Z" fill="white"/>
<path d="M189.911 275.42H163.381L161.379 258.814H191.913L189.911 275.42Z" fill="#263238"/>
<path d="M193.882 260.75H159.393L158.406 255.146H194.869L193.882 260.75Z" fill="#263238"/>
<path d="M160.967 134.622H82.0415C79.3391 134.622 77.1484 137.008 77.1484 139.951V270.09C77.1484 273.034 79.3391 275.42 82.0415 275.42H160.967C163.669 275.42 165.86 273.034 165.86 270.09V139.951C165.86 137.008 163.669 134.622 160.967 134.622Z" fill="#E45E14"/>
<path opacity="0.6" d="M160.967 134.622H82.0415C79.3391 134.622 77.1484 137.008 77.1484 139.951V270.09C77.1484 273.034 79.3391 275.42 82.0415 275.42H160.967C163.669 275.42 165.86 273.034 165.86 270.09V139.951C165.86 137.008 163.669 134.622 160.967 134.622Z" fill="black"/>
<path d="M158.619 134.622H79.6938C76.9915 134.622 74.8008 137.008 74.8008 139.951V270.09C74.8008 273.034 76.9915 275.42 79.6938 275.42H158.619C161.321 275.42 163.512 273.034 163.512 270.09V139.951C163.512 137.008 161.321 134.622 158.619 134.622Z" fill="#E45E14"/>
<path opacity="0.3" d="M158.619 134.622H79.6938C76.9915 134.622 74.8008 137.008 74.8008 139.951V270.09C74.8008 273.034 76.9915 275.42 79.6938 275.42H158.619C161.321 275.42 163.512 273.034 163.512 270.09V139.951C163.512 137.008 161.321 134.622 158.619 134.622Z" fill="black"/>
<path d="M163.512 140.736H74.8008V262.954H163.512V140.736Z" fill="#FAFAFA"/>
<path opacity="0.1" d="M163.512 140.736H74.8008V262.954H163.512V140.736Z" fill="#E45E14"/>
<path opacity="0.48" d="M106.249 141.042L85.9492 263.259H101.454L121.754 141.042H106.249Z" fill="#FAFAFA"/>
<path opacity="0.48" d="M126.363 140.736L106.062 262.961H113.812L134.112 140.736H126.363Z" fill="#FAFAFA"/>
<path d="M119.152 272.743C120.993 272.743 122.484 271.118 122.484 269.114C122.484 267.11 120.993 265.485 119.152 265.485C117.312 265.485 115.82 267.11 115.82 269.114C115.82 271.118 117.312 272.743 119.152 272.743Z" fill="#E45E14"/>
<path opacity="0.5" d="M119.152 272.743C120.993 272.743 122.484 271.118 122.484 269.114C122.484 267.11 120.993 265.485 119.152 265.485C117.312 265.485 115.82 267.11 115.82 269.114C115.82 271.118 117.312 272.743 119.152 272.743Z" fill="black"/>
<path d="M119.923 137.435C119.923 137.601 119.878 137.763 119.793 137.901C119.708 138.039 119.588 138.146 119.447 138.21C119.307 138.273 119.152 138.29 119.003 138.257C118.853 138.225 118.716 138.145 118.608 138.028C118.501 137.911 118.427 137.761 118.398 137.598C118.368 137.436 118.383 137.267 118.441 137.114C118.5 136.961 118.598 136.83 118.725 136.738C118.852 136.645 119.001 136.596 119.153 136.596C119.357 136.596 119.553 136.685 119.697 136.842C119.842 136.999 119.923 137.212 119.923 137.435Z" fill="#E45E14"/>
<path opacity="0.5" d="M119.923 137.435C119.923 137.601 119.878 137.763 119.793 137.901C119.708 138.039 119.588 138.146 119.447 138.21C119.307 138.273 119.152 138.29 119.003 138.257C118.853 138.225 118.716 138.145 118.608 138.028C118.501 137.911 118.427 137.761 118.398 137.598C118.368 137.436 118.383 137.267 118.441 137.114C118.5 136.961 118.598 136.83 118.725 136.738C118.852 136.645 119.001 136.596 119.153 136.596C119.357 136.596 119.553 136.685 119.697 136.842C119.842 136.999 119.923 137.212 119.923 137.435Z" fill="black"/>
<path d="M229.959 113.601L235.3 112.511C235.386 112.496 235.467 112.46 235.538 112.406C235.609 112.352 235.669 112.282 235.712 112.201C235.756 112.119 235.782 112.028 235.79 111.934C235.797 111.84 235.785 111.746 235.755 111.657L231.555 98.1088C231.49 97.9133 231.364 97.7487 231.199 97.6431C231.034 97.5374 230.841 97.4972 230.652 97.5293L225.318 98.612C225.232 98.6272 225.15 98.6632 225.078 98.7173C225.006 98.7714 224.946 98.8423 224.903 98.9248C224.859 99.0074 224.833 99.0994 224.826 99.1943C224.819 99.2893 224.832 99.3846 224.863 99.4735L229.063 113.022C229.126 113.218 229.251 113.383 229.415 113.489C229.578 113.595 229.771 113.635 229.959 113.601Z" fill="#E45E14"/>
<path opacity="0.6" d="M229.959 113.601L235.3 112.511C235.386 112.496 235.467 112.46 235.538 112.406C235.609 112.352 235.669 112.282 235.712 112.201C235.756 112.119 235.782 112.028 235.79 111.934C235.797 111.84 235.785 111.746 235.755 111.657L231.555 98.1088C231.49 97.9133 231.364 97.7487 231.199 97.6431C231.034 97.5374 230.841 97.4972 230.652 97.5293L225.318 98.612C225.232 98.6272 225.15 98.6632 225.078 98.7173C225.006 98.7714 224.946 98.8423 224.903 98.9248C224.859 99.0074 224.833 99.0994 224.826 99.1943C224.819 99.2893 224.832 99.3846 224.863 99.4735L229.063 113.022C229.126 113.218 229.251 113.383 229.415 113.489C229.578 113.595 229.771 113.635 229.959 113.601Z" fill="black"/>
<path d="M230.615 113.494L235.949 112.412C236.035 112.397 236.117 112.361 236.189 112.306C236.261 112.252 236.321 112.181 236.364 112.099C236.408 112.016 236.434 111.924 236.441 111.829C236.448 111.734 236.435 111.639 236.404 111.55L232.204 98.0018C232.138 97.8064 232.012 97.6418 231.847 97.5361C231.683 97.4305 231.49 97.3903 231.301 97.4224L225.967 98.5127C225.881 98.5268 225.799 98.5619 225.727 98.6152C225.655 98.6685 225.595 98.7387 225.551 98.8207C225.507 98.9027 225.481 98.9943 225.474 99.0888C225.468 99.1832 225.48 99.2782 225.512 99.3666L229.712 112.915C229.778 113.11 229.903 113.275 230.068 113.381C230.233 113.486 230.426 113.526 230.615 113.494Z" fill="#E45E14"/>
<path opacity="0.3" d="M230.615 113.494L235.949 112.412C236.035 112.397 236.117 112.361 236.189 112.306C236.261 112.252 236.321 112.181 236.364 112.099C236.408 112.016 236.434 111.924 236.441 111.829C236.448 111.734 236.435 111.639 236.404 111.55L232.204 98.0018C232.138 97.8064 232.012 97.6418 231.847 97.5361C231.683 97.4305 231.49 97.3903 231.301 97.4224L225.967 98.5127C225.881 98.5268 225.799 98.5619 225.727 98.6152C225.655 98.6685 225.595 98.7387 225.551 98.8207C225.507 98.9027 225.481 98.9943 225.474 99.0888C225.468 99.1832 225.48 99.2782 225.512 99.3666L229.712 112.915C229.778 113.11 229.903 113.275 230.068 113.381C230.233 113.486 230.426 113.526 230.615 113.494Z" fill="black"/>
<path d="M229.429 111.992L236.121 110.628L232.355 98.4746L225.656 99.8394L229.429 111.992Z" fill="#FAFAFA"/>
<path opacity="0.14" d="M229.429 111.992L236.121 110.628L232.355 98.4746L225.656 99.8394L229.429 111.992Z" fill="#E45E14"/>
<path d="M225.656 105.093L226.181 103.766L231.221 109.934L226.86 110.3L225.656 105.093Z" fill="#E58A7B"/>
<path d="M139.547 57.2575C145.512 57.2575 150.348 51.9905 150.348 45.4933C150.348 38.996 145.512 33.729 139.547 33.729C133.582 33.729 128.746 38.996 128.746 45.4933C128.746 51.9905 133.582 57.2575 139.547 57.2575Z" fill="#E45E14"/>
<path d="M139.549 59.469C138.808 59.4696 138.068 59.4007 137.337 59.2631L137.456 58.5007C138.846 58.7591 140.266 58.7591 141.656 58.5007L141.775 59.2631C141.04 59.4 140.295 59.4688 139.549 59.469ZM133.158 57.6087C131.865 56.7983 130.711 55.7482 129.749 54.5056L130.288 54.01C131.195 55.1887 132.285 56.1848 133.508 56.953L133.158 57.6087ZM145.954 57.6087L145.604 56.953C146.827 56.1848 147.917 55.1887 148.824 54.01L149.356 54.498C148.395 55.728 147.244 56.7653 145.954 57.5629V57.6087ZM127.516 50.3199C127.005 48.7903 126.744 47.1748 126.746 45.5471H127.446C127.435 47.0821 127.672 48.6073 128.146 50.053L127.516 50.3199ZM151.582 50.3199L150.924 50.0606C151.398 48.6149 151.635 47.0897 151.624 45.5547H152.1H152.324C152.328 47.1576 152.077 48.7492 151.582 50.2589V50.3199ZM128.16 41.0716L127.502 40.8124C128.011 39.2816 128.762 37.8597 129.721 36.6114L130.253 37.0994C129.354 38.2625 128.646 39.5856 128.16 41.0106V41.0716ZM150.91 40.9954C150.428 39.5553 149.717 38.2186 148.81 37.046L149.349 36.5504C150.312 37.7915 151.07 39.2052 151.589 40.7285L150.91 40.9954ZM133.466 34.1335L133.116 33.4778C134.413 32.6518 135.836 32.0862 137.316 31.8081L137.435 32.5705C136.041 32.8201 134.698 33.3336 133.466 34.0878V34.1335ZM145.562 34.1335C144.339 33.375 143.003 32.8587 141.614 32.6087L141.733 31.8462C143.211 32.1205 144.632 32.6754 145.933 33.4854L145.562 34.1335Z" fill="#E45E14"/>
<path d="M223.573 104.979H221.473V105.741H223.573V104.979Z" fill="#E45E14"/>
<path d="M217.272 105.74H213.072V104.978H217.272V105.74ZM208.816 105.214C207.426 104.796 206.104 104.145 204.896 103.285L205.281 102.653C206.427 103.464 207.681 104.079 208.998 104.475L208.816 105.214ZM201.697 100.167C200.778 98.96 200.036 97.6045 199.499 96.149L200.15 95.867C200.668 97.247 201.376 98.5327 202.25 99.6791L201.697 100.167ZM198.519 91.5897C198.519 91.2009 198.519 90.8273 198.519 90.4156C198.518 89.2403 198.64 88.0687 198.883 86.9237L199.583 87.099C199.353 88.1867 199.238 89.2994 199.24 90.4156C199.24 90.7892 199.24 91.178 199.24 91.5364L198.519 91.5897ZM201.053 82.9743L200.451 82.5855C201.187 81.2365 202.108 80.0178 203.181 78.9715L203.65 79.5434C202.63 80.5286 201.755 81.6779 201.053 82.9514V82.9743ZM207.073 77.1112L206.786 76.4174C208.098 75.772 209.494 75.3527 210.923 75.1747L211.007 75.9371C209.65 76.1004 208.323 76.4887 207.073 77.0883V77.1112ZM224.041 75.8303H223.579V75.0679H224.041C225.26 75.067 226.472 74.8875 227.646 74.5342L227.835 75.2966C226.598 75.6533 225.322 75.8251 224.041 75.8075V75.8303ZM219.372 75.8303H215.172V75.0679H219.372V75.8303ZM231.748 73.3296L231.364 72.6968C232.509 71.88 233.534 70.8772 234.402 69.7233L234.948 70.2036C234.034 71.4106 232.955 72.4572 231.748 73.3067V73.3296ZM237.132 66.178L236.481 65.8959C236.985 64.5082 237.294 63.0457 237.398 61.5577L238.098 61.6187C237.986 63.175 237.661 64.7043 237.132 66.1551V66.178ZM237.076 57.128C236.762 55.6756 236.245 54.2845 235.543 53.0032L236.145 52.6144C236.883 53.9616 237.426 55.4249 237.755 56.9526L237.076 57.128ZM232.939 49.5799C231.916 48.5908 230.762 47.7759 229.515 47.163L229.795 46.4692C231.11 47.1086 232.326 47.965 233.401 49.0081L232.939 49.5799ZM225.574 45.9889C225.068 45.9278 224.558 45.8973 224.048 45.8974H221.409V45.135H224.041C224.58 45.1289 225.117 45.162 225.651 45.2341L225.574 45.9889ZM217.174 45.8974H212.974V45.135H217.174V45.8974ZM208.774 45.8974H204.574V45.135H208.774V45.8974ZM200.374 45.8974H196.174V45.135H200.374V45.8974ZM191.974 45.8974H187.774V45.135H191.974V45.8974ZM183.574 45.8974H179.374V45.135H183.574V45.8974ZM175.174 45.8974H170.974V45.135H175.174V45.8974ZM166.774 45.8974H162.574V45.135H166.774V45.8974Z" fill="#E45E14"/>
<path d="M158.245 45.1123H156.145V45.8747H158.245V45.1123Z" fill="#E45E14"/>
<path d="M139.842 61.9238H139.254V63.8375H139.842V61.9238Z" fill="#E45E14"/>
<path d="M66.5029 188.533H65.9219V184.72H66.5029V188.533ZM66.5029 180.908H65.9219V177.096H66.5029V180.908ZM130.392 178.949C129.707 178.948 129.024 178.866 128.355 178.705L128.481 178.087C129.595 178.346 130.744 178.378 131.869 178.179L131.96 178.804C131.436 178.886 130.907 178.922 130.378 178.911L130.392 178.949ZM94.314 178.949L94.279 178.308C95.4151 178.232 96.5272 177.919 97.555 177.386L97.807 177.958C96.7037 178.51 95.513 178.826 94.3 178.888L94.314 178.949ZM90.723 178.408C89.5712 177.991 88.5041 177.336 87.58 176.479L87.958 175.991C88.8241 176.796 89.8247 177.412 90.905 177.805L90.723 178.408ZM135.327 177.409L135.019 176.867C135.988 176.217 136.834 175.371 137.511 174.374L137.987 174.756C137.262 175.809 136.359 176.702 135.327 177.386V177.409ZM125.03 177.127C124.03 176.381 123.169 175.434 122.496 174.336L122.986 173.978C123.617 175.011 124.425 175.901 125.366 176.601L125.03 177.127ZM100.684 175.602L100.257 175.175C101.025 174.258 101.623 173.189 102.021 172.026L102.574 172.247C102.143 173.471 101.502 174.594 100.684 175.556V175.602ZM85.326 173.437C84.7592 172.266 84.4073 170.987 84.29 169.67L84.871 169.609C84.9822 170.843 85.3127 172.042 85.844 173.139L85.326 173.437ZM66.5029 173.208H65.9219V169.396H66.5029V173.208ZM139.555 171.187L138.988 171.027C139.172 170.235 139.266 169.42 139.268 168.603V167.299H139.856V168.603C139.85 169.475 139.744 170.343 139.541 171.187H139.555ZM121.103 170.684C120.975 169.999 120.909 169.302 120.907 168.603V166.803H121.495V168.603C121.496 169.258 121.557 169.912 121.677 170.555L121.103 170.684ZM103.155 168.336H102.574V164.524H103.155V168.336ZM84.822 165.767H84.234V161.954H84.822V165.767ZM66.5029 165.545H65.9219V161.733H66.5029V165.545ZM139.856 163.472H139.268V159.659H139.856V163.472ZM121.516 162.968H120.928V160.269C120.931 159.905 120.912 159.541 120.872 159.179L121.453 159.103C121.495 159.49 121.516 159.88 121.516 160.269V162.968ZM103.176 160.681H102.595V160.277C102.593 159.095 102.778 157.922 103.141 156.808L103.694 157.021C103.35 158.066 103.175 159.167 103.176 160.277V160.681ZM84.052 158.196C83.8073 156.983 83.3484 155.833 82.7009 154.81L83.1839 154.452C83.8613 155.544 84.3368 156.769 84.584 158.058L84.052 158.196ZM66.7549 157.982L66.1879 157.83C66.4751 156.545 66.9886 155.333 67.6999 154.261L68.1689 154.635C67.5027 155.639 67.0181 156.773 66.7409 157.975L66.7549 157.982ZM139.856 155.809H139.268V151.997H139.856V155.809ZM119.857 155.672C119.315 154.581 118.585 153.613 117.708 152.82L118.079 152.333C119.017 153.179 119.797 154.214 120.375 155.382L119.857 155.672ZM105.423 153.857L104.982 153.43C105.789 152.441 106.763 151.631 107.852 151.044L108.111 151.616C107.085 152.161 106.167 152.92 105.409 153.85L105.423 153.857ZM80.2929 152.226C79.3467 151.537 78.2863 151.055 77.1709 150.808L77.2899 150.182C78.4788 150.45 79.6082 150.968 80.6149 151.707L80.2929 152.226ZM70.6329 152.111L70.3249 151.57C71.3475 150.856 72.4893 150.369 73.6849 150.137L73.7899 150.77C72.6631 150.985 71.5859 151.438 70.6189 152.104L70.6329 152.111ZM114.733 151.059C113.868 150.76 112.966 150.609 112.059 150.609C111.8 150.609 111.597 150.609 111.359 150.609L111.317 149.969C111.555 149.969 111.8 149.969 112.017 149.969C112.986 149.969 113.948 150.128 114.873 150.442L114.733 151.059ZM139.856 148.147H139.268V144.335H139.856V148.147ZM139.856 140.484H139.268V136.672H139.856V140.484ZM139.856 132.822H139.268V129.01H139.856V132.822ZM139.856 125.198H139.268V121.386H139.856V125.198ZM139.856 117.535H139.268V113.723H139.856V117.535ZM139.856 109.865H139.268V106.053H139.856V109.865ZM139.856 102.241H139.268V98.4289H139.856V102.241ZM139.856 94.5786H139.268V90.7665H139.856V94.5786ZM139.856 86.9162H139.268V83.1041H139.856V86.9162ZM139.856 79.2919H139.268V75.4798H139.856V79.2919ZM139.856 71.6295H139.268V67.8174H139.856V71.6295Z" fill="#E45E14"/>
<path d="M66.4942 192.444H65.9062V194.358H66.4942V192.444Z" fill="#E45E14"/>
<path d="M138.226 51.2269C137.948 51.2241 137.682 51.1039 137.484 50.8914L133.816 46.8963C133.621 46.6809 133.512 46.3906 133.512 46.0881C133.512 45.7856 133.621 45.4953 133.816 45.2799C133.913 45.173 134.028 45.088 134.156 45.0301C134.283 44.9721 134.42 44.9423 134.558 44.9423C134.696 44.9423 134.833 44.9721 134.96 45.0301C135.087 45.088 135.203 45.173 135.3 45.2799L138.226 48.4669L143.791 42.4056C143.99 42.2036 144.253 42.0936 144.525 42.0988C144.797 42.104 145.057 42.2241 145.249 42.4336C145.442 42.6431 145.552 42.9258 145.557 43.2221C145.561 43.5184 145.46 43.8051 145.275 44.0219L138.975 50.8838C138.878 50.9926 138.761 51.0791 138.632 51.138C138.504 51.197 138.366 51.2272 138.226 51.2269Z" fill="white"/>
<path d="M269.85 74.0386C269.15 77.8507 267.624 85.475 270.06 88.0291C270.06 88.0291 269.108 91.8413 262.647 91.8413C255.535 91.8413 259.245 88.0291 259.245 88.0291C263.13 87.0227 263.025 83.8891 262.353 80.9462L269.85 74.0386Z" fill="#E58A7B"/>
<path d="M255.699 89.3331C255.699 88.7613 256.497 88.1742 257.659 87.7168C258.282 87.4652 258.891 86.5121 259.836 86.3368C260.536 86.2071 261.439 86.8628 262.335 86.7942C263.084 86.7332 263.868 85.9403 264.736 85.9327C265.604 85.925 266.304 86.6951 267.158 86.7485C267.69 86.7485 268.222 86.047 268.67 86.0928C269.118 86.1385 269.601 86.9696 270.028 87.0534C270.595 87.1602 271.232 86.5426 271.617 86.6798C272.233 86.8933 272.317 87.8006 272.59 88.0446C273.374 88.7384 273.99 89.3941 273.29 89.5161C271.561 89.8134 271.491 88.7537 269.741 88.7537C267.991 88.7537 267.991 89.5161 266.241 89.478C264.491 89.4398 264.498 88.7155 262.741 88.7155C260.984 88.7155 261.019 89.2416 259.241 89.4398C258.065 89.6544 256.862 89.6182 255.699 89.3331Z" fill="#E45E14"/>
<g opacity="0.6">
<path d="M255.699 89.3336C255.699 88.7618 256.497 88.1747 257.659 87.7172C258.282 87.4656 258.891 86.5126 259.836 86.3372C260.536 86.2076 261.439 86.8633 262.335 86.7947C263.084 86.7337 263.868 85.9408 264.736 85.9332C265.604 85.9255 266.304 86.6956 267.158 86.749C267.69 86.749 268.222 86.0475 268.67 86.0933C269.118 86.139 269.601 86.9701 270.028 87.0539C270.595 87.1607 271.232 86.5431 271.617 86.6803C272.233 86.8938 272.317 87.8011 272.59 88.0451C273.374 88.7389 273.99 89.3946 273.29 89.5166C271.561 89.8139 271.491 88.7541 269.741 88.7541C267.991 88.7541 267.991 89.5166 266.241 89.4784C264.491 89.4403 264.498 88.716 262.741 88.716C260.984 88.716 261.019 89.2421 259.241 89.4403C258.065 89.6549 256.862 89.6187 255.699 89.3336Z" fill="black"/>
</g>
<path d="M282.568 96.2407C283.478 98.3374 284.192 100.343 284.913 102.432C285.634 104.521 286.215 106.625 286.775 108.752C287.342 110.901 287.809 113.079 288.175 115.279C288.343 116.384 288.518 117.49 288.63 118.626C288.7 119.182 288.763 119.746 288.798 120.318L288.917 122.072C288.948 123.522 288.71 124.963 288.217 126.311C287.815 127.441 287.335 128.537 286.782 129.589C285.739 131.548 284.569 133.423 283.282 135.201C280.79 138.646 278.056 141.876 275.106 144.861L272.922 142.665C274.077 141.003 275.26 139.295 276.366 137.572C277.472 135.849 278.578 134.126 279.579 132.365C280.582 130.647 281.489 128.865 282.295 127.028C282.666 126.187 282.979 125.318 283.233 124.428C283.438 123.768 283.533 123.073 283.513 122.377L283.338 120.936C283.289 120.44 283.212 119.945 283.121 119.411C282.974 118.42 282.771 117.421 282.568 116.43C282.365 115.439 282.134 114.448 281.868 113.456C281.602 112.465 281.364 111.474 281.084 110.491C280.531 108.523 279.894 106.564 279.236 104.627C278.578 102.691 277.836 100.724 277.136 98.9169L282.568 96.2407Z" fill="#E58A7B"/>
<path d="M280.18 89.4853C282.616 90.0647 285.213 99.6103 285.213 99.6103L275.623 106.274C275.623 106.274 272.613 98.6497 273.775 95.3255C274.993 91.8946 277.303 88.7991 280.18 89.4853Z" fill="#E45E14"/>
<path opacity="0.6" d="M280.18 89.4853C282.616 90.0647 285.213 99.6103 285.213 99.6103L275.623 106.274C275.623 106.274 272.613 98.6497 273.775 95.3255C274.993 91.8946 277.303 88.7991 280.18 89.4853Z" fill="white"/>
<path opacity="0.28" d="M278.874 92.7334L275.598 106.213V106.274L279.434 103.606L278.874 92.7334Z" fill="#E45E14"/>
<path d="M249.337 89.6685C249.337 89.6685 246.537 90.7436 252.137 128.209H275.937C275.538 117.657 275.524 111.146 280.137 89.4855C276.802 88.7357 273.421 88.2491 270.022 88.0293C266.421 87.7546 262.807 87.7546 259.207 88.0293C254.608 88.4944 249.337 89.6685 249.337 89.6685Z" fill="#E45E14"/>
<path opacity="0.6" d="M249.337 89.6685C249.337 89.6685 246.537 90.7436 252.137 128.209H275.937C275.538 117.657 275.524 111.146 280.137 89.4855C276.802 88.7357 273.421 88.2491 270.022 88.0293C266.421 87.7546 262.807 87.7546 259.207 88.0293C254.608 88.4944 249.337 89.6685 249.337 89.6685Z" fill="white"/>
<path d="M274.053 141.811L268.383 139.951L270.749 145.913C270.749 145.913 274.494 146.309 275.845 144.098L274.053 141.811Z" fill="#E58A7B"/>
<path d="M263.793 141.918L266.019 146.79L270.751 145.928L268.385 139.966L263.793 141.918Z" fill="#E58A7B"/>
<path d="M289.054 271.981H283.195L281.305 257.19H287.171L289.054 271.981Z" fill="#E58A7B"/>
<path d="M262.411 271.981H256.552L256.16 257.19H262.019L262.411 271.981Z" fill="#E58A7B"/>
<path d="M256.16 257.197L256.363 264.814H262.229L262.026 257.197H256.16Z" fill="#CF6F64"/>
<path d="M287.171 257.197H281.305L282.278 264.814H288.144L287.171 257.197Z" fill="#CF6F64"/>
<path d="M258.43 128.209C258.43 128.209 261.832 172.049 265.367 196.751C268.216 216.704 280.865 263.342 280.865 263.342H288.859C288.859 263.342 282.272 218.298 280.823 198.536C277.162 148.597 283.581 139.76 275.958 128.179L258.43 128.209Z" fill="#E45E14"/>
<path opacity="0.6" d="M258.43 128.209C258.43 128.209 261.832 172.049 265.367 196.751C268.216 216.704 280.865 263.342 280.865 263.342H288.859C288.859 263.342 282.272 218.298 280.823 198.536C277.162 148.597 283.581 139.76 275.958 128.179L258.43 128.209Z" fill="black"/>
<path opacity="0.4" d="M265.696 145.456C265.696 145.456 262.42 156.572 262.469 172.606C263.036 178.027 263.638 183.409 264.254 188.396C266.13 183.745 269.581 170.189 265.696 145.456Z" fill="black"/>
<path d="M252.14 128.209C252.14 128.209 247.513 177.409 247.898 196.881C248.297 217.139 255.115 263.342 255.115 263.342H263.039C263.039 263.342 261.786 218.359 262.486 198.429C263.249 176.738 269.577 128.209 269.577 128.209H252.14Z" fill="#E45E14"/>
<path opacity="0.6" d="M252.14 128.209C252.14 128.209 247.513 177.409 247.898 196.881C248.297 217.139 255.115 263.342 255.115 263.342H263.039C263.039 263.342 261.786 218.359 262.486 198.429C263.249 176.738 269.577 128.209 269.577 128.209H252.14Z" fill="black"/>
<path d="M280.82 272.354C280.423 272.39 280.027 272.275 279.7 272.026C279.602 271.923 279.53 271.795 279.49 271.654C279.449 271.513 279.442 271.363 279.469 271.218C279.477 271.127 279.507 271.039 279.557 270.964C279.606 270.889 279.672 270.829 279.749 270.791C280.449 270.463 282.213 271.706 282.409 271.851C282.432 271.867 282.45 271.89 282.461 271.917C282.472 271.944 282.476 271.974 282.472 272.003C282.468 272.033 282.456 272.061 282.437 272.083C282.418 272.104 282.394 272.119 282.367 272.125C281.86 272.263 281.342 272.34 280.82 272.354ZM280.036 271.035C279.975 271.032 279.915 271.045 279.861 271.073C279.819 271.073 279.763 271.134 279.749 271.264C279.727 271.358 279.728 271.458 279.752 271.551C279.777 271.645 279.824 271.73 279.889 271.798C280.183 272.095 280.953 272.133 281.989 271.912C281.401 271.474 280.736 271.175 280.036 271.035Z" fill="#E45E14"/>
<path d="M282.333 272.133C282.312 272.14 282.291 272.14 282.27 272.133C281.71 271.79 280.646 270.41 280.772 269.693C280.794 269.575 280.853 269.468 280.938 269.39C281.023 269.313 281.13 269.269 281.241 269.266C281.347 269.249 281.455 269.259 281.557 269.295C281.659 269.331 281.752 269.391 281.829 269.472C282.466 270.082 282.473 271.927 282.473 272.004C282.473 272.03 282.467 272.056 282.455 272.079C282.442 272.102 282.424 272.121 282.403 272.133C282.38 272.141 282.356 272.141 282.333 272.133ZM281.339 269.541H281.276C281.101 269.541 281.059 269.648 281.045 269.716C280.968 270.158 281.633 271.195 282.186 271.676C282.203 270.962 282.014 270.261 281.647 269.67C281.563 269.586 281.453 269.54 281.339 269.541Z" fill="#E45E14"/>
<path d="M254.148 272.354C253.654 272.397 253.162 272.26 252.748 271.965C252.651 271.871 252.578 271.751 252.535 271.618C252.493 271.485 252.481 271.342 252.503 271.202C252.506 271.119 252.529 271.038 252.569 270.967C252.61 270.896 252.666 270.838 252.734 270.798C253.434 270.371 255.793 271.675 256.052 271.82C256.079 271.834 256.101 271.858 256.114 271.886C256.128 271.915 256.133 271.948 256.129 271.98C256.125 272.011 256.111 272.039 256.091 272.061C256.071 272.083 256.045 272.098 256.017 272.102C255.402 272.25 254.777 272.334 254.148 272.354ZM253.105 271.035C253.016 271.03 252.927 271.048 252.846 271.088C252.819 271.105 252.796 271.13 252.78 271.159C252.764 271.188 252.755 271.222 252.755 271.256C252.744 271.344 252.753 271.434 252.781 271.518C252.809 271.601 252.855 271.676 252.916 271.736C253.273 272.087 254.239 272.148 255.534 271.912C254.776 271.471 253.954 271.174 253.105 271.035Z" fill="#E45E14"/>
<path d="M255.968 272.133H255.912C255.212 271.79 253.812 270.41 253.938 269.686C253.938 269.518 254.078 269.305 254.463 269.259C254.601 269.244 254.741 269.26 254.873 269.306C255.005 269.352 255.128 269.427 255.233 269.526C255.968 270.189 256.101 271.912 256.108 271.981C256.109 272.007 256.105 272.033 256.095 272.057C256.086 272.081 256.071 272.102 256.052 272.118C256.026 272.133 255.996 272.138 255.968 272.133ZM254.568 269.541H254.484C254.232 269.541 254.211 269.678 254.204 269.716C254.141 270.151 255.079 271.241 255.793 271.699C255.734 270.975 255.472 270.288 255.044 269.732C254.913 269.61 254.747 269.543 254.575 269.541H254.568Z" fill="#E45E14"/>
<path d="M255.761 67.3216C255.716 67.3267 255.67 67.3205 255.627 67.3033C255.585 67.2861 255.547 67.2584 255.516 67.2224C255.291 66.9303 255.005 66.701 254.683 66.5538C254.36 66.4065 254.009 66.3456 253.661 66.3762C253.587 66.387 253.513 66.3659 253.454 66.3173C253.395 66.2687 253.356 66.1967 253.346 66.1169C253.337 66.0385 253.356 65.9596 253.399 65.896C253.442 65.8323 253.506 65.7887 253.577 65.7738C254.017 65.7337 254.459 65.8074 254.868 65.9889C255.276 66.1704 255.64 66.4546 255.929 66.8184C255.978 66.8763 256.006 66.9526 256.006 67.0318C256.006 67.1111 255.978 67.1874 255.929 67.2453C255.881 67.2882 255.822 67.3147 255.761 67.3216Z" fill="#263238"/>
<path d="M254.544 71.1108C254.281 72.3389 253.864 73.5216 253.305 74.6256C253.568 74.7747 253.857 74.8595 254.154 74.874C254.45 74.8884 254.745 74.8323 255.02 74.7095L254.544 71.1108Z" fill="#DF5753"/>
<path d="M254.85 70.143C254.913 70.6538 254.724 71.1037 254.416 71.1494C254.108 71.1952 253.807 70.8216 253.716 70.3184C253.625 69.8151 253.842 69.3501 254.15 69.3043C254.458 69.2586 254.801 69.6627 254.85 70.143Z" fill="#263238"/>
<path d="M254.314 69.3809L253.145 69.2056C253.145 69.2056 253.845 70.029 254.314 69.3809Z" fill="#263238"/>
<path d="M282.804 271.241H289.391C289.504 271.238 289.614 271.281 289.699 271.361C289.785 271.442 289.84 271.553 289.853 271.675L290.609 277.356C290.623 277.499 290.609 277.645 290.568 277.782C290.526 277.92 290.459 278.046 290.37 278.153C290.281 278.261 290.172 278.346 290.05 278.404C289.929 278.463 289.797 278.492 289.664 278.492C287.368 278.446 286.262 278.301 283.364 278.301C281.586 278.301 278.982 278.499 276.518 278.499C274.054 278.499 273.928 275.846 274.95 275.61C279.549 274.535 280.27 273.048 281.824 271.63C282.099 271.378 282.446 271.24 282.804 271.241Z" fill="#263238"/>
<path d="M256.347 271.241H262.934C263.047 271.239 263.157 271.283 263.243 271.362C263.33 271.442 263.386 271.553 263.403 271.675L264.152 277.355C264.166 277.499 264.152 277.643 264.111 277.78C264.07 277.917 264.003 278.043 263.915 278.15C263.827 278.257 263.719 278.343 263.598 278.402C263.477 278.461 263.346 278.491 263.214 278.491C260.918 278.446 259.812 278.301 256.914 278.301C255.129 278.301 251.447 278.499 248.983 278.499C246.519 278.499 246.393 275.846 247.415 275.609C252.007 274.534 253.82 273.048 255.367 271.63C255.643 271.38 255.989 271.243 256.347 271.241Z" fill="#263238"/>
<path opacity="0.28" d="M248.648 95.7222V95.8747C248.718 100.137 249.257 107.311 250.881 119.373L254.199 105.214L248.648 95.7222Z" fill="#E45E14"/>
<path d="M253.357 97.9106C252.699 101.532 251.957 105.077 251.075 108.638C250.193 112.199 249.297 115.736 248.135 119.312L247.68 120.646L247.183 121.988C247.071 122.306 246.938 122.614 246.784 122.911C246.591 123.305 246.356 123.674 246.084 124.009C245.449 124.769 244.617 125.301 243.697 125.533C242.928 125.725 242.128 125.725 241.359 125.533C240.772 125.402 240.202 125.197 239.658 124.923C238.756 124.463 237.901 123.898 237.11 123.238C235.695 122.052 234.379 120.733 233.176 119.297C232.574 118.611 232.014 117.894 231.468 117.17C230.922 116.445 230.397 115.721 229.879 114.92L232.098 112.778C234.452 115.093 236.994 117.17 239.693 118.984C240.276 119.353 240.89 119.66 241.527 119.899C242.066 120.12 242.549 120.059 242.36 120.021C242.246 120.038 242.138 120.085 242.045 120.158L242.143 119.83L242.514 118.626L242.864 117.383C243.774 114.036 244.551 110.521 245.321 107.075L247.512 96.584L253.357 97.9106Z" fill="#E58A7B"/>
<path d="M230.065 115.241L226.859 110.3L231.22 109.934C231.22 109.934 233.684 113.03 232.816 115.515L230.065 115.241Z" fill="#E58A7B"/>
<path d="M229.801 109.027L230.725 108.41L231.152 106.069L231.859 107.03L232.384 112.527L229.801 109.027Z" fill="#E58A7B"/>
<path d="M270.359 65.9646C270.835 72.2775 271.157 74.9384 268.679 78.6133C264.948 84.1257 257.717 83.3785 255.526 77.34C253.545 71.9039 253.104 62.4879 258.41 59.118C259.575 58.3678 260.897 57.9548 262.25 57.9182C263.603 57.8816 264.942 58.2226 266.139 58.9089C267.337 59.5951 268.354 60.6037 269.092 61.8387C269.831 63.0737 270.267 64.4941 270.359 65.9646Z" fill="#E58A7B"/>
<path d="M257.402 58.4089C256.217 58.9518 255.245 59.9335 254.66 61.1808C254.075 62.428 253.913 63.8605 254.203 65.225C254.203 65.225 258.76 63.0826 258.942 71.0347C259.075 76.7758 255.442 84.5221 255.442 84.5221C255.442 84.5221 263.891 86.4282 276.05 82.372C281.223 80.649 278.892 46.8277 257.402 58.4089Z" fill="#263238"/>
<path d="M256.967 61.9238C256.141 64.0891 256.358 68.374 259.613 67.9165C262.868 67.4591 261.916 63.8833 261.916 63.8833L256.967 61.9238Z" fill="#263238"/>
<path d="M260.591 70.4781C260.625 71.7039 260.215 72.895 259.45 73.7947C258.428 74.9688 257.147 74.1759 256.797 72.6816C256.475 71.3473 256.622 69.1134 257.959 68.4882C258.253 68.3572 258.573 68.3085 258.89 68.3465C259.206 68.3845 259.509 68.5079 259.77 68.7056C260.032 68.9032 260.244 69.1689 260.387 69.4784C260.53 69.788 260.6 70.1316 260.591 70.4781Z" fill="#E58A7B"/>
<path d="M289.452 263.624H280.317L279.344 260.155L289.767 260.422L289.452 263.624Z" fill="#E45E14"/>
<path d="M273.071 129.612H273.701C273.834 129.612 273.932 129.543 273.918 129.452L273.617 126.402C273.617 126.318 273.498 126.242 273.365 126.242H272.721C272.595 126.242 272.497 126.318 272.504 126.402L272.805 129.452C272.833 129.559 272.945 129.612 273.071 129.612Z" fill="#E45E14"/>
<path d="M257.422 129.612H258.066C258.192 129.612 258.29 129.543 258.283 129.452L257.982 126.402C257.982 126.318 257.856 126.242 257.73 126.242H257.086C256.953 126.242 256.855 126.318 256.869 126.402L257.17 129.452C257.177 129.559 257.289 129.612 257.422 129.612Z" fill="#E45E14"/>
<path d="M263.652 263.624H254.51L253.852 260.658L263.995 260.155L263.652 263.624Z" fill="#E45E14"/>
<path d="M276.313 126.692L277.384 128.98C277.468 129.163 277.272 129.346 276.999 129.346H252.002C251.785 129.346 251.61 129.231 251.596 129.086L251.379 126.799C251.379 126.639 251.554 126.502 251.785 126.502H275.9C275.978 126.49 276.058 126.502 276.13 126.536C276.203 126.569 276.266 126.623 276.313 126.692Z" fill="#E45E14"/>
<path opacity="0.1" d="M276.313 126.692L277.384 128.98C277.468 129.163 277.272 129.346 276.999 129.346H252.002C251.785 129.346 251.61 129.231 251.596 129.086L251.379 126.799C251.379 126.639 251.554 126.502 251.785 126.502H275.9C275.978 126.49 276.058 126.502 276.13 126.536C276.203 126.569 276.266 126.623 276.313 126.692Z" fill="black"/>
<path opacity="0.6" d="M273.071 129.612H273.701C273.834 129.612 273.932 129.543 273.918 129.452L273.617 126.402C273.617 126.318 273.498 126.242 273.365 126.242H272.721C272.595 126.242 272.497 126.318 272.504 126.402L272.805 129.452C272.833 129.559 272.945 129.612 273.071 129.612Z" fill="black"/>
<path opacity="0.6" d="M257.422 129.612H258.066C258.192 129.612 258.29 129.543 258.283 129.452L257.982 126.402C257.982 126.318 257.856 126.242 257.73 126.242H257.086C256.953 126.242 256.855 126.318 256.869 126.402L257.17 129.452C257.177 129.559 257.289 129.612 257.422 129.612Z" fill="black"/>
<path d="M249.336 89.6683C246.921 90.3393 245.234 101.173 245.234 101.173L254.558 108.073C254.558 108.073 258.303 95.173 256.42 92.2529C254.481 89.2642 252.864 88.6924 249.336 89.6683Z" fill="#E45E14"/>
<path opacity="0.6" d="M249.336 89.6683C246.921 90.3393 245.234 101.173 245.234 101.173L254.558 108.073C254.558 108.073 258.303 95.173 256.42 92.2529C254.481 89.2642 252.864 88.6924 249.336 89.6683Z" fill="white"/>
<path d="M117.081 229.361C117.084 229.336 117.084 229.31 117.081 229.285C117.277 228.058 117.445 226.822 117.585 225.572C119.566 227.974 121.288 228.584 122.52 228.584C122.651 228.592 122.781 228.592 122.912 228.584C125.327 228.324 127.364 225.747 128.372 221.722C128.392 221.642 128.396 221.559 128.384 221.477C128.372 221.396 128.344 221.318 128.302 221.249C128.215 221.105 128.083 220.999 127.931 220.952C126.22 220.442 124.427 220.352 122.68 220.688C120.933 221.024 119.277 221.778 117.83 222.896C117.914 221.722 117.963 220.548 117.977 219.366C118.368 219.441 118.763 219.479 119.16 219.48C123.15 219.48 125.621 215.615 125.74 215.424C125.785 215.351 125.812 215.266 125.819 215.178C125.826 215.091 125.814 215.002 125.782 214.921C125.75 214.832 125.7 214.752 125.638 214.685C125.575 214.618 125.5 214.566 125.418 214.532C122.926 213.511 120.903 213.419 119.412 214.273C118.463 214.835 117.734 215.754 117.361 216.858C116.307 214.355 114.709 212.17 112.707 210.49C110.705 208.81 108.357 207.685 105.867 207.213C105.796 207.194 105.722 207.195 105.65 207.214C105.579 207.233 105.513 207.27 105.458 207.322C105.403 207.374 105.359 207.44 105.332 207.513C105.304 207.587 105.293 207.667 105.3 207.747C105.552 211.688 106.224 216.499 109.206 218.802C110.399 219.692 111.82 220.148 113.266 220.106C114.502 220.076 115.729 219.863 116.913 219.473C116.851 222.282 116.617 225.084 116.213 227.859C114.554 225.808 110.333 221.249 104.572 219.679C104.508 219.657 104.44 219.651 104.374 219.66C104.307 219.67 104.243 219.695 104.187 219.734C104.13 219.773 104.082 219.826 104.046 219.887C104.01 219.949 103.986 220.018 103.977 220.09C103.55 223.483 104.292 226.235 106.112 228.05C107.624 229.575 109.794 230.337 112.412 230.337C113.574 230.326 114.732 230.193 115.87 229.941C115.478 232.266 114.995 234.515 114.47 236.711C112.657 235.141 107.414 231.168 102.416 232.823C102.35 232.846 102.29 232.886 102.24 232.939C102.19 232.992 102.152 233.056 102.129 233.128C102.105 233.204 102.096 233.285 102.104 233.365C102.111 233.446 102.134 233.523 102.171 233.593C104.019 237.344 105.867 239.425 107.974 240.15C108.522 240.335 109.093 240.431 109.668 240.432C111.154 240.364 112.6 239.884 113.868 239.037C113.077 241.919 112.209 244.602 111.355 246.996C109.927 245.544 108.188 244.504 106.297 243.971C104.405 243.439 102.421 243.43 100.526 243.947C100.466 243.961 100.409 243.988 100.359 244.027C100.309 244.066 100.267 244.115 100.235 244.172C100.203 244.229 100.182 244.292 100.173 244.358C100.164 244.425 100.167 244.492 100.183 244.557C100.476 245.793 101.03 246.937 101.8 247.899C102.571 248.862 103.536 249.615 104.621 250.099C105.413 250.457 106.262 250.641 107.12 250.641C108.254 250.631 109.368 250.306 110.354 249.695C109.238 252.665 107.978 255.569 106.581 258.395C106.521 258.536 106.512 258.695 106.555 258.843C106.597 258.991 106.689 259.117 106.812 259.195C106.903 259.26 107.011 259.295 107.12 259.294C107.201 259.297 107.282 259.276 107.354 259.233C107.425 259.19 107.485 259.127 107.526 259.05C109.22 255.591 110.728 252.027 112.041 248.376C112.068 248.318 112.089 248.257 112.104 248.193C112.365 247.477 112.624 246.737 112.881 245.975C114.568 248.094 116.619 249.268 118.677 249.268C118.901 249.268 119.118 249.268 119.342 249.268C120.483 249.144 121.56 248.638 122.425 247.818C123.29 246.999 123.901 245.907 124.172 244.694C124.192 244.557 124.171 244.417 124.113 244.294C124.055 244.17 123.963 244.07 123.85 244.008C122.307 243.065 120.58 242.535 118.812 242.459C117.044 242.384 115.285 242.765 113.679 243.573C114.232 241.827 114.771 239.974 115.268 238.053C115.312 237.975 115.336 237.886 115.338 237.794C115.471 237.253 115.611 236.711 115.737 236.155C117.76 238.549 119.629 239.723 121.428 239.723C123.612 239.723 125.628 237.962 127.567 234.386C127.619 234.253 127.628 234.104 127.591 233.965C127.554 233.826 127.474 233.705 127.364 233.623C123.297 230.574 118.432 232.655 116.262 233.875C116.57 232.447 116.841 230.993 117.074 229.514L117.081 229.361Z" fill="#E45E14"/>
<path opacity="0.3" d="M117.081 229.361C117.084 229.336 117.084 229.31 117.081 229.285C117.277 228.058 117.445 226.822 117.585 225.572C119.566 227.974 121.288 228.584 122.52 228.584C122.651 228.592 122.781 228.592 122.912 228.584C125.327 228.324 127.364 225.747 128.372 221.722C128.392 221.642 128.396 221.559 128.384 221.477C128.372 221.396 128.344 221.318 128.302 221.249C128.215 221.105 128.083 220.999 127.931 220.952C126.22 220.442 124.427 220.352 122.68 220.688C120.933 221.024 119.277 221.778 117.83 222.896C117.914 221.722 117.963 220.548 117.977 219.366C118.368 219.441 118.763 219.479 119.16 219.48C123.15 219.48 125.621 215.615 125.74 215.424C125.785 215.351 125.812 215.266 125.819 215.178C125.826 215.091 125.814 215.002 125.782 214.921C125.75 214.832 125.7 214.752 125.638 214.685C125.575 214.618 125.5 214.566 125.418 214.532C122.926 213.511 120.903 213.419 119.412 214.273C118.463 214.835 117.734 215.754 117.361 216.858C116.307 214.355 114.709 212.17 112.707 210.49C110.705 208.81 108.357 207.685 105.867 207.213C105.796 207.194 105.722 207.195 105.65 207.214C105.579 207.233 105.513 207.27 105.458 207.322C105.403 207.374 105.359 207.44 105.332 207.513C105.304 207.587 105.293 207.667 105.3 207.747C105.552 211.688 106.224 216.499 109.206 218.802C110.399 219.692 111.82 220.148 113.266 220.106C114.502 220.076 115.729 219.863 116.913 219.473C116.851 222.282 116.617 225.084 116.213 227.859C114.554 225.808 110.333 221.249 104.572 219.679C104.508 219.657 104.44 219.651 104.374 219.66C104.307 219.67 104.243 219.695 104.187 219.734C104.13 219.773 104.082 219.826 104.046 219.887C104.01 219.949 103.986 220.018 103.977 220.09C103.55 223.483 104.292 226.235 106.112 228.05C107.624 229.575 109.794 230.337 112.412 230.337C113.574 230.326 114.732 230.193 115.87 229.941C115.478 232.266 114.995 234.515 114.47 236.711C112.657 235.141 107.414 231.168 102.416 232.823C102.35 232.846 102.29 232.886 102.24 232.939C102.19 232.992 102.152 233.056 102.129 233.128C102.105 233.204 102.096 233.285 102.104 233.365C102.111 233.446 102.134 233.523 102.171 233.593C104.019 237.344 105.867 239.425 107.974 240.15C108.522 240.335 109.093 240.431 109.668 240.432C111.154 240.364 112.6 239.884 113.868 239.037C113.077 241.919 112.209 244.602 111.355 246.996C109.927 245.544 108.188 244.504 106.297 243.971C104.405 243.439 102.421 243.43 100.526 243.947C100.466 243.961 100.409 243.988 100.359 244.027C100.309 244.066 100.267 244.115 100.235 244.172C100.203 244.229 100.182 244.292 100.173 244.358C100.164 244.425 100.167 244.492 100.183 244.557C100.476 245.793 101.03 246.937 101.8 247.899C102.571 248.862 103.536 249.615 104.621 250.099C105.413 250.457 106.262 250.641 107.12 250.641C108.254 250.631 109.368 250.306 110.354 249.695C109.238 252.665 107.978 255.569 106.581 258.395C106.521 258.536 106.512 258.695 106.555 258.843C106.597 258.991 106.689 259.117 106.812 259.195C106.903 259.26 107.011 259.295 107.12 259.294C107.201 259.297 107.282 259.276 107.354 259.233C107.425 259.19 107.485 259.127 107.526 259.05C109.22 255.591 110.728 252.027 112.041 248.376C112.068 248.318 112.089 248.257 112.104 248.193C112.365 247.477 112.624 246.737 112.881 245.975C114.568 248.094 116.619 249.268 118.677 249.268C118.901 249.268 119.118 249.268 119.342 249.268C120.483 249.144 121.56 248.638 122.425 247.818C123.29 246.999 123.901 245.907 124.172 244.694C124.192 244.557 124.171 244.417 124.113 244.294C124.055 244.17 123.963 244.07 123.85 244.008C122.307 243.065 120.58 242.535 118.812 242.459C117.044 242.384 115.285 242.765 113.679 243.573C114.232 241.827 114.771 239.974 115.268 238.053C115.312 237.975 115.336 237.886 115.338 237.794C115.471 237.253 115.611 236.711 115.737 236.155C117.76 238.549 119.629 239.723 121.428 239.723C123.612 239.723 125.628 237.962 127.567 234.386C127.619 234.253 127.628 234.104 127.591 233.965C127.554 233.826 127.474 233.705 127.364 233.623C123.297 230.574 118.432 232.655 116.262 233.875C116.57 232.447 116.841 230.993 117.074 229.514L117.081 229.361Z" fill="black"/>
<path d="M91.6989 244.816C92.4536 245.074 93.2389 245.21 94.0299 245.22C95.0341 245.215 96.0257 244.976 96.9385 244.52C97.8512 244.064 98.6641 243.401 99.3228 242.575C99.9814 241.75 100.471 240.781 100.758 239.732C101.045 238.684 101.123 237.582 100.988 236.498C100.964 236.379 100.901 236.275 100.81 236.204C100.72 236.134 100.608 236.102 100.498 236.117C98.563 236.35 96.6999 237.049 95.0437 238.163C93.3874 239.277 91.9795 240.779 90.9219 242.559C90.0399 239.921 89.2139 237.115 88.5209 234.211C89.6521 234.939 90.9317 235.35 92.2449 235.408C92.7846 235.409 93.3212 235.317 93.8339 235.133C96.5569 234.15 98.4259 230.612 100.043 226.929C100.072 226.863 100.087 226.79 100.087 226.716C100.087 226.642 100.072 226.569 100.043 226.502C100.019 226.436 99.9814 226.377 99.9328 226.329C99.8841 226.281 99.826 226.247 99.7629 226.228C94.4359 224.573 89.5919 230.246 88.0659 232.274C87.5314 229.815 87.1201 227.325 86.8339 224.817C87.9623 225.052 89.108 225.175 90.2569 225.183C93.0569 225.183 95.2689 224.375 96.7669 222.782C98.5449 220.899 99.1539 218.078 98.5379 214.631C98.526 214.565 98.5014 214.502 98.4655 214.446C98.4296 214.391 98.3834 214.344 98.3298 214.31C98.2763 214.275 98.2166 214.253 98.1547 214.246C98.0929 214.238 98.0302 214.245 97.9709 214.265C92.2869 215.912 88.2759 220.517 86.6379 222.698C86.6379 222.248 86.5679 221.798 86.5399 221.348C86.5314 221.235 86.4897 221.128 86.4209 221.043C86.279 220.199 85.9652 219.399 85.5024 218.704C85.0397 218.009 84.4398 217.435 83.7469 217.025C82.1929 216.187 80.1418 216.309 77.6638 217.384C77.5905 217.415 77.5243 217.463 77.4699 217.525C77.4155 217.587 77.3741 217.661 77.3488 217.742C77.3238 217.821 77.3164 217.905 77.3274 217.987C77.3383 218.069 77.3673 218.147 77.4118 218.215C77.5378 218.398 80.2118 222.225 84.2159 222.225C84.6482 222.224 85.0795 222.178 85.5039 222.088C85.5879 223.328 85.7069 224.571 85.8609 225.816C84.3523 224.699 82.6378 223.955 80.8374 223.635C79.037 223.315 77.1942 223.427 75.4378 223.964C75.3686 223.982 75.3036 224.016 75.247 224.063C75.1904 224.111 75.1434 224.17 75.1088 224.238C75.0737 224.303 75.0513 224.375 75.0428 224.45C75.0344 224.524 75.0402 224.6 75.0598 224.673C76.2988 228.774 78.5038 231.359 80.9678 231.58C81.0797 231.588 81.192 231.588 81.3038 231.58C82.5639 231.58 84.3069 230.955 86.2039 228.424C86.6677 231.276 87.2752 234.099 88.0239 236.879C85.7699 235.674 80.6738 233.601 76.6838 236.757C76.6275 236.796 76.5787 236.846 76.5404 236.906C76.5021 236.965 76.475 237.032 76.4607 237.103C76.4464 237.174 76.4451 237.247 76.457 237.319C76.4688 237.39 76.4936 237.459 76.5298 237.519C78.6788 241.126 80.7928 242.856 82.9909 242.856H83.0469C84.8739 242.856 86.7149 241.614 88.6469 239.136C89.4379 241.85 90.3059 244.427 91.1949 246.821C88.9829 245.243 86.3929 245.494 83.2009 247.584C83.1317 247.632 83.0728 247.695 83.0281 247.77C82.9834 247.845 82.954 247.93 82.9419 248.018C82.9333 248.101 82.9442 248.185 82.9736 248.263C83.003 248.34 83.0499 248.408 83.1099 248.46C83.2709 248.598 85.9939 250.831 89.0389 250.831C90.2081 250.844 91.3539 250.475 92.3289 249.772C94.0517 254.133 96.037 258.366 98.2719 262.443C98.3166 262.52 98.3788 262.583 98.4524 262.626C98.526 262.668 98.6085 262.69 98.6919 262.687C98.8046 262.688 98.9147 262.651 99.0069 262.58C99.1299 262.498 99.2186 262.367 99.2539 262.214C99.2892 262.062 99.2684 261.901 99.1959 261.765C96.2659 256.354 93.7581 250.684 91.6989 244.816Z" fill="#E45E14"/>
<path opacity="0.5" d="M91.6989 244.816C92.4536 245.074 93.2389 245.21 94.0299 245.22C95.0341 245.215 96.0257 244.976 96.9385 244.52C97.8512 244.064 98.6641 243.401 99.3228 242.575C99.9814 241.75 100.471 240.781 100.758 239.732C101.045 238.684 101.123 237.582 100.988 236.498C100.964 236.379 100.901 236.275 100.81 236.204C100.72 236.134 100.608 236.102 100.498 236.117C98.563 236.35 96.6999 237.049 95.0437 238.163C93.3874 239.277 91.9795 240.779 90.9219 242.559C90.0399 239.921 89.2139 237.115 88.5209 234.211C89.6521 234.939 90.9317 235.35 92.2449 235.408C92.7846 235.409 93.3212 235.317 93.8339 235.133C96.5569 234.15 98.4259 230.612 100.043 226.929C100.072 226.863 100.087 226.79 100.087 226.716C100.087 226.642 100.072 226.569 100.043 226.502C100.019 226.436 99.9814 226.377 99.9328 226.329C99.8841 226.281 99.826 226.247 99.7629 226.228C94.4359 224.573 89.5919 230.246 88.0659 232.274C87.5314 229.815 87.1201 227.325 86.8339 224.817C87.9623 225.052 89.108 225.175 90.2569 225.183C93.0569 225.183 95.2689 224.375 96.7669 222.782C98.5449 220.899 99.1539 218.078 98.5379 214.631C98.526 214.565 98.5014 214.502 98.4655 214.446C98.4296 214.391 98.3834 214.344 98.3298 214.31C98.2763 214.275 98.2166 214.253 98.1547 214.246C98.0929 214.238 98.0302 214.245 97.9709 214.265C92.2869 215.912 88.2759 220.517 86.6379 222.698C86.6379 222.248 86.5679 221.798 86.5399 221.348C86.5314 221.235 86.4897 221.128 86.4209 221.043C86.279 220.199 85.9652 219.399 85.5024 218.704C85.0397 218.009 84.4398 217.435 83.7469 217.025C82.1929 216.187 80.1418 216.309 77.6638 217.384C77.5905 217.415 77.5243 217.463 77.4699 217.525C77.4155 217.587 77.3741 217.661 77.3488 217.742C77.3238 217.821 77.3164 217.905 77.3274 217.987C77.3383 218.069 77.3673 218.147 77.4118 218.215C77.5378 218.398 80.2118 222.225 84.2159 222.225C84.6482 222.224 85.0795 222.178 85.5039 222.088C85.5879 223.328 85.7069 224.571 85.8609 225.816C84.3523 224.699 82.6378 223.955 80.8374 223.635C79.037 223.315 77.1942 223.427 75.4378 223.964C75.3686 223.982 75.3036 224.016 75.247 224.063C75.1904 224.111 75.1434 224.17 75.1088 224.238C75.0737 224.303 75.0513 224.375 75.0428 224.45C75.0344 224.524 75.0402 224.6 75.0598 224.673C76.2988 228.774 78.5038 231.359 80.9678 231.58C81.0797 231.588 81.192 231.588 81.3038 231.58C82.5639 231.58 84.3069 230.955 86.2039 228.424C86.6677 231.276 87.2752 234.099 88.0239 236.879C85.7699 235.674 80.6738 233.601 76.6838 236.757C76.6275 236.796 76.5787 236.846 76.5404 236.906C76.5021 236.965 76.475 237.032 76.4607 237.103C76.4464 237.174 76.4451 237.247 76.457 237.319C76.4688 237.39 76.4936 237.459 76.5298 237.519C78.6788 241.126 80.7928 242.856 82.9909 242.856H83.0469C84.8739 242.856 86.7149 241.614 88.6469 239.136C89.4379 241.85 90.3059 244.427 91.1949 246.821C88.9829 245.243 86.3929 245.494 83.2009 247.584C83.1317 247.632 83.0728 247.695 83.0281 247.77C82.9834 247.845 82.954 247.93 82.9419 248.018C82.9333 248.101 82.9442 248.185 82.9736 248.263C83.003 248.34 83.0499 248.408 83.1099 248.46C83.2709 248.598 85.9939 250.831 89.0389 250.831C90.2081 250.844 91.3539 250.475 92.3289 249.772C94.0517 254.133 96.037 258.366 98.2719 262.443C98.3166 262.52 98.3788 262.583 98.4524 262.626C98.526 262.668 98.6085 262.69 98.6919 262.687C98.8046 262.688 98.9147 262.651 99.0069 262.58C99.1299 262.498 99.2186 262.367 99.2539 262.214C99.2892 262.062 99.2684 261.901 99.1959 261.765C96.2659 256.354 93.7581 250.684 91.6989 244.816Z" fill="white"/>
<path d="M110.954 275.42H94.2795L93.0195 256.642H112.214L110.954 275.42Z" fill="#263238"/>
<path d="M113.449 255.376H91.7695V258.555H113.449V255.376Z" fill="#263238"/>
<path d="M103.601 164.356H65.1079C62.4055 164.356 60.2148 166.742 60.2148 169.686V270.09C60.2148 273.033 62.4055 275.419 65.1079 275.419H103.601C106.303 275.419 108.494 273.033 108.494 270.09V169.686C108.494 166.742 106.303 164.356 103.601 164.356Z" fill="#E45E14"/>
<path opacity="0.6" d="M103.601 164.356H65.1079C62.4055 164.356 60.2148 166.742 60.2148 169.686V270.09C60.2148 273.033 62.4055 275.419 65.1079 275.419H103.601C106.303 275.419 108.494 273.033 108.494 270.09V169.686C108.494 166.742 106.303 164.356 103.601 164.356Z" fill="black"/>
<path d="M101.257 164.356H62.7641C60.0618 164.356 57.8711 166.742 57.8711 169.686V270.09C57.8711 273.033 60.0618 275.419 62.7641 275.419H101.257C103.96 275.419 106.15 273.033 106.15 270.09V169.686C106.15 166.742 103.96 164.356 101.257 164.356Z" fill="#E45E14"/>
<path opacity="0.3" d="M101.257 164.356H62.7641C60.0618 164.356 57.8711 166.742 57.8711 169.686V270.09C57.8711 273.033 60.0618 275.419 62.7641 275.419H101.257C103.96 275.419 106.15 273.033 106.15 270.09V169.686C106.15 166.742 103.96 164.356 101.257 164.356Z" fill="black"/>
<path d="M106.15 170.471H57.8711V265.912H106.15V170.471Z" fill="#FAFAFA"/>
<path opacity="0.18" d="M106.178 170.272H57.8984V265.713H106.178V170.272Z" fill="#E45E14"/>
<path opacity="0.4" d="M75.3895 170.479L59.7305 265.919H75.2355L90.9016 170.479H75.3895Z" fill="white"/>
<path opacity="0.4" d="M94.6825 170.479L79.0234 265.919H86.7795L102.439 170.479H94.6825Z" fill="white"/>
<path d="M84.19 270.334C84.19 270.803 84.0623 271.261 83.8231 271.651C83.5839 272.041 83.2438 272.345 82.8461 272.525C82.4483 272.704 82.0105 272.751 81.5882 272.66C81.1659 272.568 80.778 272.342 80.4736 272.011C80.1691 271.679 79.9618 271.257 79.8778 270.797C79.7938 270.337 79.8369 269.86 80.0017 269.427C80.1664 268.993 80.4455 268.623 80.8035 268.363C81.1615 268.102 81.5824 267.963 82.013 267.963C82.5903 267.963 83.1441 268.213 83.5523 268.657C83.9606 269.102 84.19 269.705 84.19 270.334Z" fill="#E45E14"/>
<path opacity="0.5" d="M84.19 270.334C84.19 270.803 84.0623 271.261 83.8231 271.651C83.5839 272.041 83.2438 272.345 82.8461 272.525C82.4483 272.704 82.0105 272.751 81.5882 272.66C81.1659 272.568 80.778 272.342 80.4736 272.011C80.1691 271.679 79.9618 271.257 79.8778 270.797C79.7938 270.337 79.8369 269.86 80.0017 269.427C80.1664 268.993 80.4455 268.623 80.8035 268.363C81.1615 268.102 81.5824 267.963 82.013 267.963C82.5903 267.963 83.1441 268.213 83.5523 268.657C83.9606 269.102 84.19 269.705 84.19 270.334Z" fill="black"/>
<path d="M87.7192 168.008C88.1445 168.008 88.4892 167.632 88.4892 167.169C88.4892 166.706 88.1445 166.331 87.7192 166.331C87.294 166.331 86.9492 166.706 86.9492 167.169C86.9492 167.632 87.294 168.008 87.7192 168.008Z" fill="#E45E14"/>
<path d="M84.5753 168.008H76.3013C76.097 168.008 75.9012 167.92 75.7568 167.762C75.6124 167.605 75.5312 167.392 75.5312 167.169C75.5331 166.947 75.6148 166.735 75.7588 166.578C75.9028 166.422 76.0976 166.333 76.3013 166.331H84.5683C84.7719 166.333 84.9667 166.422 85.1107 166.578C85.2547 166.735 85.3365 166.947 85.3383 167.169C85.3383 167.39 85.2581 167.603 85.1152 167.76C84.9723 167.917 84.7783 168.006 84.5753 168.008Z" fill="#E45E14"/>
<path opacity="0.5" d="M87.7192 168.008C88.1445 168.008 88.4892 167.632 88.4892 167.169C88.4892 166.706 88.1445 166.331 87.7192 166.331C87.294 166.331 86.9492 166.706 86.9492 167.169C86.9492 167.632 87.294 168.008 87.7192 168.008Z" fill="black"/>
<path opacity="0.5" d="M84.5753 168.008H76.3013C76.097 168.008 75.9012 167.92 75.7568 167.762C75.6124 167.605 75.5312 167.392 75.5312 167.169C75.5331 166.947 75.6148 166.735 75.7588 166.578C75.9028 166.422 76.0976 166.333 76.3013 166.331H84.5683C84.7719 166.333 84.9667 166.422 85.1107 166.578C85.2547 166.735 85.3365 166.947 85.3383 167.169C85.3383 167.39 85.2581 167.603 85.1152 167.76C84.9723 167.917 84.7783 168.006 84.5753 168.008Z" fill="black"/>
</svg>
