<svg width="27" height="25" viewBox="0 0 27 25" fill="none" xmlns="http://www.w3.org/2000/svg">
<g clip-path="url(#clip0_2759_1785)">
<path d="M8.53021 12.0171C7.06771 12.0617 5.87153 12.6332 4.94167 13.7314H3.12708C2.38681 13.7314 1.76389 13.5506 1.25833 13.189C0.752778 12.8274 0.5 12.2983 0.5 11.6019C0.5 8.45013 1.05972 6.87423 2.17917 6.87423C2.23333 6.87423 2.42969 6.96798 2.76823 7.15548C3.10677 7.34298 3.54688 7.53271 4.08854 7.72468C4.63021 7.91664 5.16736 8.01263 5.7 8.01263C6.30486 8.01263 6.90521 7.90995 7.50104 7.70459C7.4559 8.03495 7.43333 8.32959 7.43333 8.58852C7.43333 9.82959 7.79896 10.9724 8.53021 12.0171ZM23.0333 20.5483C23.0333 21.6198 22.7038 22.4658 22.0448 23.0863C21.3858 23.7068 20.5101 24.0171 19.4177 24.0171H7.58229C6.48993 24.0171 5.61424 23.7068 4.95521 23.0863C4.29618 22.4658 3.96667 21.6198 3.96667 20.5483C3.96667 20.0751 3.98247 19.6131 4.01406 19.1622C4.04566 18.7113 4.10885 18.2247 4.20365 17.7024C4.29844 17.18 4.41806 16.6957 4.5625 16.2492C4.70694 15.8028 4.90104 15.3675 5.14479 14.9434C5.38854 14.5193 5.6684 14.1577 5.98438 13.8586C6.30035 13.5595 6.68628 13.3207 7.14219 13.1421C7.59809 12.9635 8.10139 12.8742 8.65208 12.8742C8.74236 12.8742 8.93646 12.9702 9.23438 13.1622C9.53229 13.3541 9.86181 13.5684 10.2229 13.805C10.584 14.0416 11.067 14.2559 11.6719 14.4479C12.2767 14.6399 12.8861 14.7358 13.5 14.7358C14.1139 14.7358 14.7233 14.6399 15.3281 14.4479C15.933 14.2559 16.416 14.0416 16.7771 13.805C17.1382 13.5684 17.4677 13.3541 17.7656 13.1622C18.0635 12.9702 18.2576 12.8742 18.3479 12.8742C18.8986 12.8742 19.4019 12.9635 19.8578 13.1421C20.3137 13.3207 20.6997 13.5595 21.0156 13.8586C21.3316 14.1577 21.6115 14.5193 21.8552 14.9434C22.099 15.3675 22.2931 15.8028 22.4375 16.2492C22.5819 16.6957 22.7016 17.18 22.7964 17.7024C22.8911 18.2247 22.9543 18.7113 22.9859 19.1622C23.0175 19.6131 23.0333 20.0751 23.0333 20.5483ZM9.16667 3.44566C9.16667 4.39209 8.82813 5.20013 8.15104 5.86977C7.47396 6.53941 6.65694 6.87423 5.7 6.87423C4.74306 6.87423 3.92604 6.53941 3.24896 5.86977C2.57188 5.20013 2.23333 4.39209 2.23333 3.44566C2.23333 2.49923 2.57188 1.6912 3.24896 1.02155C3.92604 0.351911 4.74306 0.0170898 5.7 0.0170898C6.65694 0.0170898 7.47396 0.351911 8.15104 1.02155C8.82813 1.6912 9.16667 2.49923 9.16667 3.44566ZM18.7 8.58852C18.7 10.0082 18.1922 11.2202 17.1766 12.2247C16.1609 13.2291 14.9354 13.7314 13.5 13.7314C12.0646 13.7314 10.8391 13.2291 9.82344 12.2247C8.80781 11.2202 8.3 10.0082 8.3 8.58852C8.3 7.16888 8.80781 5.95682 9.82344 4.95236C10.8391 3.94789 12.0646 3.44566 13.5 3.44566C14.9354 3.44566 16.1609 3.94789 17.1766 4.95236C18.1922 5.95682 18.7 7.16888 18.7 8.58852ZM26.5 11.6019C26.5 12.2983 26.2472 12.8274 25.7417 13.189C25.2361 13.5506 24.6132 13.7314 23.8729 13.7314H22.0583C21.1285 12.6332 19.9323 12.0617 18.4698 12.0171C19.201 10.9724 19.5667 9.82959 19.5667 8.58852C19.5667 8.32959 19.5441 8.03495 19.499 7.70459C20.0948 7.90995 20.6951 8.01263 21.3 8.01263C21.8326 8.01263 22.3698 7.91664 22.9115 7.72468C23.4531 7.53271 23.8932 7.34298 24.2318 7.15548C24.5703 6.96798 24.7667 6.87423 24.8208 6.87423C25.9403 6.87423 26.5 8.45013 26.5 11.6019ZM24.7667 3.44566C24.7667 4.39209 24.4281 5.20013 23.751 5.86977C23.074 6.53941 22.2569 6.87423 21.3 6.87423C20.3431 6.87423 19.526 6.53941 18.849 5.86977C18.1719 5.20013 17.8333 4.39209 17.8333 3.44566C17.8333 2.49923 18.1719 1.6912 18.849 1.02155C19.526 0.351911 20.3431 0.0170898 21.3 0.0170898C22.2569 0.0170898 23.074 0.351911 23.751 1.02155C24.4281 1.6912 24.7667 2.49923 24.7667 3.44566Z" fill="url(#paint0_linear_2759_1785)"/>
</g>
<defs>
<linearGradient id="paint0_linear_2759_1785" x1="13.5" y1="0.0170898" x2="13.5" y2="24.0171" gradientUnits="userSpaceOnUse">
<stop stop-color="#E45E14"/>
<stop offset="1" stop-color="#CA2323"/>
</linearGradient>
<clipPath id="clip0_2759_1785">
<rect width="26" height="24" fill="white" transform="translate(0.5 0.0170898)"/>
</clipPath>
</defs>
</svg>
